<?xml version="1.0" standalone="no"?>
<!DOCTYPE svg PUBLIC "-//W3C//DTD SVG 1.1//EN" "http://www.w3.org/Graphics/SVG/1.1/DTD/svg11.dtd" >
<svg xmlns="http://www.w3.org/2000/svg" xmlns:xlink="http://www.w3.org/1999/xlink" version="1.1">
<metadata>
Created by FontForge 20170731 at Wed Mar  6 02:50:52 2019
 By Aleksey,,,
Copyright (c) 2016-2019 by TypeType. Designers Ivan Gladkikh, Pavel Emelyanov. Technical designers Vika Usmanova, Olexa Volochay, Nadyr Rakhimov. All rights reserved. |DCNT
</metadata>
<defs>
<font id="TTNormsPro-Bold" horiz-adv-x="630" >
  <font-face 
    font-family="TT Norms Pro"
    font-weight="700"
    font-stretch="normal"
    units-per-em="1000"
    panose-1="2 0 8 3 2 0 0 2 0 4"
    ascent="700"
    descent="-300"
    x-height="490"
    cap-height="700"
    bbox="-580 -240 1438 1010"
    underline-thickness="50"
    underline-position="-250"
    unicode-range="U+000D-FB06"
  />
<missing-glyph horiz-adv-x="0" 
 />
    <glyph glyph-name="f_f" unicode="ff" horiz-adv-x="685" 
d="M95 0v355h-75v125h75v30q0 86 44.5 133t120.5 47q27 0 57 -8q5 -2 23 -7v-125q-1 0 -13 5q-13 5 -32 5q-30 0 -47.5 -18.5t-17.5 -51.5v-10h180v50q0 86 44.5 133t120.5 47q32 0 64 -8q6 -2 26 -7v-125q-3 0 -16 5q-18 5 -39 5q-30 0 -47.5 -18.5t-17.5 -51.5v-30h110
v-125h-110v-355h-135v355h-180v-355h-135z" />
    <glyph glyph-name="uniFB01" unicode="fi" horiz-adv-x="615" 
d="M95 0v355h-75v125h75v50q0 86 44.5 133t120.5 47q27 0 57 -8q5 -2 23 -7v-125q-1 0 -13 5q-13 5 -32 5q-30 0 -47.5 -18.5t-17.5 -51.5v-30h315v-480h-135v355h-180v-355h-135zM400 630q0 30 23 52.5t55 22.5t54.5 -22.5t22.5 -52.5t-23 -52.5t-55 -22.5t-54.5 22.5
t-22.5 52.5z" />
    <glyph glyph-name="f_f_i" unicode="ffi" horiz-adv-x="930" 
d="M95 0v355h-75v125h75v30q0 86 44.5 133t120.5 47q27 0 57 -8q5 -2 23 -7v-125q-1 0 -13 5q-13 5 -32 5q-30 0 -47.5 -18.5t-17.5 -51.5v-10h180v50q0 86 44.5 133t120.5 47q27 0 57 -8q5 -2 23 -7v-125q-1 0 -13 5q-13 5 -32 5q-30 0 -47.5 -18.5t-17.5 -51.5v-30h315
v-480h-135v355h-180v-355h-135v355h-180v-355h-135zM715 630q0 30 23 52.5t55 22.5t54.5 -22.5t22.5 -52.5t-23 -52.5t-55 -22.5t-54.5 22.5t-22.5 52.5z" />
    <glyph glyph-name=".notdef" horiz-adv-x="0" 
 />
    <glyph glyph-name=".null" horiz-adv-x="0" 
 />
    <glyph glyph-name="nonmarkingreturn" horiz-adv-x="333" 
 />
    <glyph glyph-name="NULL" horiz-adv-x="0" 
 />
    <glyph glyph-name="NULL" horiz-adv-x="0" 
 />
    <glyph glyph-name="CR" unicode="&#xd;" horiz-adv-x="0" 
 />
    <glyph glyph-name="space" unicode=" " horiz-adv-x="210" 
 />
    <glyph glyph-name="exclam" unicode="!" horiz-adv-x="320" 
d="M105 215l-25 485h160l-25 -485h-110zM80 70q0 34 23 57t57 23t57 -23t23 -57t-23 -57t-57 -23t-57 23t-23 57z" />
    <glyph glyph-name="quotedbl" unicode="&#x22;" horiz-adv-x="425" 
d="M50 455v245h130v-245h-130zM245 455v245h130v-245h-130z" />
    <glyph glyph-name="numbersign" unicode="#" horiz-adv-x="750" 
d="M120 0l35 185h-135l20 100h135l25 130h-135l20 100h135l35 185h115l-35 -185h145l35 185h115l-35 -185h135l-20 -100h-135l-25 -130h135l-20 -100h-135l-35 -185h-115l35 185h-145l-35 -185h-115zM290 285h145l25 130h-145z" />
    <glyph glyph-name="dollar" unicode="$" horiz-adv-x="585" 
d="M20 95l100 100q20 -23 43 -38q55 -37 122 -37q57 0 86 22t29 58q0 32 -36 53.5t-87.5 37.5t-103 38t-87.5 67.5t-36 113.5q0 74 48.5 125t136.5 75v90h130v-90q67 -10 127 -51q27 -18 48 -39l-100 -100q-19 19 -35 30q-46 30 -95 30q-105 0 -105 -70q0 -32 36 -53.5
t87.5 -37.5t103 -38t87.5 -67.5t36 -113.5q0 -77 -53 -134.5t-137 -75.5v-90h-130v90q-93 14 -162 60q-33 22 -53 45z" />
    <glyph glyph-name="percent" unicode="%" horiz-adv-x="815" 
d="M125 0l440 700h125l-440 -700h-125zM615 80q30 0 50 20t20 50t-20 50t-50 20t-50 -20t-20 -50t20 -50t50 -20zM445 150q0 69 49 117t121 48t121 -48t49 -117t-49 -117t-121 -48t-121 48t-49 117zM130 550q0 -30 20 -50t50 -20t50 20t20 50t-20 50t-50 20t-50 -20t-20 -50
zM30 550q0 69 49 117t121 48t121 -48t49 -117t-49 -117t-121 -48t-121 48t-49 117z" />
    <glyph glyph-name="ampersand" unicode="&#x26;" horiz-adv-x="655" 
d="M345 370l110 -130q8 15 15 31q15 43 15 84h125q0 -74 -35 -154q-18 -37 -35 -61q8 -9 18 -15q22 -15 52 -15q8 0 18 2l7 3v-115q-4 -3 -17 -8q-18 -7 -43 -7q-53 0 -95 32q-17 13 -31 33q-21 -21 -46 -35q-57 -35 -143 -35q-99 0 -159.5 55.5t-60.5 139.5q0 83 67 146
q28 27 68 49q-25 24 -45 51q-45 61 -45 119q0 79 53 129.5t142 50.5q81 0 133 -48.5t52 -121.5q0 -71 -60 -131q-24 -26 -60 -49zM370 140l-125 150q-19 -11 -33 -29q-32 -38 -32 -81q0 -35 24.5 -57.5t65.5 -22.5q37 0 72 20q10 6 28 20zM275 445q19 16 30 29q30 34 30 66
q0 26 -16 43t-39 17q-26 0 -43 -17t-17 -43q0 -35 27 -66q11 -15 28 -29z" />
    <glyph glyph-name="quotesingle" unicode="'" horiz-adv-x="230" 
d="M50 455v245h130v-245h-130z" />
    <glyph glyph-name="parenleft" unicode="(" horiz-adv-x="370" 
d="M360 -165l-105 -65q-52 56 -93 131q-92 166 -92 349q0 175 92 349q41 75 93 131l105 -65q-42 -54 -73 -118q-72 -150 -72 -297q0 -148 72 -298q30 -61 73 -117z" />
    <glyph glyph-name="parenright" unicode=")" horiz-adv-x="370" 
d="M115 -230l-105 65q40 53 72 117q73 152 73 298q0 145 -73 297q-33 67 -72 118l105 65q49 -54 92 -131q93 -174 93 -349q0 -179 -93 -349q-43 -77 -92 -131z" />
    <glyph glyph-name="asterisk" unicode="*" horiz-adv-x="400" 
d="M55 420l85 90l-115 20l30 95l110 -45l-15 120h100l-15 -120l110 45l30 -95l-115 -20l85 -90l-80 -60l-65 105l-65 -105z" />
    <glyph glyph-name="plus" unicode="+" horiz-adv-x="525" 
d="M35 230v125h170v170h115v-170h170v-125h-170v-170h-115v170h-170z" />
    <glyph glyph-name="comma" unicode="," horiz-adv-x="240" 
d="M-15 -85l105 235l115 -65l-140 -215z" />
    <glyph glyph-name="hyphen" unicode="-" horiz-adv-x="435" 
d="M50 235v125h335v-125h-335z" />
    <glyph glyph-name="period" unicode="." horiz-adv-x="240" 
d="M40 70q0 34 23 57t57 23t57 -23t23 -57t-23 -57t-57 -23t-57 23t-23 57z" />
    <glyph glyph-name="slash" unicode="/" horiz-adv-x="425" 
d="M0 -210l300 920h125l-300 -920h-125z" />
    <glyph glyph-name="zero" unicode="0" horiz-adv-x="700" 
d="M350 125q61 0 105.5 59.5t44.5 165.5t-44.5 165.5t-105.5 59.5t-105.5 -59.5t-44.5 -165.5t44.5 -165.5t105.5 -59.5zM350 -15q-125 0 -212.5 100.5t-87.5 264.5t87.5 264.5t212.5 100.5t212.5 -100.5t87.5 -264.5t-87.5 -264.5t-212.5 -100.5z" />
    <glyph glyph-name="one" unicode="1" horiz-adv-x="390" 
d="M150 0v510h-120v95q70 9 114 53q18 18 31 42h125v-700h-150z" />
    <glyph glyph-name="two" unicode="2" horiz-adv-x="575" 
d="M225 140h300v-140h-495q0 67 19 122t48.5 91.5t66 66.5t73 53.5t66 45t48.5 48.5t19 58q0 39 -28 64.5t-72 25.5q-53 0 -92 -43q-18 -20 -28 -42l-120 60q20 47 52 82q77 83 198 83q110 0 177.5 -62.5t67.5 -157.5q0 -56 -23 -100.5t-60 -75.5t-76 -57t-79.5 -57.5
t-61.5 -64.5z" />
    <glyph glyph-name="three" unicode="3" horiz-adv-x="575" 
d="M10 95l100 100q18 -21 41 -38q53 -37 109 -37q57 0 88.5 24.5t31.5 60.5t-29.5 60.5t-80.5 24.5h-80v130h70q44 0 69.5 22.5t25.5 57.5t-25.5 57.5t-69.5 22.5t-91 -35q-20 -17 -34 -35l-100 100q28 31 60 52q79 53 180 53q102 0 168.5 -58.5t66.5 -136.5q0 -71 -55 -118
q-27 -21 -55 -32q38 -14 67 -37q68 -52 68 -138q0 -85 -72 -147.5t-188 -62.5q-112 0 -198 55q-39 24 -67 55z" />
    <glyph glyph-name="four" unicode="4" horiz-adv-x="590" 
d="M15 125v160l305 415h175v-435h80v-140h-80v-125h-150v125h-330zM170 265h175v240z" />
    <glyph glyph-name="five" unicode="5" horiz-adv-x="605" 
d="M35 95l100 100q18 -21 41 -38q53 -37 109 -37q59 0 92 29.5t33 75.5t-32 75.5t-88 29.5q-51 0 -86 -28q-18 -13 -29 -27l-105 15l25 410h425v-140h-295l-5 -125q10 7 27 12q32 13 73 13q108 0 176.5 -66t68.5 -169t-73.5 -171.5t-191.5 -68.5q-112 0 -198 55
q-39 24 -67 55z" />
    <glyph glyph-name="six" unicode="6" horiz-adv-x="610" 
d="M100 400l195 300h155l-150 -230l10 2q21 3 25 3q95 0 165 -72.5t70 -172.5q0 -103 -75 -174t-190 -71t-190 71t-75 174q0 59 30 121q13 25 30 49zM305 120q49 0 79.5 30.5t30.5 79.5t-30.5 79.5t-79.5 30.5t-79.5 -30.5t-30.5 -79.5t30.5 -79.5t79.5 -30.5z" />
    <glyph glyph-name="seven" unicode="7" horiz-adv-x="525" 
d="M75 0l270 560h-320v140h480v-130l-275 -570h-155z" />
    <glyph glyph-name="eight" unicode="8" horiz-adv-x="610" 
d="M305 300q-48 0 -76.5 -25.5t-28.5 -64.5t28.5 -64.5t76.5 -25.5t76.5 25.5t28.5 64.5t-28.5 64.5t-76.5 25.5zM305 580q-37 0 -61 -22t-24 -53t24 -53t61 -22t61 22t24 53t-24 53t-61 22zM305 -15q-116 0 -188 63t-72 152q0 79 57 134q22 22 58 41q-25 13 -45 35
q-45 47 -45 110q0 78 66.5 136.5t168.5 58.5t168.5 -58.5t66.5 -136.5q0 -63 -45 -110q-20 -22 -45 -35q34 -18 57 -41q58 -56 58 -134q0 -89 -72 -152t-188 -63z" />
    <glyph glyph-name="nine" unicode="9" horiz-adv-x="610" 
d="M160 0l150 230l-10 -3q-14 -2 -25 -2q-95 0 -165 72.5t-70 172.5q0 103 75 174t190 71t190 -71t75 -174q0 -59 -30 -121q-13 -25 -30 -49l-195 -300h-155zM195 470q0 -49 30.5 -79.5t79.5 -30.5t79.5 30.5t30.5 79.5t-30.5 79.5t-79.5 30.5t-79.5 -30.5t-30.5 -79.5z" />
    <glyph glyph-name="colon" unicode=":" horiz-adv-x="240" 
d="M40 70q0 34 23 57t57 23t57 -23t23 -57t-23 -57t-57 -23t-57 23t-23 57zM40 420q0 34 23 57t57 23t57 -23t23 -57t-23 -57t-57 -23t-57 23t-23 57z" />
    <glyph glyph-name="semicolon" unicode=";" horiz-adv-x="240" 
d="M45 420q0 34 23 57t57 23t57 -23t23 -57t-23 -57t-57 -23t-57 23t-23 57zM-15 -85l105 235l115 -65l-140 -215z" />
    <glyph glyph-name="less" unicode="&#x3c;" horiz-adv-x="510" 
d="M40 200v90l430 205v-130l-260 -120l260 -120v-130z" />
    <glyph glyph-name="equal" unicode="=" horiz-adv-x="495" 
d="M40 140v115h415v-115h-415zM40 335v115h415v-115h-415z" />
    <glyph glyph-name="greater" unicode="&#x3e;" horiz-adv-x="510" 
d="M40 -5v130l260 120l-260 120v130l430 -205v-90z" />
    <glyph glyph-name="question" unicode="?" horiz-adv-x="545" 
d="M320 215h-130q-4 8 -5 13q-5 15 -5 32q0 38 18 68.5t44 50.5t51.5 37t43.5 37t18 42q0 28 -25 49t-65 21q-56 0 -96 -40q-19 -19 -29 -40l-130 60q18 47 52 82q83 83 203 83q113 0 181.5 -59.5t68.5 -145.5q0 -47 -20 -83t-48.5 -58.5t-57.5 -42.5t-49 -46.5t-20 -59.5z
M170 70q0 34 23 57t57 23t57 -23t23 -57t-23 -57t-57 -23t-57 23t-23 57z" />
    <glyph glyph-name="at" unicode="@" horiz-adv-x="880" 
d="M620 10l55 -70q-23 -23 -61 -43q-80 -42 -174 -42q-158 0 -274 117t-116 278t116 278t274 117q167 0 281 -110t114 -265q0 -99 -49 -154.5t-126 -55.5q-56 0 -94 32q-17 14 -26 33h-5q-11 -21 -26 -33q-38 -32 -89 -32q-69 0 -117 52t-48 133t48 133t117 52q40 0 67 -20
q9 -6 23 -20h5v35h95v-215q0 -26 16 -43t39 -17q70 0 70 120q0 118 -84 199t-211 81q-121 0 -205.5 -86.5t-84.5 -213.5t84.5 -213.5t205.5 -86.5q71 0 133 30q28 14 47 30zM435 155q35 0 57.5 24.5t22.5 65.5t-23 65.5t-57 24.5q-35 0 -57.5 -24.5t-22.5 -65.5t22.5 -65.5
t57.5 -24.5z" />
    <glyph glyph-name="A" unicode="A" horiz-adv-x="720" 
d="M275 295h170l-83 230h-4zM5 0l270 700h170l270 -700h-160l-60 160h-270l-60 -160h-160z" />
    <glyph glyph-name="B" unicode="B" horiz-adv-x="690" 
d="M90 0v700h295q102 0 163.5 -53.5t61.5 -131.5q0 -68 -48 -114q-23 -21 -47 -31q35 -10 65 -34q65 -55 65 -136q0 -84 -65.5 -142t-174.5 -58h-315zM240 130h155q44 0 69.5 23t25.5 62t-25.5 62t-69.5 23h-155v-170zM240 430h135q37 0 58.5 19.5t21.5 50.5t-21.5 50.5
t-58.5 19.5h-135v-140z" />
    <glyph glyph-name="C" unicode="C" horiz-adv-x="745" 
d="M625 225l100 -100q-31 -38 -75 -70q-102 -70 -225 -70q-161 0 -270.5 107t-109.5 258t109.5 258t270.5 107q123 0 221 -70q42 -30 74 -70l-100 -100q-20 26 -51 50q-66 50 -144 50q-94 0 -159.5 -65.5t-65.5 -159.5t65.5 -159.5t159.5 -65.5q79 0 149 50q32 24 51 50z
" />
    <glyph glyph-name="D" unicode="D" horiz-adv-x="760" 
d="M90 0v700h255q160 0 265 -101t105 -249t-105 -249t-265 -101h-255zM240 140h105q93 0 154 60t61 150t-61 150t-154 60h-105v-420z" />
    <glyph glyph-name="E" unicode="E" horiz-adv-x="665" 
d="M90 0v700h520v-140h-370v-135h290v-135h-290v-150h380v-140h-530z" />
    <glyph glyph-name="F" unicode="F" horiz-adv-x="640" 
d="M90 0v700h515v-140h-365v-165h285v-140h-285v-255h-150z" />
    <glyph glyph-name="G" unicode="G" horiz-adv-x="795" 
d="M450 265v120h280v-265q-34 -39 -78 -68q-98 -67 -227 -67q-161 0 -270.5 107t-109.5 258t109.5 258t270.5 107q123 0 221 -70q42 -30 74 -70l-100 -100q-20 26 -51 50q-66 50 -144 50q-94 0 -159.5 -65.5t-65.5 -159.5t65.5 -159.5t159.5 -65.5q66 0 115 27q26 14 40 28
v85h-130z" />
    <glyph glyph-name="H" unicode="H" horiz-adv-x="780" 
d="M90 0v700h150v-275h300v275h150v-700h-150v285h-300v-285h-150z" />
    <glyph glyph-name="I" unicode="I" horiz-adv-x="330" 
d="M90 0v700h150v-700h-150z" />
    <glyph glyph-name="J" unicode="J" horiz-adv-x="525" 
d="M-10 75l100 100q12 -15 27 -25q33 -25 73 -25q46 0 73 29t27 81v465h150v-465q0 -112 -68 -181t-177 -69q-92 0 -157 45q-28 20 -48 45z" />
    <glyph glyph-name="K" unicode="K" horiz-adv-x="700" 
d="M90 0v700h150v-300l270 300h180l-260 -290l280 -410h-175l-205 300l-90 -95v-205h-150z" />
    <glyph glyph-name="L" unicode="L" horiz-adv-x="585" 
d="M90 0v700h150v-560h325v-140h-475z" />
    <glyph glyph-name="M" unicode="M" horiz-adv-x="930" 
d="M90 0v700h135l240 -300l240 300h135v-700h-150v460l-225 -280l-225 280v-460h-150z" />
    <glyph glyph-name="N" unicode="N" horiz-adv-x="805" 
d="M90 0v700h135l340 -435v435h150v-700h-135l-340 435v-435h-150z" />
    <glyph glyph-name="O" unicode="O" horiz-adv-x="850" 
d="M200 350q0 -94 65.5 -159.5t159.5 -65.5t159.5 65.5t65.5 159.5t-65.5 159.5t-159.5 65.5t-159.5 -65.5t-65.5 -159.5zM45 350q0 151 109.5 258t270.5 107t270.5 -107t109.5 -258t-109.5 -258t-270.5 -107t-270.5 107t-109.5 258z" />
    <glyph glyph-name="P" unicode="P" horiz-adv-x="680" 
d="M90 0v700h295q111 0 180.5 -66t69.5 -169t-69.5 -169t-180.5 -66h-145v-230h-150zM240 370h140q45 0 72.5 26.5t27.5 68.5t-27.5 68.5t-72.5 26.5h-140v-190z" />
    <glyph glyph-name="Q" unicode="Q" horiz-adv-x="850" 
d="M815 -35v-130l-14 -3q-18 -2 -36 -2q-130 0 -224 80q-40 34 -66 80l-14 -3q-18 -2 -36 -2q-161 0 -270.5 107t-109.5 258t109.5 258t270.5 107t270.5 -107t109.5 -258q0 -140 -98 -244q-45 -45 -97 -71q17 -21 41 -38q53 -37 119 -37q16 0 32 2zM200 350
q0 -94 65.5 -159.5t159.5 -65.5t159.5 65.5t65.5 159.5t-65.5 159.5t-159.5 65.5t-159.5 -65.5t-65.5 -159.5z" />
    <glyph glyph-name="R" unicode="R" horiz-adv-x="705" 
d="M90 0v700h310q112 0 178.5 -64.5t66.5 -170.5q0 -103 -60 -163q-25 -27 -60 -42l145 -260h-165l-125 230h-140v-230h-150zM240 370h155q42 0 68.5 26.5t26.5 68.5t-26.5 68.5t-68.5 26.5h-155v-190z" />
    <glyph glyph-name="S" unicode="S" horiz-adv-x="585" 
d="M20 95l100 100q20 -23 43 -38q55 -37 122 -37q57 0 86 22t29 58q0 32 -36 53.5t-87.5 37.5t-103 38t-87.5 67.5t-36 113.5q0 86 69.5 145.5t185.5 59.5q98 0 176 -48q31 -19 59 -47l-100 -100q-19 19 -35 30q-46 30 -95 30q-105 0 -105 -70q0 -32 36 -53.5t87.5 -37.5
t103 -38t87.5 -67.5t36 -113.5q0 -90 -72.5 -152.5t-192.5 -62.5q-115 0 -203 55q-40 24 -67 55z" />
    <glyph glyph-name="T" unicode="T" horiz-adv-x="590" 
d="M220 0v560h-200v140h550v-140h-200v-560h-150z" />
    <glyph glyph-name="U" unicode="U" horiz-adv-x="780" 
d="M85 290v410h150v-410q0 -74 43 -119.5t112 -45.5t112 45.5t43 119.5v410h150v-410q0 -135 -85 -220t-220 -85t-220 85t-85 220z" />
    <glyph glyph-name="V" unicode="V" horiz-adv-x="720" 
d="M275 0l-260 700h160l183 -515h4l183 515h160l-260 -700h-170z" />
    <glyph glyph-name="W" unicode="W" horiz-adv-x="1070" 
d="M245 0l-230 700h155l145 -470h5l145 470h140l145 -470h5l145 470h155l-230 -700h-145l-142 455h-6l-142 -455h-145z" />
    <glyph glyph-name="X" unicode="X" horiz-adv-x="680" 
d="M0 0l240 365l-220 335h175l143 -230h4l143 230h175l-220 -335l240 -365h-175l-163 260h-4l-163 -260h-175z" />
    <glyph glyph-name="Y" unicode="Y" horiz-adv-x="670" 
d="M260 0v250l-265 450h175l163 -300h4l163 300h175l-265 -450v-250h-150z" />
    <glyph glyph-name="Z" unicode="Z" horiz-adv-x="645" 
d="M45 0v140l355 420h-340v140h530v-140l-355 -420h365v-140h-555z" />
    <glyph glyph-name="bracketleft" unicode="[" horiz-adv-x="365" 
d="M80 -210v920h255v-125h-115v-670h115v-125h-255z" />
    <glyph glyph-name="backslash" unicode="\" horiz-adv-x="425" 
d="M300 -210l-300 920h125l300 -920h-125z" />
    <glyph glyph-name="bracketright" unicode="]" horiz-adv-x="365" 
d="M30 -210v125h115v670h-115v125h255v-920h-255z" />
    <glyph glyph-name="asciicircum" unicode="^" horiz-adv-x="430" 
d="M30 400l135 300h100l135 -300h-115l-70 160l-70 -160h-115z" />
    <glyph glyph-name="underscore" unicode="_" horiz-adv-x="345" 
d="M-10 -210v125h365v-125h-365z" />
    <glyph glyph-name="grave" unicode="`" horiz-adv-x="280" 
d="M140 555l-110 150h140l80 -150h-110z" />
    <glyph glyph-name="a" unicode="a" horiz-adv-x="540" 
d="M340 0v60h-5q-18 -22 -37 -35q-44 -35 -108 -35q-67 0 -108.5 39.5t-41.5 100.5q0 60 38.5 102.5t106.5 54.5l155 28q-4 28 -26 46.5t-59 18.5q-46 0 -81 -28q-18 -13 -29 -27l-80 80q22 27 51 47q70 48 149 48q92 0 151 -56t59 -139v-305h-135zM340 210v10l-110 -20
q-55 -11 -55 -50q0 -50 60 -50q45 0 75 31t30 79z" />
    <glyph glyph-name="b" unicode="b" horiz-adv-x="620" 
d="M70 0v700h135v-280h5q14 21 38 40q54 40 117 40q89 0 154.5 -73t65.5 -182q0 -110 -65.5 -182.5t-154.5 -72.5q-63 0 -117 40q-24 19 -38 40h-5v-70h-135zM325 115q53 0 89 37t36 93t-36 93t-89 37t-89 -37t-36 -93t36 -93t89 -37z" />
    <glyph glyph-name="c" unicode="c" horiz-adv-x="520" 
d="M415 175l85 -85q-18 -26 -50 -50q-70 -50 -155 -50q-108 0 -184 75t-76 180t76 180t184 75q85 0 155 -50q32 -24 50 -50l-85 -85q-13 16 -32 30q-42 30 -88 30q-53 0 -89 -37t-36 -93t36 -93t89 -37q46 0 88 30q19 14 32 30z" />
    <glyph glyph-name="d" unicode="d" horiz-adv-x="620" 
d="M415 0v70h-5q-14 -21 -38 -40q-54 -40 -117 -40q-89 0 -154.5 72.5t-65.5 182.5q0 109 65.5 182t154.5 73q63 0 117 -40q24 -19 38 -40h5v280h135v-700h-135zM295 115q53 0 89 37t36 93t-36 93t-89 37t-89 -37t-36 -93t36 -93t89 -37z" />
    <glyph glyph-name="e" unicode="e" horiz-adv-x="570" 
d="M435 165l70 -95q-21 -21 -54 -40q-72 -40 -156 -40q-108 0 -184 75t-76 180t75 180t180 75q101 0 173 -72t72 -173q0 -10 -3 -43l-2 -17h-355q12 -37 44.5 -61t85.5 -24q56 0 97 27q20 13 33 28zM175 295h220q-12 36 -41 60.5t-69 24.5t-69 -24.5t-41 -60.5z" />
    <glyph glyph-name="f" unicode="f" horiz-adv-x="370" 
d="M95 0v355h-75v125h75v50q0 86 44.5 133t120.5 47q32 0 64 -8q6 -2 26 -7v-125q-2 0 -16 5q-18 5 -39 5q-30 0 -47.5 -18.5t-17.5 -51.5v-30h110v-125h-110v-355h-135z" />
    <glyph glyph-name="g" unicode="g" horiz-adv-x="600" 
d="M285 135q49 0 82 33.5t33 86.5t-33 86.5t-82 33.5t-82 -33.5t-33 -86.5t33 -86.5t82 -33.5zM55 -110l85 85q14 -16 35 -30q46 -30 95 -30q57 0 93.5 37.5t36.5 97.5v40h-5q-14 -21 -36 -40q-48 -40 -114 -40q-84 0 -147 69.5t-63 175.5t63 175.5t147 69.5q66 0 114 -40
q22 -19 36 -40h5v70h135v-440q0 -113 -74.5 -186.5t-190.5 -73.5q-90 0 -162 50q-34 24 -53 50z" />
    <glyph glyph-name="h" unicode="h" horiz-adv-x="600" 
d="M70 0v700h135v-280h5q16 22 37 40q48 40 108 40q77 0 128.5 -56.5t51.5 -148.5v-295h-135v275q0 45 -24 70t-66 25q-45 0 -75 -31t-30 -79v-260h-135z" />
    <glyph glyph-name="i" unicode="i" horiz-adv-x="265" 
d="M65 0v490h135v-490h-135zM55 630q0 30 23 52.5t55 22.5t54.5 -22.5t22.5 -52.5t-23 -52.5t-55 -22.5t-54.5 22.5t-22.5 52.5z" />
    <glyph glyph-name="j" unicode="j" horiz-adv-x="265" 
d="M-55 -195v125q10 -4 16 -5q18 -5 39 -5q30 0 47.5 18.5t17.5 51.5v500h135v-520q0 -86 -44.5 -133t-120.5 -47q-36 0 -64 7q-4 1 -13 3.5t-13 4.5zM55 630q0 30 23 52.5t55 22.5t54.5 -22.5t22.5 -52.5t-23 -52.5t-55 -22.5t-54.5 22.5t-22.5 52.5z" />
    <glyph glyph-name="k" unicode="k" horiz-adv-x="545" 
d="M70 0v700h135v-410l175 200h160l-180 -205l190 -285h-155l-125 190l-65 -75v-115h-135z" />
    <glyph glyph-name="l" unicode="l" horiz-adv-x="275" 
d="M70 0v700h135v-700h-135z" />
    <glyph glyph-name="m" unicode="m" horiz-adv-x="885" 
d="M65 0v490h135v-70h5q14 23 32 40q46 40 103 40q65 0 112 -43q20 -18 33 -42h5q16 23 41 42q55 43 119 43q74 0 122 -53.5t48 -141.5v-305h-135v285q0 85 -80 85q-42 0 -68.5 -27.5t-26.5 -72.5v-270h-135v285q0 85 -80 85q-42 0 -68.5 -27.5t-26.5 -72.5v-270h-135z" />
    <glyph glyph-name="n" unicode="n" horiz-adv-x="595" 
d="M65 0v490h135v-70h5q16 22 37 40q48 40 108 40q77 0 128.5 -56.5t51.5 -148.5v-295h-135v275q0 45 -24 70t-66 25q-45 0 -75 -31t-30 -79v-260h-135z" />
    <glyph glyph-name="o" unicode="o" horiz-adv-x="590" 
d="M295 115q53 0 89 37t36 93t-36 93t-89 37t-89 -37t-36 -93t36 -93t89 -37zM35 245q0 105 76 180t184 75t184 -75t76 -180t-76 -180t-184 -75t-184 75t-76 180z" />
    <glyph glyph-name="p" unicode="p" horiz-adv-x="615" 
d="M65 -210v700h135v-70h5q14 21 38 40q54 40 117 40q89 0 154.5 -73t65.5 -182q0 -110 -65.5 -182.5t-154.5 -72.5q-63 0 -117 40q-24 19 -38 40h-5v-280h-135zM320 115q53 0 89 37t36 93t-36 93t-89 37t-89 -37t-36 -93t36 -93t89 -37z" />
    <glyph glyph-name="q" unicode="q" horiz-adv-x="615" 
d="M415 -210v280h-5q-14 -21 -38 -40q-54 -40 -117 -40q-89 0 -154.5 72.5t-65.5 182.5q0 109 65.5 182t154.5 73q63 0 117 -40q24 -19 38 -40h5v70h135v-700h-135zM295 115q53 0 89 37t36 93t-36 93t-89 37t-89 -37t-36 -93t36 -93t89 -37z" />
    <glyph glyph-name="r" unicode="r" horiz-adv-x="380" 
d="M65 0v490h135v-70h5q16 22 37 40q48 40 108 40h10v-145l-11 2q-24 3 -34 3q-50 0 -82.5 -35.5t-32.5 -94.5v-230h-135z" />
    <glyph glyph-name="s" unicode="s" horiz-adv-x="455" 
d="M15 80l80 85q13 -15 35 -28q41 -27 95 -27q60 0 60 35q0 17 -39 33t-86 30t-86 51t-39 91q0 63 52.5 106.5t142.5 43.5q78 0 142 -38q26 -15 48 -37l-80 -85q-13 11 -29 20q-35 20 -81 20q-25 0 -37.5 -9t-12.5 -21q0 -17 39 -33t86 -30t86 -51t39 -91q0 -66 -54 -110.5
t-151 -44.5q-86 0 -156 45q-31 19 -54 45z" />
    <glyph glyph-name="t" unicode="t" horiz-adv-x="400" 
d="M105 170v185h-85v125h45q55 0 55 60v90h120v-150h110v-125h-110v-165q0 -33 17.5 -51.5t47.5 -18.5q21 0 39 5q6 1 16 5v-125q-4 -2 -13 -4.5t-13 -3.5q-28 -7 -64 -7q-76 0 -120.5 47t-44.5 133z" />
    <glyph glyph-name="u" unicode="u" horiz-adv-x="595" 
d="M65 195v295h135v-275q0 -45 24 -70t66 -25q45 0 75 31t30 79v260h135v-490h-135v70h-5q-16 -22 -37 -40q-48 -40 -108 -40q-77 0 -128.5 56.5t-51.5 148.5z" />
    <glyph glyph-name="v" unicode="v" horiz-adv-x="510" 
d="M180 0l-185 490h145l113 -330h4l113 330h145l-185 -490h-150z" />
    <glyph glyph-name="w" unicode="w" horiz-adv-x="770" 
d="M167 0l-172 490h145l90 -290h5l95 290h110l95 -290h5l90 290h145l-172 -490h-123l-93 285h-4l-93 -285h-123z" />
    <glyph glyph-name="x" unicode="x" horiz-adv-x="510" 
d="M-5 0l175 250l-165 240h155l93 -150h4l93 150h155l-165 -240l175 -250h-155l-103 160h-4l-103 -160h-155z" />
    <glyph glyph-name="y" unicode="y" horiz-adv-x="510" 
d="M35 -195v125q10 -4 16 -5q18 -5 39 -5q59 0 85 60l10 25l-190 485h145l115 -325h5l110 325h145l-200 -530q-32 -85 -77.5 -127.5t-112.5 -42.5q-36 0 -64 7q-4 1 -13 3.5t-13 4.5z" />
    <glyph glyph-name="z" unicode="z" horiz-adv-x="500" 
d="M35 0v125l240 240h-230v125h410v-125l-240 -240h250v-125h-430z" />
    <glyph glyph-name="braceleft" unicode="{" horiz-adv-x="380" 
d="M105 -45v170q0 30 -17.5 47.5t-47.5 17.5h-10v120h10q30 0 47.5 17.5t17.5 47.5v170q0 79 43.5 122t126.5 43h75v-125h-45q-60 0 -60 -60v-165q0 -57 -40 -89q-18 -14 -40 -21q22 -7 40 -21q40 -32 40 -89v-165q0 -60 60 -60h45v-125h-75q-83 0 -126.5 43t-43.5 122z" />
    <glyph glyph-name="bar" unicode="|" horiz-adv-x="380" 
d="M120 -210v920h140v-920h-140z" />
    <glyph glyph-name="braceright" unicode="}" horiz-adv-x="380" 
d="M30 -210v125h45q60 0 60 60v165q0 57 40 89q18 14 40 21q-22 7 -40 21q-40 32 -40 89v165q0 60 -60 60h-45v125h75q83 0 126.5 -43t43.5 -122v-170q0 -30 17.5 -47.5t47.5 -17.5h10v-120h-10q-30 0 -47.5 -17.5t-17.5 -47.5v-170q0 -79 -43.5 -122t-126.5 -43h-75z" />
    <glyph glyph-name="asciitilde" unicode="~" horiz-adv-x="570" 
d="M120 210l-90 70q15 32 34 52q47 53 116 53q52 0 108 -30t82 -30q38 0 61 27q13 15 19 28l90 -70q-14 -32 -34 -53q-46 -52 -116 -52q-52 0 -108 30t-82 30q-37 0 -61 -28q-13 -15 -19 -27z" />
    <glyph glyph-name="nbspace" unicode="&#xa0;" horiz-adv-x="210" 
 />
    <glyph glyph-name="exclamdown" unicode="&#xa1;" horiz-adv-x="320" 
d="M80 -210l25 485h110l25 -485h-160zM80 420q0 34 23 57t57 23t57 -23t23 -57t-23 -57t-57 -23t-57 23t-23 57z" />
    <glyph glyph-name="cent" unicode="&#xa2;" horiz-adv-x="520" 
d="M230 -100v100q-79 15 -137 83t-58 162t57.5 161t137.5 84v100h120v-95q58 -13 111 -55q23 -19 39 -40l-85 -85q-13 16 -32 30q-42 30 -88 30q-53 0 -89 -37t-36 -93t36 -93t89 -37q46 0 88 30q19 14 32 30l85 -85q-16 -21 -39 -40q-53 -42 -111 -55v-95h-120z" />
    <glyph glyph-name="sterling" unicode="&#xa3;" horiz-adv-x="560" 
d="M30 0v130q33 0 51.5 17.5t18.5 47.5v75h-65v120h65v90q0 105 64 170t166 65q91 0 159 -45q30 -20 51 -45l-100 -95q-11 14 -25 25q-33 25 -70 25q-48 0 -76.5 -27.5t-28.5 -72.5v-90h175v-120h-175v-75q0 -29 -13 -49q-4 -10 -12 -16h325v-130h-510z" />
    <glyph glyph-name="currency" unicode="&#xa4;" horiz-adv-x="510" 
d="M350 335q0 39 -27 67t-68 28t-68 -28t-27 -67t27 -67t68 -28t68 28t27 67zM40 185l60 60q-9 15 -13 26q-12 27 -12 64t12 64q4 11 13 26l-60 60l60 60l60 -60q18 10 29 15q36 15 66 15q25 0 66 -15l29 -15l60 60l60 -60l-60 -60q7 -11 12 -26q13 -30 13 -64t-13 -64
q-5 -15 -12 -26l60 -60l-60 -60l-60 60q-13 -9 -29 -15q-36 -15 -66 -15q-34 0 -66 15q-14 5 -29 15l-60 -60z" />
    <glyph glyph-name="yen" unicode="&#xa5;" horiz-adv-x="670" 
d="M110 95v100h150v60h-150v100h90l-205 345h175l163 -300h4l163 300h175l-205 -345h90v-100h-150v-60h150v-100h-150v-95h-150v95h-150z" />
    <glyph glyph-name="brokenbar" unicode="&#xa6;" horiz-adv-x="380" 
d="M120 -210v380h140v-380h-140zM120 330v380h140v-380h-140z" />
    <glyph glyph-name="section" unicode="&#xa7;" horiz-adv-x="560" 
d="M55 -20l80 85q17 -17 36 -30q46 -30 84 -30q42 0 63.5 14.5t21.5 35.5t-30 39.5t-72.5 35.5t-85 38t-72.5 59t-30 88q0 58 47 103q19 17 48 32q-20 11 -35 27q-35 35 -35 83q0 66 54 110.5t151 44.5q82 0 144 -38q23 -14 46 -37l-80 -85q-18 14 -28 20q-35 20 -72 20
q-70 0 -70 -45q0 -19 30 -35t72.5 -32t85 -37t72.5 -58.5t30 -87.5q0 -57 -48 -103q-18 -17 -47 -32q15 -8 35 -28q35 -39 35 -92q0 -68 -58 -114t-162 -46q-85 0 -156 47q-31 21 -54 48zM185 320q0 -40 72 -72q33 -14 73 -23q12 6 22 16q23 23 23 54q0 40 -73 72
q-34 15 -72 23q-13 -6 -23 -16q-22 -22 -22 -54z" />
    <glyph glyph-name="dieresis" unicode="&#xa8;" horiz-adv-x="430" 
d="M30 630q0 30 22.5 52.5t52.5 22.5t52.5 -22.5t22.5 -52.5t-22.5 -52.5t-52.5 -22.5t-52.5 22.5t-22.5 52.5zM250 630q0 30 22.5 52.5t52.5 22.5t52.5 -22.5t22.5 -52.5t-22.5 -52.5t-52.5 -22.5t-52.5 22.5t-22.5 52.5z" />
    <glyph glyph-name="copyright" unicode="&#xa9;" horiz-adv-x="850" 
d="M425 60q117 0 201 85t84 205t-84 205t-201 85t-201 -85t-84 -205t84 -205t201 -85zM50 350q0 154 108.5 262t266.5 108t266.5 -108t108.5 -262t-108.5 -262t-266.5 -108t-266.5 108t-108.5 262zM535 290l60 -60q-17 -22 -39 -38q-53 -37 -121 -37q-86 0 -143 56t-57 139
q0 82 57 138.5t143 56.5q67 0 121 -38q20 -15 39 -37l-60 -60q-7 10 -23 22q-33 23 -72 23q-48 0 -79 -30t-31 -75t31 -75t79 -30q40 0 72 22q16 12 23 23z" />
    <glyph glyph-name="ordfeminine" unicode="&#xaa;" horiz-adv-x="360" 
d="M230 390v40q-7 -11 -23 -23q-32 -22 -72 -22q-48 0 -76.5 26t-28.5 69q0 34 27.5 60.5t74.5 34.5l98 15q0 16 -15 28t-40 12q-30 0 -56 -15q-14 -10 -19 -15l-55 50q15 18 32 30q46 30 103 30q67 0 103.5 -34.5t36.5 -95.5v-190h-90zM230 525v10l-75 -15
q-15 -3 -25 -13.5t-10 -21.5q0 -12 11 -21t29 -9q26 0 48 22t22 48z" />
    <glyph glyph-name="guillemotleft" unicode="&#xab;" horiz-adv-x="550" 
d="M160 60l-125 180l125 180h135l-125 -180l125 -180h-135zM380 60l-125 180l125 180h135l-125 -180l125 -180h-135z" />
    <glyph glyph-name="logicalnot" unicode="&#xac;" horiz-adv-x="485" 
d="M40 290v120h405v-245h-125v125h-280z" />
    <glyph glyph-name="uni00AD" unicode="&#xad;" horiz-adv-x="435" 
d="M50 235v125h335v-125h-335z" />
    <glyph glyph-name="registered" unicode="&#xae;" horiz-adv-x="850" 
d="M285 160v380h165q59 0 97 -36t38 -89q0 -45 -35 -78q-20 -16 -35 -22l85 -155h-105l-65 130h-50v-130h-95zM380 375h65q40 0 40 40t-40 40h-65v-80zM425 60q117 0 201 85t84 205t-84 205t-201 85t-201 -85t-84 -205t84 -205t201 -85zM50 350q0 154 108.5 262t266.5 108
t266.5 -108t108.5 -262t-108.5 -262t-266.5 -108t-266.5 108t-108.5 262z" />
    <glyph glyph-name="overscore" unicode="&#xaf;" horiz-adv-x="380" 
d="M30 615v100h320v-100h-320z" />
    <glyph glyph-name="degree" unicode="&#xb0;" horiz-adv-x="370" 
d="M125 560q0 -26 17 -43t43 -17t43 17t17 43t-17 43t-43 17t-43 -17t-17 -43zM30 560q0 61 44 105.5t111 44.5t111 -44.5t44 -105.5t-44 -105.5t-111 -44.5t-111 44.5t-44 105.5z" />
    <glyph glyph-name="plusminus" unicode="&#xb1;" horiz-adv-x="525" 
d="M35 0v115h455v-115h-455zM35 330v125h170v160h115v-160h170v-125h-170v-160h-115v160h-170z" />
    <glyph glyph-name="uni00B2" unicode="&#xb2;" horiz-adv-x="330" 
d="M160 535h130v-90h-260q0 46 17.5 82t42.5 58t50 38.5t42.5 31.5t17.5 30t-13 25t-32 10q-23 0 -41 -18q-8 -8 -14 -17l-70 30q11 26 28 45q41 45 107 45q59 0 94.5 -32.5t35.5 -82.5q0 -40 -24 -66.5t-60.5 -48.5t-50.5 -40z" />
    <glyph glyph-name="uni00B3" unicode="&#xb3;" horiz-adv-x="325" 
d="M15 495l55 60q9 -11 21 -18q28 -17 59 -17q50 0 50 35t-50 35h-45v75h45q18 0 29 9t11 21t-11 21t-29 9q-26 0 -50 -18q-11 -7 -20 -17l-55 60q13 15 33 27q43 28 97 28q62 0 96 -28t34 -72q0 -33 -25 -58q-11 -11 -25 -17q17 -8 30 -18q30 -26 30 -62q0 -47 -36.5 -78.5
t-98.5 -31.5q-67 0 -110 27q-23 13 -35 28z" />
    <glyph glyph-name="acute" unicode="&#xb4;" horiz-adv-x="280" 
d="M30 555l80 150h140l-110 -150h-110z" />
    <glyph glyph-name="uni00B5" unicode="&#xb5;" horiz-adv-x="605" 
d="M65 -210v700h135v-275q0 -45 24 -70t66 -25q45 0 75 31t30 79v260h135v-335q0 -15 10 -25t25 -10q4 0 14 2l6 3v-125q-10 -4 -16 -5q-18 -5 -39 -5q-58 0 -96 40q-17 18 -24 40h-5q-13 -22 -34 -40q-48 -40 -116 -40q-21 0 -39 5q-6 1 -16 5v-210h-135z" />
    <glyph glyph-name="paragraph" unicode="&#xb6;" horiz-adv-x="615" 
d="M210 -100v440q-75 0 -127.5 52.5t-52.5 127.5t52.5 127.5t127.5 52.5h325v-800h-120v670h-85v-670h-120z" />
    <glyph glyph-name="middot" unicode="&#xb7;" horiz-adv-x="210" 
d="M25 250q0 34 23 57t57 23t57 -23t23 -57t-23 -57t-57 -23t-57 23t-23 57z" />
    <glyph glyph-name="cedilla" unicode="&#xb8;" horiz-adv-x="280" 
d="M30 -190l30 60q11 -9 20 -13q21 -12 50 -12q35 0 35 25t-35 25q-6 0 -18 -3l-7 -2l-30 35l45 95h80l-35 -65q22 -1 42 -13q43 -25 43 -77q0 -43 -29 -69t-81 -26q-46 0 -81 20q-16 9 -29 20z" />
    <glyph glyph-name="uni00B9" unicode="&#xb9;" horiz-adv-x="270" 
d="M115 445v235h-65v75q34 3 54.5 17t25.5 28h80v-355h-95z" />
    <glyph glyph-name="ordmasculine" unicode="&#xba;" horiz-adv-x="380" 
d="M190 470q30 0 50 21t20 54t-20 54t-50 21t-50 -21t-20 -54t20 -54t50 -21zM25 545q0 71 47 118t118 47t118 -47t47 -118t-47 -118t-118 -47t-118 47t-47 118z" />
    <glyph glyph-name="guillemotright" unicode="&#xbb;" horiz-adv-x="550" 
d="M255 60l125 180l-125 180h135l125 -180l-125 -180h-135zM35 60l125 180l-125 180h135l125 -180l-125 -180h-135z" />
    <glyph glyph-name="onequarter" unicode="&#xbc;" horiz-adv-x="725" 
d="M65 0l435 700h125l-435 -700h-125zM95 345v235h-65v75q34 3 54.5 17t25.5 28h80v-355h-95zM400 65v85l155 205h100v-205h40v-85h-40v-65h-95v65h-160zM495 150h65v85z" />
    <glyph glyph-name="onehalf" unicode="&#xbd;" horiz-adv-x="745" 
d="M65 0l435 700h125l-435 -700h-125zM95 345v235h-65v75q34 3 54.5 17t25.5 28h80v-355h-95zM570 90h130v-90h-260q0 46 17.5 82t42.5 58t50 38.5t42.5 31.5t17.5 30t-13 25t-32 10q-23 0 -41 -18q-8 -8 -14 -17l-70 30q11 26 28 45q41 45 107 45q59 0 94.5 -32.5
t35.5 -82.5q0 -40 -24 -66.5t-60.5 -48.5t-50.5 -40z" />
    <glyph glyph-name="threequarters" unicode="&#xbe;" horiz-adv-x="795" 
d="M135 0l435 700h125l-435 -700h-125zM470 65v85l155 205h100v-205h40v-85h-40v-65h-95v65h-160zM565 150h65v85zM30 395l55 60q9 -11 21 -18q28 -17 59 -17q50 0 50 35t-50 35h-45v75h45q18 0 29 9t11 21t-11 21t-29 9q-26 0 -50 -18q-10 -7 -20 -17l-55 60q14 15 33 27
q43 28 97 28q62 0 96 -28t34 -72q0 -33 -25 -58q-11 -11 -25 -17q16 -8 30 -18q30 -26 30 -62q0 -47 -36.5 -78.5t-98.5 -31.5q-67 0 -110 27q-23 13 -35 28z" />
    <glyph glyph-name="questiondown" unicode="&#xbf;" horiz-adv-x="525" 
d="M395 5l130 -60q-21 -49 -53 -83q-82 -82 -202 -82q-113 0 -181.5 59.5t-68.5 145.5q0 47 20 83t48.5 58.5t57.5 42.5t49 46.5t20 59.5h130q0 -1 5 -13q5 -13 5 -32q0 -38 -18 -68.5t-43.5 -50.5t-51.5 -37t-44 -37t-18 -42q0 -28 25 -49t65 -21q56 0 96 40q19 19 29 40z
M205 420q0 34 23 57t57 23t57 -23t23 -57t-23 -57t-57 -23t-57 23t-23 57z" />
    <glyph glyph-name="Agrave" unicode="&#xc0;" horiz-adv-x="720" 
d="M275 295h170l-83 230h-4zM5 0l270 700h170l270 -700h-160l-60 160h-270l-60 -160h-160zM300 785l-110 150h140l80 -150h-110z" />
    <glyph glyph-name="Aacute" unicode="&#xc1;" horiz-adv-x="720" 
d="M275 295h170l-83 230h-4zM5 0l270 700h170l270 -700h-160l-60 160h-270l-60 -160h-160zM310 785l80 150h140l-110 -150h-110z" />
    <glyph glyph-name="Acircumflex" unicode="&#xc2;" horiz-adv-x="720" 
d="M275 295h170l-83 230h-4zM5 0l270 700h170l270 -700h-160l-60 160h-270l-60 -160h-160zM180 785l120 150h120l120 -150h-120l-60 80l-60 -80h-120z" />
    <glyph glyph-name="Atilde" unicode="&#xc3;" horiz-adv-x="720" 
d="M275 295h170l-83 230h-4zM5 0l270 700h170l270 -700h-160l-60 160h-270l-60 -160h-160zM265 780h-85q0 76 28.5 113t78.5 37q37 0 74 -27.5t54 -27.5q35 0 35 55h85q0 -75 -28.5 -112.5t-76.5 -37.5q-38 0 -74.5 25t-55.5 25q-35 0 -35 -50z" />
    <glyph glyph-name="Adieresis" unicode="&#xc4;" horiz-adv-x="720" 
d="M275 295h170l-83 230h-4zM5 0l270 700h170l270 -700h-160l-60 160h-270l-60 -160h-160zM175 855q0 30 22.5 52.5t52.5 22.5t52.5 -22.5t22.5 -52.5t-22.5 -52.5t-52.5 -22.5t-52.5 22.5t-22.5 52.5zM395 855q0 30 22.5 52.5t52.5 22.5t52.5 -22.5t22.5 -52.5t-22.5 -52.5
t-52.5 -22.5t-52.5 22.5t-22.5 52.5z" />
    <glyph glyph-name="Aring" unicode="&#xc5;" horiz-adv-x="720" 
d="M275 295h170l-83 230h-4zM5 0l270 700h170l270 -700h-160l-60 160h-270l-60 -160h-160zM320 870q0 -18 12 -29t28 -11t28 11t12 29t-12 29t-28 11t-28 -11t-12 -29zM245 870q0 45 33.5 77.5t81.5 32.5t81.5 -32.5t33.5 -77.5q0 -46 -33.5 -78t-81.5 -32t-81.5 32
t-33.5 78z" />
    <glyph glyph-name="AE" unicode="&#xc6;" horiz-adv-x="995" 
d="M-40 0l390 700h590v-140h-330v-135h250v-135h-250v-150h340v-140h-490v170h-240l-95 -170h-165zM295 305h165v255h-25z" />
    <glyph glyph-name="Ccedilla" unicode="&#xc7;" horiz-adv-x="745" 
d="M295 -190l30 60q11 -9 20 -13q21 -12 50 -12q35 0 35 25t-35 25q-6 0 -18 -3l-7 -2l-30 35l30 65q-134 14 -229.5 117t-95.5 243q0 151 109.5 258t270.5 107q123 0 221 -70q42 -30 74 -70l-100 -100q-20 26 -51 50q-66 50 -144 50q-94 0 -159.5 -65.5t-65.5 -159.5
t65.5 -159.5t159.5 -65.5q79 0 149 50q32 24 51 50l100 -100q-29 -35 -71 -66q-91 -68 -209 -74l-15 -30q22 -1 42 -13q43 -25 43 -77q0 -43 -29 -69t-81 -26q-46 0 -81 20q-16 9 -29 20z" />
    <glyph glyph-name="Egrave" unicode="&#xc8;" horiz-adv-x="665" 
d="M90 0v700h520v-140h-370v-135h290v-135h-290v-150h380v-140h-530zM305 785l-110 150h140l80 -150h-110z" />
    <glyph glyph-name="Eacute" unicode="&#xc9;" horiz-adv-x="665" 
d="M90 0v700h520v-140h-370v-135h290v-135h-290v-150h380v-140h-530zM295 785l80 150h140l-110 -150h-110z" />
    <glyph glyph-name="Ecircumflex" unicode="&#xca;" horiz-adv-x="665" 
d="M90 0v700h520v-140h-370v-135h290v-135h-290v-150h380v-140h-530zM175 785l120 150h120l120 -150h-120l-60 80l-60 -80h-120z" />
    <glyph glyph-name="Edieresis" unicode="&#xcb;" horiz-adv-x="665" 
d="M90 0v700h520v-140h-370v-135h290v-135h-290v-150h380v-140h-530zM170 860q0 30 22.5 52.5t52.5 22.5t52.5 -22.5t22.5 -52.5t-22.5 -52.5t-52.5 -22.5t-52.5 22.5t-22.5 52.5zM390 860q0 30 22.5 52.5t52.5 22.5t52.5 -22.5t22.5 -52.5t-22.5 -52.5t-52.5 -22.5
t-52.5 22.5t-22.5 52.5z" />
    <glyph glyph-name="Igrave" unicode="&#xcc;" horiz-adv-x="330" 
d="M90 0v700h150v-700h-150zM110 785l-110 150h140l80 -150h-110z" />
    <glyph glyph-name="Iacute" unicode="&#xcd;" horiz-adv-x="330" 
d="M90 0v700h150v-700h-150zM110 785l80 150h140l-110 -150h-110z" />
    <glyph glyph-name="Icircumflex" unicode="&#xce;" horiz-adv-x="330" 
d="M90 0v700h150v-700h-150zM-15 785l120 150h120l120 -150h-120l-60 80l-60 -80h-120z" />
    <glyph glyph-name="Idieresis" unicode="&#xcf;" horiz-adv-x="330" 
d="M90 0v700h150v-700h-150zM-20 855q0 30 22.5 52.5t52.5 22.5t52.5 -22.5t22.5 -52.5t-22.5 -52.5t-52.5 -22.5t-52.5 22.5t-22.5 52.5zM200 855q0 30 22.5 52.5t52.5 22.5t52.5 -22.5t22.5 -52.5t-22.5 -52.5t-52.5 -22.5t-52.5 22.5t-22.5 52.5z" />
    <glyph glyph-name="Eth" unicode="&#xd0;" horiz-adv-x="770" 
d="M100 0v290h-85v120h85v290h255q160 0 265 -101t105 -249t-105 -249t-265 -101h-255zM250 140h105q93 0 154 60t61 150t-61 150t-154 60h-105v-150h135v-120h-135v-150z" />
    <glyph glyph-name="Ntilde" unicode="&#xd1;" horiz-adv-x="805" 
d="M90 0v700h135l340 -435v435h150v-700h-135l-340 435v-435h-150zM310 780h-85q0 76 28.5 113t78.5 37q29 0 52.5 -14t41.5 -27.5t34 -13.5q35 0 35 55h85q0 -75 -28.5 -112.5t-76.5 -37.5q-38 0 -74.5 25t-55.5 25q-35 0 -35 -50z" />
    <glyph glyph-name="Ograve" unicode="&#xd2;" horiz-adv-x="850" 
d="M200 350q0 -94 65.5 -159.5t159.5 -65.5t159.5 65.5t65.5 159.5t-65.5 159.5t-159.5 65.5t-159.5 -65.5t-65.5 -159.5zM45 350q0 151 109.5 258t270.5 107t270.5 -107t109.5 -258t-109.5 -258t-270.5 -107t-270.5 107t-109.5 258zM370 785l-110 150h140l80 -150h-110z
" />
    <glyph glyph-name="Oacute" unicode="&#xd3;" horiz-adv-x="850" 
d="M200 350q0 -94 65.5 -159.5t159.5 -65.5t159.5 65.5t65.5 159.5t-65.5 159.5t-159.5 65.5t-159.5 -65.5t-65.5 -159.5zM45 350q0 151 109.5 258t270.5 107t270.5 -107t109.5 -258t-109.5 -258t-270.5 -107t-270.5 107t-109.5 258zM375 785l80 150h140l-110 -150h-110z
" />
    <glyph glyph-name="Ocircumflex" unicode="&#xd4;" horiz-adv-x="850" 
d="M200 350q0 -94 65.5 -159.5t159.5 -65.5t159.5 65.5t65.5 159.5t-65.5 159.5t-159.5 65.5t-159.5 -65.5t-65.5 -159.5zM45 350q0 151 109.5 258t270.5 107t270.5 -107t109.5 -258t-109.5 -258t-270.5 -107t-270.5 107t-109.5 258zM245 785l120 150h120l120 -150h-120
l-60 80l-60 -80h-120z" />
    <glyph glyph-name="Otilde" unicode="&#xd5;" horiz-adv-x="850" 
d="M200 350q0 -94 65.5 -159.5t159.5 -65.5t159.5 65.5t65.5 159.5t-65.5 159.5t-159.5 65.5t-159.5 -65.5t-65.5 -159.5zM45 350q0 151 109.5 258t270.5 107t270.5 -107t109.5 -258t-109.5 -258t-270.5 -107t-270.5 107t-109.5 258zM335 780h-85q0 76 28.5 113t78.5 37
q37 0 74 -27.5t54 -27.5q35 0 35 55h85q0 -75 -28.5 -112.5t-76.5 -37.5q-38 0 -74.5 25t-55.5 25q-35 0 -35 -50z" />
    <glyph glyph-name="Odieresis" unicode="&#xd6;" horiz-adv-x="850" 
d="M200 350q0 -94 65.5 -159.5t159.5 -65.5t159.5 65.5t65.5 159.5t-65.5 159.5t-159.5 65.5t-159.5 -65.5t-65.5 -159.5zM45 350q0 151 109.5 258t270.5 107t270.5 -107t109.5 -258t-109.5 -258t-270.5 -107t-270.5 107t-109.5 258zM240 855q0 30 22.5 52.5t52.5 22.5
t52.5 -22.5t22.5 -52.5t-22.5 -52.5t-52.5 -22.5t-52.5 22.5t-22.5 52.5zM460 855q0 30 22.5 52.5t52.5 22.5t52.5 -22.5t22.5 -52.5t-22.5 -52.5t-52.5 -22.5t-52.5 22.5t-22.5 52.5z" />
    <glyph glyph-name="multiply" unicode="&#xd7;" horiz-adv-x="520" 
d="M50 180l130 130l-130 130l80 80l130 -130l130 130l80 -80l-130 -130l130 -130l-80 -80l-130 130l-130 -130z" />
    <glyph glyph-name="Oslash" unicode="&#xd8;" horiz-adv-x="850" 
d="M230 235l315 305q-22 12 -34 17q-42 18 -86 18q-94 0 -159.5 -65.5t-65.5 -159.5q0 -50 15 -86q6 -17 15 -29zM620 465l-315 -305q17 -11 34 -18q40 -17 86 -17q94 0 159.5 65.5t65.5 159.5q0 45 -15 86q-8 18 -15 29zM35 50l85 85q-22 26 -38 59q-37 72 -37 156
q0 151 109.5 258t270.5 107q85 0 165 -35q38 -18 60 -35l85 85l80 -80l-85 -85q22 -28 37 -59q38 -78 38 -156q0 -151 -109.5 -258t-270.5 -107q-93 0 -165 35q-33 14 -60 35l-85 -85z" />
    <glyph glyph-name="Ugrave" unicode="&#xd9;" horiz-adv-x="780" 
d="M85 290v410h150v-410q0 -74 43 -119.5t112 -45.5t112 45.5t43 119.5v410h150v-410q0 -135 -85 -220t-220 -85t-220 85t-85 220zM330 785l-110 150h140l80 -150h-110z" />
    <glyph glyph-name="Uacute" unicode="&#xda;" horiz-adv-x="780" 
d="M85 290v410h150v-410q0 -74 43 -119.5t112 -45.5t112 45.5t43 119.5v410h150v-410q0 -135 -85 -220t-220 -85t-220 85t-85 220zM340 785l80 150h140l-110 -150h-110z" />
    <glyph glyph-name="Ucircumflex" unicode="&#xdb;" horiz-adv-x="780" 
d="M85 290v410h150v-410q0 -74 43 -119.5t112 -45.5t112 45.5t43 119.5v410h150v-410q0 -135 -85 -220t-220 -85t-220 85t-85 220zM210 785l120 150h120l120 -150h-120l-60 80l-60 -80h-120z" />
    <glyph glyph-name="Udieresis" unicode="&#xdc;" horiz-adv-x="780" 
d="M85 290v410h150v-410q0 -74 43 -119.5t112 -45.5t112 45.5t43 119.5v410h150v-410q0 -135 -85 -220t-220 -85t-220 85t-85 220zM205 855q0 30 22.5 52.5t52.5 22.5t52.5 -22.5t22.5 -52.5t-22.5 -52.5t-52.5 -22.5t-52.5 22.5t-22.5 52.5zM425 855q0 30 22.5 52.5
t52.5 22.5t52.5 -22.5t22.5 -52.5t-22.5 -52.5t-52.5 -22.5t-52.5 22.5t-22.5 52.5z" />
    <glyph glyph-name="Yacute" unicode="&#xdd;" horiz-adv-x="670" 
d="M260 0v250l-265 450h175l163 -300h4l163 300h175l-265 -450v-250h-150zM280 785l80 150h140l-110 -150h-110z" />
    <glyph glyph-name="Thorn" unicode="&#xde;" horiz-adv-x="740" 
d="M90 0v700h150v-115h215q111 0 178 -63t67 -162t-67 -162t-178 -63h-215v-135h-150zM240 275h210q44 0 69.5 23t25.5 62t-25.5 62t-69.5 23h-210v-170z" />
    <glyph glyph-name="germandbls" unicode="&#xdf;" horiz-adv-x="600" 
d="M65 0v485q0 98 64.5 161.5t165.5 63.5q99 0 162 -56t63 -134q0 -57 -40 -103q-17 -18 -40 -32q35 -15 62 -39q63 -57 63 -136q0 -89 -66 -149.5t-169 -60.5h-50v130h50q41 0 68 25t27 60t-27 60t-68 25h-50v130h15q37 0 61 22t24 53t-24 53t-61 22q-42 0 -68.5 -26.5
t-26.5 -68.5v-485h-135z" />
    <glyph glyph-name="agrave" unicode="&#xe0;" horiz-adv-x="540" 
d="M340 0v60h-5q-18 -22 -37 -35q-44 -35 -108 -35q-67 0 -108.5 39.5t-41.5 100.5q0 60 38.5 102.5t106.5 54.5l155 28q-4 28 -26 46.5t-59 18.5q-46 0 -81 -28q-18 -13 -29 -27l-80 80q22 27 51 47q70 48 149 48q92 0 151 -56t59 -139v-305h-135zM340 210v10l-110 -20
q-55 -11 -55 -50q0 -50 60 -50q45 0 75 31t30 79zM230 555l-110 150h140l80 -150h-110z" />
    <glyph glyph-name="aacute" unicode="&#xe1;" horiz-adv-x="540" 
d="M340 0v60h-5q-18 -22 -37 -35q-44 -35 -108 -35q-67 0 -108.5 39.5t-41.5 100.5q0 60 38.5 102.5t106.5 54.5l155 28q-4 28 -26 46.5t-59 18.5q-46 0 -81 -28q-18 -13 -29 -27l-80 80q22 27 51 47q70 48 149 48q92 0 151 -56t59 -139v-305h-135zM340 210v10l-110 -20
q-55 -11 -55 -50q0 -50 60 -50q45 0 75 31t30 79zM220 555l80 150h140l-110 -150h-110z" />
    <glyph glyph-name="acircumflex" unicode="&#xe2;" horiz-adv-x="540" 
d="M340 0v60h-5q-18 -22 -37 -35q-44 -35 -108 -35q-67 0 -108.5 39.5t-41.5 100.5q0 60 38.5 102.5t106.5 54.5l155 28q-4 28 -26 46.5t-59 18.5q-46 0 -81 -28q-18 -13 -29 -27l-80 80q22 27 51 47q70 48 149 48q92 0 151 -56t59 -139v-305h-135zM340 210v10l-110 -20
q-55 -11 -55 -50q0 -50 60 -50q45 0 75 31t30 79zM100 555l120 150h120l120 -150h-120l-60 80l-60 -80h-120z" />
    <glyph glyph-name="atilde" unicode="&#xe3;" horiz-adv-x="540" 
d="M340 0v60h-5q-18 -22 -37 -35q-44 -35 -108 -35q-67 0 -108.5 39.5t-41.5 100.5q0 60 38.5 102.5t106.5 54.5l155 28q-4 28 -26 46.5t-59 18.5q-46 0 -81 -28q-18 -13 -29 -27l-80 80q22 27 51 47q70 48 149 48q92 0 151 -56t59 -139v-305h-135zM340 210v10l-110 -20
q-55 -11 -55 -50q0 -50 60 -50q45 0 75 31t30 79zM190 560h-85q0 76 28.5 113t78.5 37q29 0 52.5 -14t41.5 -27.5t34 -13.5q35 0 35 55h85q0 -75 -28.5 -112.5t-76.5 -37.5q-38 0 -74.5 25t-55.5 25q-35 0 -35 -50z" />
    <glyph glyph-name="adieresis" unicode="&#xe4;" horiz-adv-x="540" 
d="M340 0v60h-5q-18 -22 -37 -35q-44 -35 -108 -35q-67 0 -108.5 39.5t-41.5 100.5q0 60 38.5 102.5t106.5 54.5l155 28q-4 28 -26 46.5t-59 18.5q-46 0 -81 -28q-18 -13 -29 -27l-80 80q22 27 51 47q70 48 149 48q92 0 151 -56t59 -139v-305h-135zM340 210v10l-110 -20
q-55 -11 -55 -50q0 -50 60 -50q45 0 75 31t30 79zM95 630q0 30 22.5 52.5t52.5 22.5t52.5 -22.5t22.5 -52.5t-22.5 -52.5t-52.5 -22.5t-52.5 22.5t-22.5 52.5zM315 630q0 30 22.5 52.5t52.5 22.5t52.5 -22.5t22.5 -52.5t-22.5 -52.5t-52.5 -22.5t-52.5 22.5t-22.5 52.5z" />
    <glyph glyph-name="aring" unicode="&#xe5;" horiz-adv-x="540" 
d="M340 0v60h-5q-18 -22 -37 -35q-44 -35 -108 -35q-67 0 -108.5 39.5t-41.5 100.5q0 60 38.5 102.5t106.5 54.5l155 28q-4 28 -26 46.5t-59 18.5q-46 0 -81 -28q-18 -13 -29 -27l-80 80q22 27 51 47q70 48 149 48q92 0 151 -56t59 -139v-305h-135zM340 210v10l-110 -20
q-55 -11 -55 -50q0 -50 60 -50q45 0 75 31t30 79zM240 640q0 -18 12 -29t28 -11t28 11t12 29t-12 29t-28 11t-28 -11t-12 -29zM165 640q0 45 33.5 77.5t81.5 32.5t81.5 -32.5t33.5 -77.5q0 -46 -33.5 -78t-81.5 -32t-81.5 32t-33.5 78z" />
    <glyph glyph-name="ae" unicode="&#xe6;" horiz-adv-x="865" 
d="M145 325l-80 80q21 26 50 47q64 48 140 48q65 0 119 -40q26 -19 41 -40q17 19 46 40q62 40 129 40q99 0 169.5 -70.5t70.5 -174.5q0 -14 -3 -41l-2 -14h-345q26 -90 125 -90q54 0 92 27q19 13 33 28l70 -95q-21 -21 -54 -40q-70 -40 -151 -40q-78 0 -139 47
q-26 20 -46 48q-20 -28 -46 -48q-61 -47 -144 -47q-84 0 -132 41.5t-48 103.5q0 70 53 115t147 45h100q-7 85 -85 85q-46 0 -81 -28q-18 -13 -29 -27zM480 295h210q-12 36 -40.5 60.5t-64.5 24.5q-35 0 -64 -25t-41 -60zM340 205h-100q-29 0 -47 -15.5t-18 -39.5
q0 -50 60 -50q45 0 75 30t30 75z" />
    <glyph glyph-name="ccedilla" unicode="&#xe7;" horiz-adv-x="520" 
d="M165 -190l30 60q11 -9 20 -13q21 -12 50 -12q35 0 35 25t-35 25q-6 0 -18 -3l-7 -2l-30 35l35 70q-85 15 -147.5 85.5t-62.5 164.5q0 105 76 180t184 75q85 0 155 -50q32 -24 50 -50l-85 -85q-13 16 -32 30q-42 30 -88 30q-53 0 -89 -37t-36 -93t36 -93t89 -37
q46 0 88 30q19 14 32 30l85 -85q-18 -24 -45 -46q-62 -48 -135 -54l-20 -35q22 -1 42 -13q43 -25 43 -77q0 -43 -29 -69t-81 -26q-46 0 -81 20q-16 9 -29 20z" />
    <glyph glyph-name="egrave" unicode="&#xe8;" horiz-adv-x="570" 
d="M435 165l70 -95q-21 -21 -54 -40q-72 -40 -156 -40q-108 0 -184 75t-76 180t75 180t180 75q101 0 173 -72t72 -173q0 -10 -3 -43l-2 -17h-355q12 -37 44.5 -61t85.5 -24q56 0 97 27q20 13 33 28zM175 295h220q-12 36 -41 60.5t-69 24.5t-69 -24.5t-41 -60.5zM235 555
l-110 150h140l80 -150h-110z" />
    <glyph glyph-name="eacute" unicode="&#xe9;" horiz-adv-x="570" 
d="M435 165l70 -95q-21 -21 -54 -40q-72 -40 -156 -40q-108 0 -184 75t-76 180t75 180t180 75q101 0 173 -72t72 -173q0 -10 -3 -43l-2 -17h-355q12 -37 44.5 -61t85.5 -24q56 0 97 27q20 13 33 28zM175 295h220q-12 36 -41 60.5t-69 24.5t-69 -24.5t-41 -60.5zM225 555
l80 150h140l-110 -150h-110z" />
    <glyph glyph-name="ecircumflex" unicode="&#xea;" horiz-adv-x="570" 
d="M435 165l70 -95q-21 -21 -54 -40q-72 -40 -156 -40q-108 0 -184 75t-76 180t75 180t180 75q101 0 173 -72t72 -173q0 -10 -3 -43l-2 -17h-355q12 -37 44.5 -61t85.5 -24q56 0 97 27q20 13 33 28zM175 295h220q-12 36 -41 60.5t-69 24.5t-69 -24.5t-41 -60.5zM105 555
l120 150h120l120 -150h-120l-60 80l-60 -80h-120z" />
    <glyph glyph-name="edieresis" unicode="&#xeb;" horiz-adv-x="570" 
d="M435 165l70 -95q-21 -21 -54 -40q-72 -40 -156 -40q-108 0 -184 75t-76 180t75 180t180 75q101 0 173 -72t72 -173q0 -10 -3 -43l-2 -17h-355q12 -37 44.5 -61t85.5 -24q56 0 97 27q20 13 33 28zM175 295h220q-12 36 -41 60.5t-69 24.5t-69 -24.5t-41 -60.5zM100 630
q0 30 22.5 52.5t52.5 22.5t52.5 -22.5t22.5 -52.5t-22.5 -52.5t-52.5 -22.5t-52.5 22.5t-22.5 52.5zM320 630q0 30 22.5 52.5t52.5 22.5t52.5 -22.5t22.5 -52.5t-22.5 -52.5t-52.5 -22.5t-52.5 22.5t-22.5 52.5z" />
    <glyph glyph-name="igrave" unicode="&#xec;" horiz-adv-x="265" 
d="M65 0v490h135v-490h-135zM75 555l-110 150h140l80 -150h-110z" />
    <glyph glyph-name="iacute" unicode="&#xed;" horiz-adv-x="265" 
d="M65 0v490h135v-490h-135zM80 555l80 150h140l-110 -150h-110z" />
    <glyph glyph-name="icircumflex" unicode="&#xee;" horiz-adv-x="265" 
d="M65 0v490h135v-490h-135zM-50 555l120 150h120l120 -150h-120l-60 80l-60 -80h-120z" />
    <glyph glyph-name="idieresis" unicode="&#xef;" horiz-adv-x="265" 
d="M65 0v490h135v-490h-135zM-53 630q0 30 22.5 52.5t52.5 22.5t52.5 -22.5t22.5 -52.5t-22.5 -52.5t-52.5 -22.5t-52.5 22.5t-22.5 52.5zM167 630q0 30 22.5 52.5t52.5 22.5t52.5 -22.5t22.5 -52.5t-22.5 -52.5t-52.5 -22.5t-52.5 22.5t-22.5 52.5z" />
    <glyph glyph-name="eth" unicode="&#xf0;" horiz-adv-x="600" 
d="M180 530l-60 65l105 50q-18 16 -29 24q-28 22 -71 46l110 50q44 -29 68 -48q9 -7 27 -22l105 50l60 -65l-105 -50q45 -42 82 -99q83 -130 83 -275q0 -113 -75.5 -189.5t-184.5 -76.5q-111 0 -185.5 70t-74.5 170q0 99 73 169.5t177 70.5q37 0 72 -13q14 -4 28 -12h5
q-30 58 -66 96q-20 21 -39 39zM170 230q0 -50 34.5 -82.5t90.5 -32.5t90.5 32.5t34.5 82.5t-34.5 82.5t-90.5 32.5t-90.5 -32.5t-34.5 -82.5z" />
    <glyph glyph-name="ntilde" unicode="&#xf1;" horiz-adv-x="595" 
d="M65 0v490h135v-70h5q16 22 37 40q48 40 108 40q77 0 128.5 -56.5t51.5 -148.5v-295h-135v275q0 45 -24 70t-66 25q-45 0 -75 -31t-30 -79v-260h-135zM210 550h-85q0 76 28.5 113t78.5 37q29 0 52.5 -14t41.5 -27.5t34 -13.5q35 0 35 55h85q0 -75 -28.5 -112.5
t-76.5 -37.5q-38 0 -74.5 25t-55.5 25q-35 0 -35 -50z" />
    <glyph glyph-name="ograve" unicode="&#xf2;" horiz-adv-x="590" 
d="M295 115q53 0 89 37t36 93t-36 93t-89 37t-89 -37t-36 -93t36 -93t89 -37zM35 245q0 105 76 180t184 75t184 -75t76 -180t-76 -180t-184 -75t-184 75t-76 180zM240 555l-110 150h140l80 -150h-110z" />
    <glyph glyph-name="oacute" unicode="&#xf3;" horiz-adv-x="590" 
d="M295 115q53 0 89 37t36 93t-36 93t-89 37t-89 -37t-36 -93t36 -93t89 -37zM35 245q0 105 76 180t184 75t184 -75t76 -180t-76 -180t-184 -75t-184 75t-76 180zM240 555l80 150h140l-110 -150h-110z" />
    <glyph glyph-name="ocircumflex" unicode="&#xf4;" horiz-adv-x="590" 
d="M295 115q53 0 89 37t36 93t-36 93t-89 37t-89 -37t-36 -93t36 -93t89 -37zM35 245q0 105 76 180t184 75t184 -75t76 -180t-76 -180t-184 -75t-184 75t-76 180zM115 555l120 150h120l120 -150h-120l-60 80l-60 -80h-120z" />
    <glyph glyph-name="otilde" unicode="&#xf5;" horiz-adv-x="590" 
d="M295 115q53 0 89 37t36 93t-36 93t-89 37t-89 -37t-36 -93t36 -93t89 -37zM35 245q0 105 76 180t184 75t184 -75t76 -180t-76 -180t-184 -75t-184 75t-76 180zM205 550h-85q0 76 28.5 113t78.5 37q37 0 74 -27.5t54 -27.5q35 0 35 55h85q0 -75 -28.5 -112.5t-76.5 -37.5
q-38 0 -74.5 25t-55.5 25q-35 0 -35 -50z" />
    <glyph glyph-name="odieresis" unicode="&#xf6;" horiz-adv-x="590" 
d="M295 115q53 0 89 37t36 93t-36 93t-89 37t-89 -37t-36 -93t36 -93t89 -37zM35 245q0 105 76 180t184 75t184 -75t76 -180t-76 -180t-184 -75t-184 75t-76 180zM110 630q0 30 22.5 52.5t52.5 22.5t52.5 -22.5t22.5 -52.5t-22.5 -52.5t-52.5 -22.5t-52.5 22.5t-22.5 52.5z
M330 630q0 30 22.5 52.5t52.5 22.5t52.5 -22.5t22.5 -52.5t-22.5 -52.5t-52.5 -22.5t-52.5 22.5t-22.5 52.5z" />
    <glyph glyph-name="divide" unicode="&#xf7;" horiz-adv-x="520" 
d="M35 235v115h450v-115h-450zM180 480q0 30 23.5 52.5t56.5 22.5t56.5 -22.5t23.5 -52.5t-23.5 -52.5t-56.5 -22.5t-56.5 22.5t-23.5 52.5zM180 105q0 30 23.5 52.5t56.5 22.5t56.5 -22.5t23.5 -52.5t-23.5 -52.5t-56.5 -22.5t-56.5 22.5t-23.5 52.5z" />
    <glyph glyph-name="oslash" unicode="&#xf8;" horiz-adv-x="600" 
d="M415 295l-165 -170q7 -4 14 -5q17 -5 36 -5q53 0 89 37t36 93q0 21 -5 36zM185 195l165 170l-14 5q-15 5 -36 5q-53 0 -89 -37t-36 -93q0 -19 5 -36q1 -7 5 -14zM35 35l55 60q-16 21 -25 41q-25 52 -25 109q0 105 76 180t184 75q59 0 101 -20q16 -7 34 -20l60 65l70 -70
l-55 -60q16 -21 25 -41q25 -56 25 -109q0 -105 -76 -180t-184 -75q-59 0 -101 20q-20 9 -34 20l-60 -65z" />
    <glyph glyph-name="ugrave" unicode="&#xf9;" horiz-adv-x="595" 
d="M65 195v295h135v-275q0 -45 24 -70t66 -25q45 0 75 31t30 79v260h135v-490h-135v70h-5q-16 -22 -37 -40q-48 -40 -108 -40q-77 0 -128.5 56.5t-51.5 148.5zM245 555l-110 150h140l80 -150h-110z" />
    <glyph glyph-name="uacute" unicode="&#xfa;" horiz-adv-x="595" 
d="M65 195v295h135v-275q0 -45 24 -70t66 -25q45 0 75 31t30 79v260h135v-490h-135v70h-5q-16 -22 -37 -40q-48 -40 -108 -40q-77 0 -128.5 56.5t-51.5 148.5zM240 555l80 150h140l-110 -150h-110z" />
    <glyph glyph-name="ucircumflex" unicode="&#xfb;" horiz-adv-x="595" 
d="M65 195v295h135v-275q0 -45 24 -70t66 -25q45 0 75 31t30 79v260h135v-490h-135v70h-5q-16 -22 -37 -40q-48 -40 -108 -40q-77 0 -128.5 56.5t-51.5 148.5zM115 555l120 150h120l120 -150h-120l-60 80l-60 -80h-120z" />
    <glyph glyph-name="udieresis" unicode="&#xfc;" horiz-adv-x="595" 
d="M65 195v295h135v-275q0 -45 24 -70t66 -25q45 0 75 31t30 79v260h135v-490h-135v70h-5q-16 -22 -37 -40q-48 -40 -108 -40q-77 0 -128.5 56.5t-51.5 148.5zM110 630q0 30 22.5 52.5t52.5 22.5t52.5 -22.5t22.5 -52.5t-22.5 -52.5t-52.5 -22.5t-52.5 22.5t-22.5 52.5z
M330 630q0 30 22.5 52.5t52.5 22.5t52.5 -22.5t22.5 -52.5t-22.5 -52.5t-52.5 -22.5t-52.5 22.5t-22.5 52.5z" />
    <glyph glyph-name="yacute" unicode="&#xfd;" horiz-adv-x="510" 
d="M35 -195v125q10 -4 16 -5q18 -5 39 -5q59 0 85 60l10 25l-190 485h145l115 -325h5l110 325h145l-200 -530q-32 -85 -77.5 -127.5t-112.5 -42.5q-36 0 -64 7q-4 1 -13 3.5t-13 4.5zM195 555l80 150h140l-110 -150h-110z" />
    <glyph glyph-name="thorn" unicode="&#xfe;" horiz-adv-x="620" 
d="M70 -210v910h135v-280h5q14 21 38 40q54 40 117 40q89 0 154.5 -73t65.5 -182q0 -110 -65.5 -182.5t-154.5 -72.5q-63 0 -117 40q-24 19 -38 40h-5v-280h-135zM325 115q53 0 89 37t36 93t-36 93t-89 37t-89 -37t-36 -93t36 -93t89 -37z" />
    <glyph glyph-name="ydieresis" unicode="&#xff;" horiz-adv-x="510" 
d="M35 -195v125q10 -4 16 -5q18 -5 39 -5q59 0 85 60l10 25l-190 485h145l115 -325h5l110 325h145l-200 -530q-32 -85 -77.5 -127.5t-112.5 -42.5q-36 0 -64 7q-4 1 -13 3.5t-13 4.5zM70 630q0 30 22.5 52.5t52.5 22.5t52.5 -22.5t22.5 -52.5t-22.5 -52.5t-52.5 -22.5
t-52.5 22.5t-22.5 52.5zM290 630q0 30 22.5 52.5t52.5 22.5t52.5 -22.5t22.5 -52.5t-22.5 -52.5t-52.5 -22.5t-52.5 22.5t-22.5 52.5z" />
    <glyph glyph-name="Amacron" unicode="&#x100;" horiz-adv-x="720" 
d="M275 295h170l-83 230h-4zM5 0l270 700h170l270 -700h-160l-60 160h-270l-60 -160h-160zM200 810v100h320v-100h-320z" />
    <glyph glyph-name="amacron" unicode="&#x101;" horiz-adv-x="540" 
d="M340 0v60h-5q-18 -22 -37 -35q-44 -35 -108 -35q-67 0 -108.5 39.5t-41.5 100.5q0 60 38.5 102.5t106.5 54.5l155 28q-4 28 -26 46.5t-59 18.5q-46 0 -81 -28q-18 -13 -29 -27l-80 80q22 27 51 47q70 48 149 48q92 0 151 -56t59 -139v-305h-135zM340 210v10l-110 -20
q-55 -11 -55 -50q0 -50 60 -50q45 0 75 31t30 79zM120 590v100h320v-100h-320z" />
    <glyph glyph-name="Abreve" unicode="&#x102;" horiz-adv-x="720" 
d="M275 295h170l-83 230h-4zM5 0l270 700h170l270 -700h-160l-60 160h-270l-60 -160h-160zM200 935h100q0 -26 17 -43t43 -17t43 17t17 43h100q0 -65 -44.5 -107.5t-115.5 -42.5t-115.5 42.5t-44.5 107.5z" />
    <glyph glyph-name="abreve" unicode="&#x103;" horiz-adv-x="540" 
d="M340 0v60h-5q-18 -22 -37 -35q-44 -35 -108 -35q-67 0 -108.5 39.5t-41.5 100.5q0 60 38.5 102.5t106.5 54.5l155 28q-4 28 -26 46.5t-59 18.5q-46 0 -81 -28q-18 -13 -29 -27l-80 80q22 27 51 47q70 48 149 48q92 0 151 -56t59 -139v-305h-135zM340 210v10l-110 -20
q-55 -11 -55 -50q0 -50 60 -50q45 0 75 31t30 79zM120 705h100q0 -26 17 -43t43 -17t43 17t17 43h100q0 -65 -44.5 -107.5t-115.5 -42.5t-115.5 42.5t-44.5 107.5z" />
    <glyph glyph-name="Aogonek" unicode="&#x104;" horiz-adv-x="720" 
d="M5 0l270 700h170l270 -700h-90q-11 -17 -18 -34q-17 -38 -17 -71q0 -19 12 -32t33 -13q19 0 36 5q7 1 14 5v-75l-21 -8q-23 -7 -54 -7q-52 0 -83.5 29t-31.5 73q0 45 30 91q16 23 30 37l-60 160h-270l-60 -160h-160zM275 295h170l-83 230h-4z" />
    <glyph glyph-name="aogonek" unicode="&#x105;" horiz-adv-x="540" 
d="M470 -140v-75l-21 -8q-23 -7 -54 -7q-52 0 -83.5 29t-31.5 73q0 45 30 91q16 23 30 37v60h-5q-18 -22 -37 -35q-44 -35 -108 -35q-67 0 -108.5 39.5t-41.5 100.5q0 60 38.5 102.5t106.5 54.5l155 28q-4 28 -26 46.5t-59 18.5q-46 0 -81 -28q-18 -13 -29 -27l-80 80
q22 27 51 47q70 48 149 48q92 0 151 -56t59 -139v-305h-65q-11 -17 -18 -34q-17 -38 -17 -71q0 -19 13 -32t32 -13t36 5q7 1 14 5zM340 210v10l-110 -20q-55 -11 -55 -50q0 -50 60 -50q45 0 75 31t30 79z" />
    <glyph glyph-name="Cacute" unicode="&#x106;" horiz-adv-x="745" 
d="M625 225l100 -100q-31 -38 -75 -70q-102 -70 -225 -70q-161 0 -270.5 107t-109.5 258t109.5 258t270.5 107q123 0 221 -70q42 -30 74 -70l-100 -100q-20 26 -51 50q-66 50 -144 50q-94 0 -159.5 -65.5t-65.5 -159.5t65.5 -159.5t159.5 -65.5q79 0 149 50q32 24 51 50z
M355 785l80 150h140l-110 -150h-110z" />
    <glyph glyph-name="cacute" unicode="&#x107;" horiz-adv-x="520" 
d="M415 175l85 -85q-18 -26 -50 -50q-70 -50 -155 -50q-108 0 -184 75t-76 180t76 180t184 75q85 0 155 -50q32 -24 50 -50l-85 -85q-13 16 -32 30q-42 30 -88 30q-53 0 -89 -37t-36 -93t36 -93t89 -37q46 0 88 30q19 14 32 30zM230 555l80 150h140l-110 -150h-110z" />
    <glyph glyph-name="Ccircumflex" unicode="&#x108;" horiz-adv-x="745" 
d="M625 225l100 -100q-31 -38 -75 -70q-102 -70 -225 -70q-161 0 -270.5 107t-109.5 258t109.5 258t270.5 107q123 0 221 -70q42 -30 74 -70l-100 -100q-20 26 -51 50q-66 50 -144 50q-94 0 -159.5 -65.5t-65.5 -159.5t65.5 -159.5t159.5 -65.5q79 0 149 50q32 24 51 50z
M235 785l120 150h120l120 -150h-120l-60 80l-60 -80h-120z" />
    <glyph glyph-name="ccircumflex" unicode="&#x109;" horiz-adv-x="520" 
d="M415 175l85 -85q-18 -26 -50 -50q-70 -50 -155 -50q-108 0 -184 75t-76 180t76 180t184 75q85 0 155 -50q32 -24 50 -50l-85 -85q-13 16 -32 30q-42 30 -88 30q-53 0 -89 -37t-36 -93t36 -93t89 -37q46 0 88 30q19 14 32 30zM110 555l120 150h120l120 -150h-120l-60 80
l-60 -80h-120z" />
    <glyph glyph-name="Cdotaccent" unicode="&#x10a;" horiz-adv-x="745" 
d="M625 225l100 -100q-31 -38 -75 -70q-102 -70 -225 -70q-161 0 -270.5 107t-109.5 258t109.5 258t270.5 107q123 0 221 -70q42 -30 74 -70l-100 -100q-20 26 -51 50q-66 50 -144 50q-94 0 -159.5 -65.5t-65.5 -159.5t65.5 -159.5t159.5 -65.5q79 0 149 50q32 24 51 50z
M340 860q0 30 22.5 52.5t54.5 22.5t55 -22.5t23 -52.5t-23 -52.5t-55 -22.5t-54.5 22.5t-22.5 52.5z" />
    <glyph glyph-name="cdotaccent" unicode="&#x10b;" horiz-adv-x="520" 
d="M415 175l85 -85q-18 -26 -50 -50q-70 -50 -155 -50q-108 0 -184 75t-76 180t76 180t184 75q85 0 155 -50q32 -24 50 -50l-85 -85q-13 16 -32 30q-42 30 -88 30q-53 0 -89 -37t-36 -93t36 -93t89 -37q46 0 88 30q19 14 32 30zM210 630q0 30 22.5 52.5t54.5 22.5t55 -22.5
t23 -52.5t-23 -52.5t-55 -22.5t-54.5 22.5t-22.5 52.5z" />
    <glyph glyph-name="Ccaron" unicode="&#x10c;" horiz-adv-x="745" 
d="M625 225l100 -100q-31 -38 -75 -70q-102 -70 -225 -70q-161 0 -270.5 107t-109.5 258t109.5 258t270.5 107q123 0 221 -70q42 -30 74 -70l-100 -100q-20 26 -51 50q-66 50 -144 50q-94 0 -159.5 -65.5t-65.5 -159.5t65.5 -159.5t159.5 -65.5q79 0 149 50q32 24 51 50z
M355 785l-120 150h120l60 -80l60 80h120l-120 -150h-120z" />
    <glyph glyph-name="ccaron" unicode="&#x10d;" horiz-adv-x="520" 
d="M415 175l85 -85q-18 -26 -50 -50q-70 -50 -155 -50q-108 0 -184 75t-76 180t76 180t184 75q85 0 155 -50q32 -24 50 -50l-85 -85q-13 16 -32 30q-42 30 -88 30q-53 0 -89 -37t-36 -93t36 -93t89 -37q46 0 88 30q19 14 32 30zM230 555l-120 150h120l60 -80l60 80h120
l-120 -150h-120z" />
    <glyph glyph-name="Dcaron" unicode="&#x10e;" horiz-adv-x="760" 
d="M90 0v700h255q160 0 265 -101t105 -249t-105 -249t-265 -101h-255zM240 140h105q93 0 154 60t61 150t-61 150t-154 60h-105v-420zM315 785l-120 150h120l60 -80l60 80h120l-120 -150h-120z" />
    <glyph glyph-name="dcaron" unicode="&#x10f;" horiz-adv-x="680" 
d="M415 0v70h-5q-14 -21 -38 -40q-54 -40 -117 -40q-89 0 -154.5 72.5t-65.5 182.5q0 109 65.5 182t154.5 73q63 0 117 -40q24 -19 38 -40h5v280h135v-700h-135zM295 115q53 0 89 37t36 93t-36 93t-89 37t-89 -37t-36 -93t36 -93t89 -37zM590 545l45 155h125l-70 -155h-100z
" />
    <glyph glyph-name="Dcroat" unicode="&#x110;" horiz-adv-x="770" 
d="M100 0v290h-85v120h85v290h255q160 0 265 -101t105 -249t-105 -249t-265 -101h-255zM250 140h105q93 0 154 60t61 150t-61 150t-154 60h-105v-150h135v-120h-135v-150z" />
    <glyph glyph-name="dslash" unicode="&#x111;" horiz-adv-x="620" 
d="M405 0v70h-5q-14 -21 -36 -40q-48 -40 -114 -40q-88 0 -151.5 68.5t-63.5 171.5t63.5 171.5t151.5 68.5q66 0 114 -40q22 -19 36 -40h5v130h-115v120h115v60h135v-60h80v-120h-80v-520h-135zM170 230q0 -49 33.5 -82t86.5 -33t86.5 33t33.5 82t-33.5 82t-86.5 33
t-86.5 -33t-33.5 -82z" />
    <glyph glyph-name="Emacron" unicode="&#x112;" horiz-adv-x="665" 
d="M90 0v700h520v-140h-370v-135h290v-135h-290v-150h380v-140h-530zM195 810v100h320v-100h-320z" />
    <glyph glyph-name="emacron" unicode="&#x113;" horiz-adv-x="570" 
d="M435 165l70 -95q-21 -21 -54 -40q-72 -40 -156 -40q-108 0 -184 75t-76 180t75 180t180 75q101 0 173 -72t72 -173q0 -10 -3 -43l-2 -17h-355q12 -37 44.5 -61t85.5 -24q56 0 97 27q20 13 33 28zM175 295h220q-12 36 -41 60.5t-69 24.5t-69 -24.5t-41 -60.5zM125 590v100
h320v-100h-320z" />
    <glyph glyph-name="Ebreve" unicode="&#x114;" horiz-adv-x="665" 
d="M90 0v700h520v-140h-370v-135h290v-135h-290v-150h380v-140h-530zM195 935h100q0 -26 17 -43t43 -17t43 17t17 43h100q0 -65 -44.5 -107.5t-115.5 -42.5t-115.5 42.5t-44.5 107.5z" />
    <glyph glyph-name="ebreve" unicode="&#x115;" horiz-adv-x="570" 
d="M435 165l70 -95q-21 -21 -54 -40q-72 -40 -156 -40q-108 0 -184 75t-76 180t75 180t180 75q101 0 173 -72t72 -173q0 -10 -3 -43l-2 -17h-355q12 -37 44.5 -61t85.5 -24q56 0 97 27q20 13 33 28zM175 295h220q-12 36 -41 60.5t-69 24.5t-69 -24.5t-41 -60.5zM125 705h100
q0 -26 17 -43t43 -17t43 17t17 43h100q0 -65 -44.5 -107.5t-115.5 -42.5t-115.5 42.5t-44.5 107.5z" />
    <glyph glyph-name="Edotaccent" unicode="&#x116;" horiz-adv-x="665" 
d="M90 0v700h520v-140h-370v-135h290v-135h-290v-150h380v-140h-530zM280 860q0 30 22.5 52.5t54.5 22.5t55 -22.5t23 -52.5t-23 -52.5t-55 -22.5t-54.5 22.5t-22.5 52.5z" />
    <glyph glyph-name="edotaccent" unicode="&#x117;" horiz-adv-x="570" 
d="M435 165l70 -95q-21 -21 -54 -40q-72 -40 -156 -40q-108 0 -184 75t-76 180t75 180t180 75q101 0 173 -72t72 -173q0 -10 -3 -43l-2 -17h-355q12 -37 44.5 -61t85.5 -24q56 0 97 27q20 13 33 28zM175 295h220q-12 36 -41 60.5t-69 24.5t-69 -24.5t-41 -60.5zM208 630
q0 30 22.5 52.5t54.5 22.5t55 -22.5t23 -52.5t-23 -52.5t-55 -22.5t-54.5 22.5t-22.5 52.5z" />
    <glyph glyph-name="Eogonek" unicode="&#x118;" horiz-adv-x="665" 
d="M90 0v700h520v-140h-370v-135h290v-135h-290v-150h380v-140q-11 -17 -18 -34q-17 -38 -17 -71q0 -19 12 -32t33 -13q19 0 36 5q7 1 14 5v-75l-21 -8q-23 -7 -54 -7q-52 0 -83.5 29t-31.5 73q0 45 30 91q16 23 30 37h-460z" />
    <glyph glyph-name="eogonek" unicode="&#x119;" horiz-adv-x="570" 
d="M400 -140v-75l-21 -8q-23 -7 -54 -7q-52 0 -83.5 29t-31.5 73q0 46 27 84q12 18 28 34q-96 12 -163 83.5t-67 171.5q0 105 75 180t180 75q101 0 173 -72t72 -173q0 -10 -3 -43l-2 -17h-355q12 -37 44.5 -61t85.5 -24q56 0 97 27q20 13 33 28l70 -95q-16 -18 -44 -34
q-53 -34 -126 -41q-9 -17 -15 -33q-15 -36 -15 -67q0 -19 13 -32t32 -13t36 5q7 1 14 5zM175 295h220q-12 36 -41 60.5t-69 24.5t-69 -24.5t-41 -60.5z" />
    <glyph glyph-name="Ecaron" unicode="&#x11a;" horiz-adv-x="665" 
d="M90 0v700h520v-140h-370v-135h290v-135h-290v-150h380v-140h-530zM295 785l-120 150h120l60 -80l60 80h120l-120 -150h-120z" />
    <glyph glyph-name="ecaron" unicode="&#x11b;" horiz-adv-x="570" 
d="M435 165l70 -95q-21 -21 -54 -40q-72 -40 -156 -40q-108 0 -184 75t-76 180t75 180t180 75q101 0 173 -72t72 -173q0 -10 -3 -43l-2 -17h-355q12 -37 44.5 -61t85.5 -24q56 0 97 27q20 13 33 28zM175 295h220q-12 36 -41 60.5t-69 24.5t-69 -24.5t-41 -60.5zM225 555
l-120 150h120l60 -80l60 80h120l-120 -150h-120z" />
    <glyph glyph-name="Gcircumflex" unicode="&#x11c;" horiz-adv-x="795" 
d="M450 265v120h280v-265q-34 -39 -78 -68q-98 -67 -227 -67q-161 0 -270.5 107t-109.5 258t109.5 258t270.5 107q123 0 221 -70q42 -30 74 -70l-100 -100q-20 26 -51 50q-66 50 -144 50q-94 0 -159.5 -65.5t-65.5 -159.5t65.5 -159.5t159.5 -65.5q66 0 115 27q26 14 40 28
v85h-130zM230 785l120 150h120l120 -150h-120l-60 80l-60 -80h-120z" />
    <glyph glyph-name="gcircumflex" unicode="&#x11d;" horiz-adv-x="600" 
d="M285 135q49 0 82 33.5t33 86.5t-33 86.5t-82 33.5t-82 -33.5t-33 -86.5t33 -86.5t82 -33.5zM55 -110l85 85q14 -16 35 -30q46 -30 95 -30q57 0 93.5 37.5t36.5 97.5v40h-5q-14 -21 -36 -40q-48 -40 -114 -40q-84 0 -147 69.5t-63 175.5t63 175.5t147 69.5q66 0 114 -40
q22 -19 36 -40h5v70h135v-440q0 -113 -74.5 -186.5t-190.5 -73.5q-90 0 -162 50q-34 24 -53 50zM115 555l120 150h120l120 -150h-120l-60 80l-60 -80h-120z" />
    <glyph glyph-name="Gbreve" unicode="&#x11e;" horiz-adv-x="795" 
d="M450 265v120h280v-265q-34 -39 -78 -68q-98 -67 -227 -67q-161 0 -270.5 107t-109.5 258t109.5 258t270.5 107q123 0 221 -70q42 -30 74 -70l-100 -100q-20 26 -51 50q-66 50 -144 50q-94 0 -159.5 -65.5t-65.5 -159.5t65.5 -159.5t159.5 -65.5q66 0 115 27q26 14 40 28
v85h-130zM250 935h100q0 -26 17 -43t43 -17t43 17t17 43h100q0 -65 -44.5 -107.5t-115.5 -42.5t-115.5 42.5t-44.5 107.5z" />
    <glyph glyph-name="gbreve" unicode="&#x11f;" horiz-adv-x="600" 
d="M285 135q49 0 82 33.5t33 86.5t-33 86.5t-82 33.5t-82 -33.5t-33 -86.5t33 -86.5t82 -33.5zM55 -110l85 85q14 -16 35 -30q46 -30 95 -30q57 0 93.5 37.5t36.5 97.5v40h-5q-14 -21 -36 -40q-48 -40 -114 -40q-84 0 -147 69.5t-63 175.5t63 175.5t147 69.5q66 0 114 -40
q22 -19 36 -40h5v70h135v-440q0 -113 -74.5 -186.5t-190.5 -73.5q-90 0 -162 50q-34 24 -53 50zM135 704h100q0 -26 17 -43t43 -17t43 17t17 43h100q0 -65 -44.5 -107.5t-115.5 -42.5t-115.5 42.5t-44.5 107.5z" />
    <glyph glyph-name="Gdotaccent" unicode="&#x120;" horiz-adv-x="795" 
d="M450 265v120h280v-265q-34 -39 -78 -68q-98 -67 -227 -67q-161 0 -270.5 107t-109.5 258t109.5 258t270.5 107q123 0 221 -70q42 -30 74 -70l-100 -100q-20 26 -51 50q-66 50 -144 50q-94 0 -159.5 -65.5t-65.5 -159.5t65.5 -159.5t159.5 -65.5q66 0 115 27q26 14 40 28
v85h-130zM335 860q0 30 22.5 52.5t54.5 22.5t55 -22.5t23 -52.5t-23 -52.5t-55 -22.5t-54.5 22.5t-22.5 52.5z" />
    <glyph glyph-name="gdotaccent" unicode="&#x121;" horiz-adv-x="600" 
d="M285 135q49 0 82 33.5t33 86.5t-33 86.5t-82 33.5t-82 -33.5t-33 -86.5t33 -86.5t82 -33.5zM55 -110l85 85q14 -16 35 -30q46 -30 95 -30q57 0 93.5 37.5t36.5 97.5v40h-5q-14 -21 -36 -40q-48 -40 -114 -40q-84 0 -147 69.5t-63 175.5t63 175.5t147 69.5q66 0 114 -40
q22 -19 36 -40h5v70h135v-440q0 -113 -74.5 -186.5t-190.5 -73.5q-90 0 -162 50q-34 24 -53 50zM218 630q0 30 22.5 52.5t54.5 22.5t55 -22.5t23 -52.5t-23 -52.5t-55 -22.5t-54.5 22.5t-22.5 52.5z" />
    <glyph glyph-name="Gcommaaccent" unicode="&#x122;" horiz-adv-x="795" 
d="M450 265v120h280v-265q-34 -39 -78 -68q-98 -67 -227 -67q-161 0 -270.5 107t-109.5 258t109.5 258t270.5 107q123 0 221 -70q42 -30 74 -70l-100 -100q-20 26 -51 50q-66 50 -144 50q-94 0 -159.5 -65.5t-65.5 -159.5t65.5 -159.5t159.5 -65.5q66 0 115 27q26 14 40 28
v85h-130zM310 -235l45 155h125l-70 -155h-100z" />
    <glyph glyph-name="gcommaaccent" unicode="&#x123;" horiz-adv-x="600" 
d="M230 555l70 150h100l-45 -150h-125zM285 135q49 0 82 33.5t33 86.5t-33 86.5t-82 33.5t-82 -33.5t-33 -86.5t33 -86.5t82 -33.5zM55 -110l85 85q14 -16 35 -30q46 -30 95 -30q57 0 93.5 37.5t36.5 97.5v40h-5q-14 -21 -36 -40q-48 -40 -114 -40q-84 0 -147 69.5
t-63 175.5t63 175.5t147 69.5q66 0 114 -40q22 -19 36 -40h5v70h135v-440q0 -113 -74.5 -186.5t-190.5 -73.5q-90 0 -162 50q-34 24 -53 50z" />
    <glyph glyph-name="Hcircumflex" unicode="&#x124;" horiz-adv-x="780" 
d="M90 0v700h150v-275h300v275h150v-700h-150v285h-300v-285h-150zM210 785l120 150h120l120 -150h-120l-60 80l-60 -80h-120z" />
    <glyph glyph-name="hcircumflex" unicode="&#x125;" horiz-adv-x="600" 
d="M70 0v700h135v-280h5q16 22 37 40q48 40 108 40q77 0 128.5 -56.5t51.5 -148.5v-295h-135v275q0 45 -24 70t-66 25q-45 0 -75 -31t-30 -79v-260h-135zM120 785l120 150h120l120 -150h-120l-60 80l-60 -80h-120z" />
    <glyph glyph-name="Hbar" unicode="&#x126;" horiz-adv-x="790" 
d="M110 0v490h-90v120h90v90h150v-90h270v90h150v-90h90v-120h-90v-490h-150v265h-270v-265h-150zM260 405h270v85h-270v-85z" />
    <glyph glyph-name="hbar" unicode="&#x127;" horiz-adv-x="615" 
d="M85 0v520h-85v125h85v55h135v-55h120v-125h-120v-130h5q16 22 37 40q48 40 108 40q77 0 128.5 -56.5t51.5 -148.5v-265h-135v245q0 45 -24 70t-66 25q-45 0 -75 -31t-30 -79v-230h-135z" />
    <glyph glyph-name="Imacron" unicode="&#x12a;" horiz-adv-x="330" 
d="M90 0v700h150v-700h-150zM5 810v100h320v-100h-320z" />
    <glyph glyph-name="imacron" unicode="&#x12b;" horiz-adv-x="265" 
d="M65 0v490h135v-490h-135zM-25 615v100h320v-100h-320z" />
    <glyph glyph-name="Ibreve" unicode="&#x12c;" horiz-adv-x="330" 
d="M90 0v700h150v-700h-150zM5 935h100q0 -26 17 -43t43 -17t43 17t17 43h100q0 -65 -44.5 -107.5t-115.5 -42.5t-115.5 42.5t-44.5 107.5z" />
    <glyph glyph-name="ibreve" unicode="&#x12d;" horiz-adv-x="265" 
d="M65 0v490h135v-490h-135zM-25 705h100q0 -26 17 -43t43 -17t43 17t17 43h100q0 -65 -44.5 -107.5t-115.5 -42.5t-115.5 42.5t-44.5 107.5z" />
    <glyph glyph-name="Iogonek" unicode="&#x12e;" horiz-adv-x="330" 
d="M220 -140v-75l-21 -8q-23 -7 -54 -7q-52 0 -83.5 29t-31.5 73q0 45 30 91q16 23 30 37v700h150v-700h-80q-11 -17 -18 -34q-17 -38 -17 -71q0 -19 13 -32t32 -13t36 5q7 1 14 5z" />
    <glyph glyph-name="iogonek" unicode="&#x12f;" horiz-adv-x="265" 
d="M195 -140v-75l-21 -8q-23 -7 -54 -7q-52 0 -83.5 29t-31.5 73q0 45 30 91q16 23 30 37v490h135v-490h-65q-11 -17 -18 -34q-17 -38 -17 -71q0 -19 13 -32t32 -13t36 5q7 1 14 5zM55 630q0 30 23 52.5t55 22.5t54.5 -22.5t22.5 -52.5t-23 -52.5t-55 -22.5t-54.5 22.5
t-22.5 52.5z" />
    <glyph glyph-name="Idot" unicode="&#x130;" horiz-adv-x="330" 
d="M90 0v700h150v-700h-150zM90 855q0 30 22 52.5t53 22.5t53 -22.5t22 -52.5t-22 -52.5t-53 -22.5t-53 22.5t-22 52.5z" />
    <glyph glyph-name="dotlessi" unicode="&#x131;" horiz-adv-x="265" 
d="M65 0v490h135v-490h-135z" />
    <glyph glyph-name="uni0132" unicode="&#x132;" horiz-adv-x="785" 
d="M90 0v700h150v-700h-150zM250 75l100 100q12 -15 27 -25q33 -25 73 -25q46 0 73 29t27 81v465h150v-465q0 -112 -68 -181t-177 -69q-92 0 -157 45q-28 20 -48 45z" />
    <glyph glyph-name="uni0133" unicode="&#x133;" horiz-adv-x="530" 
d="M70 0v490h135v-490h-135zM60 630q0 30 23 52.5t55 22.5t54.5 -22.5t22.5 -52.5t-23 -52.5t-55 -22.5t-54.5 22.5t-22.5 52.5zM205 -195v125q10 -4 16 -5q18 -5 39 -5q30 0 47.5 18.5t17.5 51.5v500h135v-520q0 -86 -44.5 -133t-120.5 -47q-36 0 -64 7q-4 1 -13 3.5
t-13 4.5zM315 630q0 30 23 52.5t55 22.5t54.5 -22.5t22.5 -52.5t-23 -52.5t-55 -22.5t-54.5 22.5t-22.5 52.5z" />
    <glyph glyph-name="Jcircumflex" unicode="&#x134;" horiz-adv-x="525" 
d="M-10 75l100 100q12 -15 27 -25q33 -25 73 -25q46 0 73 29t27 81v465h150v-465q0 -112 -68 -181t-177 -69q-92 0 -157 45q-28 20 -48 45zM185 785l120 150h120l120 -150h-120l-60 80l-60 -80h-120z" />
    <glyph glyph-name="jcircumflex" unicode="&#x135;" horiz-adv-x="265" 
d="M-55 -195v125q10 -4 16 -5q18 -5 39 -5q30 0 47.5 18.5t17.5 51.5v500h135v-520q0 -86 -44.5 -133t-120.5 -47q-36 0 -64 7q-4 1 -13 3.5t-13 4.5zM-50 555l120 150h120l120 -150h-120l-60 80l-60 -80h-120z" />
    <glyph glyph-name="Kcommaaccent" unicode="&#x136;" horiz-adv-x="700" 
d="M90 0v700h150v-300l270 300h180l-260 -290l280 -410h-175l-205 300l-90 -95v-205h-150zM270 -235l45 155h125l-70 -155h-100z" />
    <glyph glyph-name="kcommaaccent" unicode="&#x137;" horiz-adv-x="545" 
d="M70 0v700h135v-410l175 200h160l-180 -205l190 -285h-155l-125 190l-65 -75v-115h-135zM190 -235l45 155h125l-70 -155h-100z" />
    <glyph glyph-name="Lacute" unicode="&#x139;" horiz-adv-x="585" 
d="M90 0v700h150v-560h325v-140h-475zM110 785l80 150h140l-110 -150h-110z" />
    <glyph glyph-name="lacute" unicode="&#x13a;" horiz-adv-x="275" 
d="M70 0v700h135v-700h-135zM85 785l80 150h140l-110 -150h-110z" />
    <glyph glyph-name="Lcommaaccent" unicode="&#x13b;" horiz-adv-x="585" 
d="M90 0v700h150v-560h325v-140h-475zM230 -235l45 155h125l-70 -155h-100z" />
    <glyph glyph-name="lcommaaccent" unicode="&#x13c;" horiz-adv-x="275" 
d="M70 0v700h135v-700h-135zM30 -235l45 155h125l-70 -155h-100z" />
    <glyph glyph-name="Lcaron" unicode="&#x13d;" horiz-adv-x="585" 
d="M90 0v700h150v-560h325v-140h-475zM290 550l45 150h125l-70 -150h-100z" />
    <glyph glyph-name="lcaron" unicode="&#x13e;" horiz-adv-x="335" 
d="M70 0v700h135v-700h-135zM245 550l45 150h125l-70 -150h-100z" />
    <glyph glyph-name="Ldot" unicode="&#x13f;" horiz-adv-x="585" 
d="M90 0v700h150v-560h325v-140h-475zM320 375q0 30 23 52.5t56 22.5t57 -22.5t24 -52.5t-24 -52.5t-57 -22.5t-56 22.5t-23 52.5z" />
    <glyph glyph-name="ldot" unicode="&#x140;" horiz-adv-x="415" 
d="M70 0v700h135v-700h-135zM245 345q0 30 23 52.5t56 22.5t57 -22.5t24 -52.5t-24 -52.5t-57 -22.5t-56 22.5t-23 52.5z" />
    <glyph glyph-name="Lslash" unicode="&#x141;" 
d="M135 0v240l-90 -55l-65 110l155 90v315h150v-240l100 60l65 -110l-165 -95v-175h325v-140h-475z" />
    <glyph glyph-name="lslash" unicode="&#x142;" horiz-adv-x="395" 
d="M130 0v240l-90 -55l-60 100l150 95v320h135v-235l90 55l60 -100l-150 -95v-325h-135z" />
    <glyph glyph-name="Nacute" unicode="&#x143;" horiz-adv-x="805" 
d="M90 0v700h135l340 -435v435h150v-700h-135l-340 435v-435h-150zM345 785l80 150h140l-110 -150h-110z" />
    <glyph glyph-name="nacute" unicode="&#x144;" horiz-adv-x="595" 
d="M65 0v490h135v-70h5q16 22 37 40q48 40 108 40q77 0 128.5 -56.5t51.5 -148.5v-295h-135v275q0 45 -24 70t-66 25q-45 0 -75 -31t-30 -79v-260h-135zM245 555l80 150h140l-110 -150h-110z" />
    <glyph glyph-name="Ncommaaccent" unicode="&#x145;" horiz-adv-x="805" 
d="M90 0v700h135l340 -435v435h150v-700h-135l-340 435v-435h-150zM310 -235l45 155h125l-70 -155h-100z" />
    <glyph glyph-name="ncommaaccent" unicode="&#x146;" horiz-adv-x="595" 
d="M65 0v490h135v-70h5q16 22 37 40q48 40 108 40q77 0 128.5 -56.5t51.5 -148.5v-295h-135v275q0 45 -24 70t-66 25q-45 0 -75 -31t-30 -79v-260h-135zM195 -235l45 155h125l-70 -155h-100z" />
    <glyph glyph-name="Ncaron" unicode="&#x147;" horiz-adv-x="805" 
d="M90 0v700h135l340 -435v435h150v-700h-135l-340 435v-435h-150zM345 785l-120 150h120l60 -80l60 80h120l-120 -150h-120z" />
    <glyph glyph-name="ncaron" unicode="&#x148;" horiz-adv-x="595" 
d="M65 0v490h135v-70h5q16 22 37 40q48 40 108 40q77 0 128.5 -56.5t51.5 -148.5v-295h-135v275q0 45 -24 70t-66 25q-45 0 -75 -31t-30 -79v-260h-135zM240 555l-120 150h120l60 -80l60 80h120l-120 -150h-120z" />
    <glyph glyph-name="napostrophe" unicode="&#x149;" horiz-adv-x="595" 
d="M65 0v490h135v-70h5q16 22 37 40q48 40 108 40q77 0 128.5 -56.5t51.5 -148.5v-295h-135v275q0 45 -24 70t-66 25q-45 0 -75 -31t-30 -79v-260h-135zM-50 525l45 155h125l-70 -155h-100z" />
    <glyph glyph-name="Eng" unicode="&#x14a;" horiz-adv-x="805" 
d="M90 0v700h135l340 -435v435h150v-700q0 -108 -64 -174t-166 -66q-76 0 -140 40q-31 19 -50 40l95 100q14 -14 22 -20q27 -20 63 -20q90 0 90 100v20l-325 415v-435h-150z" />
    <glyph glyph-name="eng" unicode="&#x14b;" horiz-adv-x="595" 
d="M65 0v490h135v-70h5q16 22 37 40q48 40 108 40q77 0 128.5 -56.5t51.5 -148.5v-345q0 -82 -41 -126t-114 -44q-31 0 -57 7q-3 1 -11 3.5t-12 4.5v125q8 -4 13 -5q15 -5 32 -5q55 0 55 60v305q0 45 -24 70t-66 25q-45 0 -75 -31t-30 -79v-260h-135z" />
    <glyph glyph-name="Omacron" unicode="&#x14c;" horiz-adv-x="850" 
d="M200 350q0 -94 65.5 -159.5t159.5 -65.5t159.5 65.5t65.5 159.5t-65.5 159.5t-159.5 65.5t-159.5 -65.5t-65.5 -159.5zM45 350q0 151 109.5 258t270.5 107t270.5 -107t109.5 -258t-109.5 -258t-270.5 -107t-270.5 107t-109.5 258zM265 810v100h320v-100h-320z" />
    <glyph glyph-name="omacron" unicode="&#x14d;" horiz-adv-x="590" 
d="M295 115q53 0 89 37t36 93t-36 93t-89 37t-89 -37t-36 -93t36 -93t89 -37zM35 245q0 105 76 180t184 75t184 -75t76 -180t-76 -180t-184 -75t-184 75t-76 180zM135 590v100h320v-100h-320z" />
    <glyph glyph-name="Obreve" unicode="&#x14e;" horiz-adv-x="850" 
d="M200 350q0 -94 65.5 -159.5t159.5 -65.5t159.5 65.5t65.5 159.5t-65.5 159.5t-159.5 65.5t-159.5 -65.5t-65.5 -159.5zM45 350q0 151 109.5 258t270.5 107t270.5 -107t109.5 -258t-109.5 -258t-270.5 -107t-270.5 107t-109.5 258zM265 935h100q0 -26 17 -43t43 -17t43 17
t17 43h100q0 -65 -44.5 -107.5t-115.5 -42.5t-115.5 42.5t-44.5 107.5z" />
    <glyph glyph-name="obreve" unicode="&#x14f;" horiz-adv-x="590" 
d="M295 115q53 0 89 37t36 93t-36 93t-89 37t-89 -37t-36 -93t36 -93t89 -37zM35 245q0 105 76 180t184 75t184 -75t76 -180t-76 -180t-184 -75t-184 75t-76 180zM135 705h100q0 -26 17 -43t43 -17t43 17t17 43h100q0 -65 -44.5 -107.5t-115.5 -42.5t-115.5 42.5
t-44.5 107.5z" />
    <glyph glyph-name="Ohungarumlaut" unicode="&#x150;" horiz-adv-x="850" 
d="M200 350q0 -94 65.5 -159.5t159.5 -65.5t159.5 65.5t65.5 159.5t-65.5 159.5t-159.5 65.5t-159.5 -65.5t-65.5 -159.5zM45 350q0 151 109.5 258t270.5 107t270.5 -107t109.5 -258t-109.5 -258t-270.5 -107t-270.5 107t-109.5 258zM275 785l80 150h135l-115 -150h-100z
M465 785l80 150h135l-115 -150h-100z" />
    <glyph glyph-name="ohungarumlaut" unicode="&#x151;" horiz-adv-x="590" 
d="M295 115q53 0 89 37t36 93t-36 93t-89 37t-89 -37t-36 -93t36 -93t89 -37zM35 245q0 105 76 180t184 75t184 -75t76 -180t-76 -180t-184 -75t-184 75t-76 180zM150 555l80 150h135l-115 -150h-100zM340 555l80 150h135l-115 -150h-100z" />
    <glyph glyph-name="OE" unicode="&#x152;" horiz-adv-x="1020" 
d="M635 140h340v-140h-560q-160 0 -265 101t-105 249t105 249t265 101h550v-140h-330v-135h250v-135h-250v-150zM415 140h70v420h-70q-93 0 -154 -60t-61 -150t61 -150t154 -60z" />
    <glyph glyph-name="oe" unicode="&#x153;" horiz-adv-x="930" 
d="M795 165l70 -95q-21 -21 -54 -40q-70 -40 -151 -40q-78 0 -139 47q-26 20 -46 48q-20 -28 -46 -48q-61 -47 -144 -47q-105 0 -177.5 73.5t-72.5 181.5t72.5 181.5t177.5 73.5q83 0 144 -45q26 -19 46 -45q19 26 45 45q61 45 135 45q99 0 169.5 -70.5t70.5 -174.5
q0 -14 -3 -41l-2 -14h-345q26 -90 125 -90q54 0 92 27q19 13 33 28zM285 115q50 0 82.5 35.5t32.5 94.5t-32.5 94.5t-82.5 35.5t-82.5 -35.5t-32.5 -94.5t32.5 -94.5t82.5 -35.5zM545 295h210q-12 36 -40.5 60.5t-64.5 24.5q-35 0 -64 -25t-41 -60z" />
    <glyph glyph-name="Racute" unicode="&#x154;" horiz-adv-x="705" 
d="M90 0v700h310q112 0 178.5 -64.5t66.5 -170.5q0 -103 -60 -163q-25 -27 -60 -42l145 -260h-165l-125 230h-140v-230h-150zM240 370h155q42 0 68.5 26.5t26.5 68.5t-26.5 68.5t-68.5 26.5h-155v-190zM295 785l80 150h140l-110 -150h-110z" />
    <glyph glyph-name="racute" unicode="&#x155;" horiz-adv-x="380" 
d="M65 0v490h135v-70h5q16 22 37 40q48 40 108 40h10v-145l-11 2q-24 3 -34 3q-50 0 -82.5 -35.5t-32.5 -94.5v-230h-135zM155 555l80 150h140l-110 -150h-110z" />
    <glyph glyph-name="Rcommaaccent" unicode="&#x156;" horiz-adv-x="705" 
d="M90 0v700h310q112 0 178.5 -64.5t66.5 -170.5q0 -103 -60 -163q-25 -27 -60 -42l145 -260h-165l-125 230h-140v-230h-150zM240 370h155q42 0 68.5 26.5t26.5 68.5t-26.5 68.5t-68.5 26.5h-155v-190zM260 -235l45 155h125l-70 -155h-100z" />
    <glyph glyph-name="rcommaaccent" unicode="&#x157;" horiz-adv-x="380" 
d="M65 0v490h135v-70h5q16 22 37 40q48 40 108 40h10v-145l-11 2q-24 3 -34 3q-50 0 -82.5 -35.5t-32.5 -94.5v-230h-135zM25 -235l45 155h125l-70 -155h-100z" />
    <glyph glyph-name="Rcaron" unicode="&#x158;" horiz-adv-x="705" 
d="M90 0v700h310q112 0 178.5 -64.5t66.5 -170.5q0 -103 -60 -163q-25 -27 -60 -42l145 -260h-165l-125 230h-140v-230h-150zM240 370h155q42 0 68.5 26.5t26.5 68.5t-26.5 68.5t-68.5 26.5h-155v-190zM300 785l-120 150h120l60 -80l60 80h120l-120 -150h-120z" />
    <glyph glyph-name="rcaron" unicode="&#x159;" horiz-adv-x="380" 
d="M65 0v490h135v-70h5q16 22 37 40q48 40 108 40h10v-145l-11 2q-24 3 -34 3q-50 0 -82.5 -35.5t-32.5 -94.5v-230h-135zM150 555l-120 150h120l60 -80l60 80h120l-120 -150h-120z" />
    <glyph glyph-name="Sacute" unicode="&#x15a;" horiz-adv-x="585" 
d="M20 95l100 100q20 -23 43 -38q55 -37 122 -37q57 0 86 22t29 58q0 32 -36 53.5t-87.5 37.5t-103 38t-87.5 67.5t-36 113.5q0 86 69.5 145.5t185.5 59.5q98 0 176 -48q31 -19 59 -47l-100 -100q-19 19 -35 30q-46 30 -95 30q-105 0 -105 -70q0 -32 36 -53.5t87.5 -37.5
t103 -38t87.5 -67.5t36 -113.5q0 -90 -72.5 -152.5t-192.5 -62.5q-115 0 -203 55q-40 24 -67 55zM245 785l80 150h140l-110 -150h-110z" />
    <glyph glyph-name="sacute" unicode="&#x15b;" horiz-adv-x="455" 
d="M15 80l80 85q13 -15 35 -28q41 -27 95 -27q60 0 60 35q0 17 -39 33t-86 30t-86 51t-39 91q0 63 52.5 106.5t142.5 43.5q78 0 142 -38q26 -15 48 -37l-80 -85q-13 11 -29 20q-35 20 -81 20q-25 0 -37.5 -9t-12.5 -21q0 -17 39 -33t86 -30t86 -51t39 -91q0 -66 -54 -110.5
t-151 -44.5q-86 0 -156 45q-31 19 -54 45zM170 555l80 150h140l-110 -150h-110z" />
    <glyph glyph-name="Scircumflex" unicode="&#x15c;" horiz-adv-x="585" 
d="M20 95l100 100q20 -23 43 -38q55 -37 122 -37q57 0 86 22t29 58q0 32 -36 53.5t-87.5 37.5t-103 38t-87.5 67.5t-36 113.5q0 86 69.5 145.5t185.5 59.5q98 0 176 -48q31 -19 59 -47l-100 -100q-19 19 -35 30q-46 30 -95 30q-105 0 -105 -70q0 -32 36 -53.5t87.5 -37.5
t103 -38t87.5 -67.5t36 -113.5q0 -90 -72.5 -152.5t-192.5 -62.5q-115 0 -203 55q-40 24 -67 55zM115 785l120 150h120l120 -150h-120l-60 80l-60 -80h-120z" />
    <glyph glyph-name="scircumflex" unicode="&#x15d;" horiz-adv-x="455" 
d="M15 80l80 85q13 -15 35 -28q41 -27 95 -27q60 0 60 35q0 17 -39 33t-86 30t-86 51t-39 91q0 63 52.5 106.5t142.5 43.5q78 0 142 -38q26 -15 48 -37l-80 -85q-13 11 -29 20q-35 20 -81 20q-25 0 -37.5 -9t-12.5 -21q0 -17 39 -33t86 -30t86 -51t39 -91q0 -66 -54 -110.5
t-151 -44.5q-86 0 -156 45q-31 19 -54 45zM50 555l120 150h120l120 -150h-120l-60 80l-60 -80h-120z" />
    <glyph glyph-name="Scedilla" unicode="&#x15e;" horiz-adv-x="585" 
d="M180 -190l30 60q11 -9 20 -13q21 -12 50 -12q35 0 35 25t-35 25q-6 0 -18 -3l-7 -2l-30 35l30 65q-97 6 -176 57q-32 21 -59 48l100 100q20 -23 43 -38q55 -37 122 -37q57 0 86 22t29 58q0 32 -36 53.5t-87.5 37.5t-103 38t-87.5 67.5t-36 113.5q0 86 69.5 145.5
t185.5 59.5q98 0 176 -48q31 -19 59 -47l-100 -100q-19 19 -35 30q-46 30 -95 30q-105 0 -105 -70q0 -32 36 -53.5t87.5 -37.5t103 -38t87.5 -67.5t36 -113.5q0 -84 -62 -143t-163 -67l-15 -35q22 -1 42 -13q43 -25 43 -77q0 -43 -29 -69t-81 -26q-46 0 -81 20q-16 9 -29 20
z" />
    <glyph glyph-name="scedilla" unicode="&#x15f;" horiz-adv-x="455" 
d="M110 -190l30 60q11 -9 20 -13q21 -12 50 -12q35 0 35 25t-35 25q-6 0 -18 -3l-7 -2l-30 35l35 65q-72 9 -131 51q-27 19 -44 39l80 85q13 -15 35 -28q41 -27 95 -27q60 0 60 35q0 17 -39 33t-86 30t-86 51t-39 91q0 63 52.5 106.5t142.5 43.5q78 0 142 -38q26 -15 48 -37
l-80 -85q-13 11 -29 20q-35 20 -81 20q-25 0 -37.5 -9t-12.5 -21q0 -17 39 -33t86 -30t86 -51t39 -91q0 -61 -45.5 -104t-119.5 -51l-20 -35q22 -1 42 -13q43 -25 43 -77q0 -43 -29 -69t-81 -26q-46 0 -81 20q-16 9 -29 20z" />
    <glyph glyph-name="Scaron" unicode="&#x160;" horiz-adv-x="585" 
d="M20 95l100 100q20 -23 43 -38q55 -37 122 -37q57 0 86 22t29 58q0 32 -36 53.5t-87.5 37.5t-103 38t-87.5 67.5t-36 113.5q0 86 69.5 145.5t185.5 59.5q98 0 176 -48q31 -19 59 -47l-100 -100q-19 19 -35 30q-46 30 -95 30q-105 0 -105 -70q0 -32 36 -53.5t87.5 -37.5
t103 -38t87.5 -67.5t36 -113.5q0 -90 -72.5 -152.5t-192.5 -62.5q-115 0 -203 55q-40 24 -67 55zM235 785l-120 150h120l60 -80l60 80h120l-120 -150h-120z" />
    <glyph glyph-name="scaron" unicode="&#x161;" horiz-adv-x="455" 
d="M15 80l80 85q13 -15 35 -28q41 -27 95 -27q60 0 60 35q0 17 -39 33t-86 30t-86 51t-39 91q0 63 52.5 106.5t142.5 43.5q78 0 142 -38q26 -15 48 -37l-80 -85q-13 11 -29 20q-35 20 -81 20q-25 0 -37.5 -9t-12.5 -21q0 -17 39 -33t86 -30t86 -51t39 -91q0 -66 -54 -110.5
t-151 -44.5q-86 0 -156 45q-31 19 -54 45zM170 555l-120 150h120l60 -80l60 80h120l-120 -150h-120z" />
    <glyph glyph-name="uni0162" unicode="&#x162;" horiz-adv-x="590" 
d="M180 -190l30 60q11 -9 20 -13q21 -12 50 -12q35 0 35 25t-35 25q-6 0 -18 -3l-7 -2l-30 35l35 75h-40v560h-200v140h550v-140h-200v-560h-30l-25 -45q22 -1 42 -13q43 -25 43 -77q0 -43 -29 -69t-81 -26q-46 0 -81 20q-16 9 -29 20z" />
    <glyph glyph-name="uni0163" unicode="&#x163;" horiz-adv-x="400" 
d="M125 -190l30 60q11 -9 20 -13q21 -12 50 -12q35 0 35 25t-35 25q-6 0 -18 -3l-7 -2l-30 35l35 75q-100 33 -100 170v185h-85v125h45q55 0 55 60v90h120v-150h110v-125h-110v-165q0 -33 17.5 -51.5t47.5 -18.5q21 0 39 5q6 1 16 5v-125q-4 -2 -12 -4.5t-11 -3.5
q-26 -7 -57 -7l-20 -35q22 -1 42 -13q43 -25 43 -77q0 -43 -29 -69t-81 -26q-46 0 -81 20q-16 9 -29 20z" />
    <glyph glyph-name="Tcaron" unicode="&#x164;" horiz-adv-x="590" 
d="M220 0v560h-200v140h550v-140h-200v-560h-150zM235 785l-120 150h120l60 -80l60 80h120l-120 -150h-120z" />
    <glyph glyph-name="tcaron" unicode="&#x165;" horiz-adv-x="445" 
d="M105 170v185h-85v125h45q55 0 55 60v90h120v-150h110v-125h-110v-165q0 -33 17.5 -51.5t47.5 -18.5q21 0 39 5q6 1 16 5v-125q-4 -2 -13 -4.5t-13 -3.5q-28 -7 -64 -7q-76 0 -120.5 47t-44.5 133zM325 550l45 150h125l-70 -150h-100z" />
    <glyph glyph-name="Tbar" unicode="&#x166;" horiz-adv-x="590" 
d="M220 0v320h-140v120h140v120h-200v140h550v-140h-200v-120h140v-120h-140v-320h-150z" />
    <glyph glyph-name="tbar" unicode="&#x167;" horiz-adv-x="400" 
d="M20 210v105h85v50h-85v115h45q55 0 55 60v90h120v-150h110v-115h-110v-50h110v-105h-110v-20q0 -33 17.5 -51.5t47.5 -18.5q21 0 39 5q6 1 16 5v-125q-4 -2 -13 -4.5t-13 -3.5q-28 -7 -64 -7q-76 0 -120.5 47t-44.5 133v40h-85z" />
    <glyph glyph-name="Umacron" unicode="&#x16a;" horiz-adv-x="780" 
d="M85 290v410h150v-410q0 -74 43 -119.5t112 -45.5t112 45.5t43 119.5v410h150v-410q0 -135 -85 -220t-220 -85t-220 85t-85 220zM230 810v100h320v-100h-320z" />
    <glyph glyph-name="umacron" unicode="&#x16b;" horiz-adv-x="595" 
d="M65 195v295h135v-275q0 -45 24 -70t66 -25q45 0 75 31t30 79v260h135v-490h-135v70h-5q-16 -22 -37 -40q-48 -40 -108 -40q-77 0 -128.5 56.5t-51.5 148.5zM135 590v100h320v-100h-320z" />
    <glyph glyph-name="Ubreve" unicode="&#x16c;" horiz-adv-x="780" 
d="M85 290v410h150v-410q0 -74 43 -119.5t112 -45.5t112 45.5t43 119.5v410h150v-410q0 -135 -85 -220t-220 -85t-220 85t-85 220zM230 935h100q0 -26 17 -43t43 -17t43 17t17 43h100q0 -65 -44.5 -107.5t-115.5 -42.5t-115.5 42.5t-44.5 107.5z" />
    <glyph glyph-name="ubreve" unicode="&#x16d;" horiz-adv-x="595" 
d="M65 195v295h135v-275q0 -45 24 -70t66 -25q45 0 75 31t30 79v260h135v-490h-135v70h-5q-16 -22 -37 -40q-48 -40 -108 -40q-77 0 -128.5 56.5t-51.5 148.5zM135 705h100q0 -26 17 -43t43 -17t43 17t17 43h100q0 -65 -44.5 -107.5t-115.5 -42.5t-115.5 42.5t-44.5 107.5z
" />
    <glyph glyph-name="Uring" unicode="&#x16e;" horiz-adv-x="780" 
d="M85 290v410h150v-410q0 -74 43 -119.5t112 -45.5t112 45.5t43 119.5v410h150v-410q0 -135 -85 -220t-220 -85t-220 85t-85 220zM350 870q0 -18 12 -29t28 -11t28 11t12 29t-12 29t-28 11t-28 -11t-12 -29zM275 870q0 45 33.5 77.5t81.5 32.5t81.5 -32.5t33.5 -77.5
q0 -46 -33.5 -78t-81.5 -32t-81.5 32t-33.5 78z" />
    <glyph glyph-name="uring" unicode="&#x16f;" horiz-adv-x="595" 
d="M65 195v295h135v-275q0 -45 24 -70t66 -25q45 0 75 31t30 79v260h135v-490h-135v70h-5q-16 -22 -37 -40q-48 -40 -108 -40q-77 0 -128.5 56.5t-51.5 148.5zM255 640q0 -18 12 -29t28 -11t28 11t12 29t-12 29t-28 11t-28 -11t-12 -29zM180 640q0 45 33.5 77.5t81.5 32.5
t81.5 -32.5t33.5 -77.5q0 -46 -33.5 -78t-81.5 -32t-81.5 32t-33.5 78z" />
    <glyph glyph-name="Uhungarumlaut" unicode="&#x170;" horiz-adv-x="780" 
d="M85 290v410h150v-410q0 -74 43 -119.5t112 -45.5t112 45.5t43 119.5v410h150v-410q0 -135 -85 -220t-220 -85t-220 85t-85 220zM240 785l80 150h135l-115 -150h-100zM430 785l80 150h135l-115 -150h-100z" />
    <glyph glyph-name="uhungarumlaut" unicode="&#x171;" horiz-adv-x="595" 
d="M65 195v295h135v-275q0 -45 24 -70t66 -25q45 0 75 31t30 79v260h135v-490h-135v70h-5q-16 -22 -37 -40q-48 -40 -108 -40q-77 0 -128.5 56.5t-51.5 148.5zM145 555l80 150h135l-115 -150h-100zM335 555l80 150h135l-115 -150h-100z" />
    <glyph glyph-name="Uogonek" unicode="&#x172;" horiz-adv-x="780" 
d="M505 -140v-75l-21 -8q-23 -7 -54 -7q-52 0 -83.5 29t-31.5 73t25 82q8 14 25 31q-123 8 -201.5 91.5t-78.5 213.5v410h150v-410q0 -74 43 -119.5t112 -45.5t112 45.5t43 119.5v410h150v-410q0 -128 -73 -209.5t-182 -90.5q-8 -13 -15 -29q-15 -36 -15 -66q0 -19 13 -32
t32 -13t36 5q7 1 14 5z" />
    <glyph glyph-name="uogonek" unicode="&#x173;" horiz-adv-x="595" 
d="M65 195v295h135v-275q0 -45 24 -70t66 -25q45 0 75 31t30 79v260h135v-490h-65q-11 -17 -18 -34q-17 -38 -17 -71q0 -19 13 -32t32 -13t36 5q7 1 14 5v-75l-21 -8q-23 -7 -54 -7q-52 0 -83.5 29t-31.5 73q0 45 30 91q16 23 30 37v70h-5q-16 -22 -37 -40q-48 -40 -108 -40
q-77 0 -128.5 56.5t-51.5 148.5z" />
    <glyph glyph-name="Wcircumflex" unicode="&#x174;" horiz-adv-x="1070" 
d="M245 0l-230 700h155l145 -470h5l145 470h140l145 -470h5l145 470h155l-230 -700h-145l-142 455h-6l-142 -455h-145zM355 785l120 150h120l120 -150h-120l-60 80l-60 -80h-120z" />
    <glyph glyph-name="wcircumflex" unicode="&#x175;" horiz-adv-x="770" 
d="M167 0l-172 490h145l90 -290h5l95 290h110l95 -290h5l90 290h145l-172 -490h-123l-93 285h-4l-93 -285h-123zM205 555l120 150h120l120 -150h-120l-60 80l-60 -80h-120z" />
    <glyph glyph-name="Ycircumflex" unicode="&#x176;" horiz-adv-x="670" 
d="M260 0v250l-265 450h175l163 -300h4l163 300h175l-265 -450v-250h-150zM155 785l120 150h120l120 -150h-120l-60 80l-60 -80h-120z" />
    <glyph glyph-name="ycircumflex" unicode="&#x177;" horiz-adv-x="510" 
d="M35 -195v125q10 -4 16 -5q18 -5 39 -5q59 0 85 60l10 25l-190 485h145l115 -325h5l110 325h145l-200 -530q-32 -85 -77.5 -127.5t-112.5 -42.5q-36 0 -64 7q-4 1 -13 3.5t-13 4.5zM75 555l120 150h120l120 -150h-120l-60 80l-60 -80h-120z" />
    <glyph glyph-name="Ydieresis" unicode="&#x178;" horiz-adv-x="670" 
d="M260 0v250l-265 450h175l163 -300h4l163 300h175l-265 -450v-250h-150zM150 855q0 30 22.5 52.5t52.5 22.5t52.5 -22.5t22.5 -52.5t-22.5 -52.5t-52.5 -22.5t-52.5 22.5t-22.5 52.5zM370 855q0 30 22.5 52.5t52.5 22.5t52.5 -22.5t22.5 -52.5t-22.5 -52.5t-52.5 -22.5
t-52.5 22.5t-22.5 52.5z" />
    <glyph glyph-name="Zacute" unicode="&#x179;" horiz-adv-x="645" 
d="M45 0v140l355 420h-340v140h530v-140l-355 -420h365v-140h-555zM265 785l80 150h140l-110 -150h-110z" />
    <glyph glyph-name="zacute" unicode="&#x17a;" horiz-adv-x="500" 
d="M35 0v125l240 240h-230v125h410v-125l-240 -240h250v-125h-430zM190 555l80 150h140l-110 -150h-110z" />
    <glyph glyph-name="Zdotaccent" unicode="&#x17b;" horiz-adv-x="645" 
d="M45 0v140l355 420h-340v140h530v-140l-355 -420h365v-140h-555zM245 855q0 30 22.5 52.5t54.5 22.5t55 -22.5t23 -52.5t-23 -52.5t-55 -22.5t-54.5 22.5t-22.5 52.5z" />
    <glyph glyph-name="zdotaccent" unicode="&#x17c;" horiz-adv-x="500" 
d="M35 0v125l240 240h-230v125h410v-125l-240 -240h250v-125h-430zM170 630q0 30 22.5 52.5t54.5 22.5t55 -22.5t23 -52.5t-23 -52.5t-55 -22.5t-54.5 22.5t-22.5 52.5z" />
    <glyph glyph-name="Zcaron" unicode="&#x17d;" horiz-adv-x="645" 
d="M45 0v140l355 420h-340v140h530v-140l-355 -420h365v-140h-555zM265 785l-120 150h120l60 -80l60 80h120l-120 -150h-120z" />
    <glyph glyph-name="zcaron" unicode="&#x17e;" horiz-adv-x="500" 
d="M35 0v125l240 240h-230v125h410v-125l-240 -240h250v-125h-430zM190 555l-120 150h120l60 -80l60 80h120l-120 -150h-120z" />
    <glyph glyph-name="uni018F" unicode="&#x18f;" horiz-adv-x="795" 
d="M43 410h547q-17 72 -71.5 118.5t-133.5 46.5q-78 0 -144 -40q-30 -19 -51 -40l-90 105q32 32 75 57q98 58 210 58q158 0 261.5 -103.5t103.5 -261.5q0 -157 -102 -261t-253 -104t-253 104t-102 261q0 30 1 41zM585 280h-380q13 -63 65 -109t125 -46t125 46t65 109z" />
    <glyph glyph-name="florin" unicode="&#x192;" horiz-adv-x="420" 
d="M-60 -195v120q10 -4 16 -5q18 -5 39 -5q30 0 50 17.5t25 47.5l57 320h-72v120h93l22 120q31 170 185 170q22 0 52 -8q5 -2 23 -7v-120q-2 1 -16 5q-18 5 -39 5q-30 0 -50 -17.5t-25 -47.5l-18 -100h103v-120h-125l-60 -340q-31 -170 -185 -170q-27 0 -53 7z" />
    <glyph glyph-name="Aringacute" unicode="&#x1fa;" horiz-adv-x="720" 
d="M5 0l270 700h20q-10 7 -20 19q-20 22 -20 56q0 42 30 71t75 29t75 -29t30 -71q0 -34 -20 -56q-10 -12 -20 -19h20l270 -700h-160l-60 160h-270l-60 -160h-160zM275 295h170l-83 230h-4zM300 895l60 115h135l-80 -115h-115zM320 775q0 -18 12 -29t28 -11t28 11t12 29
t-12 29t-28 11t-28 -11t-12 -29z" />
    <glyph glyph-name="aringacute" unicode="&#x1fb;" horiz-adv-x="540" 
d="M235 710l60 115h135l-80 -115h-115zM255 590q0 -18 12 -29t28 -11t28 11t12 29t-12 29t-28 11t-28 -11t-12 -29zM340 0v60h-5q-18 -22 -37 -35q-44 -35 -108 -35q-67 0 -108.5 39.5t-41.5 100.5q0 60 38.5 102.5t106.5 54.5l155 28q-4 28 -26 46.5t-59 18.5
q-42 0 -81 -27q-18 -13 -29 -27l-80 79q24 29 49 46q63 45 136 49q-16 9 -30 21q-30 30 -30 69q0 42 30 71t75 29t75 -29t30 -71q0 -46 -38 -76q-14 -10 -37 -19q41 -10 75 -35q75 -57 75 -155v-305h-135zM340 210v10l-110 -20q-55 -11 -55 -50q0 -50 60 -50q45 0 75 31
t30 79z" />
    <glyph glyph-name="AEacute" unicode="&#x1fc;" horiz-adv-x="995" 
d="M-40 0l390 700h590v-140h-330v-135h250v-135h-250v-150h340v-140h-490v170h-240l-95 -170h-165zM295 305h165v255h-25zM490 785l80 150h140l-110 -150h-110z" />
    <glyph glyph-name="aeacute" unicode="&#x1fd;" horiz-adv-x="865" 
d="M145 325l-80 80q21 26 50 47q64 48 140 48q65 0 119 -40q26 -19 41 -40q17 19 46 40q62 40 129 40q99 0 169.5 -70.5t70.5 -174.5q0 -14 -3 -41l-2 -14h-345q26 -90 125 -90q54 0 92 27q19 13 33 28l70 -95q-21 -21 -54 -40q-70 -40 -151 -40q-78 0 -139 47
q-26 20 -46 48q-20 -28 -46 -48q-61 -47 -144 -47q-84 0 -132 41.5t-48 103.5q0 70 53 115t147 45h100q-7 85 -85 85q-46 0 -81 -28q-18 -13 -29 -27zM480 295h210q-12 36 -40.5 60.5t-64.5 24.5q-35 0 -64 -25t-41 -60zM340 205h-100q-29 0 -47 -15.5t-18 -39.5
q0 -50 60 -50q45 0 75 30t30 75zM360 555l80 150h140l-110 -150h-110z" />
    <glyph glyph-name="Oslashacute" unicode="&#x1fe;" horiz-adv-x="850" 
d="M230 235l315 305q-22 12 -34 17q-42 18 -86 18q-94 0 -159.5 -65.5t-65.5 -159.5q0 -50 15 -86q6 -17 15 -29zM620 465l-315 -305q17 -11 34 -18q40 -17 86 -17q94 0 159.5 65.5t65.5 159.5q0 45 -15 86q-8 18 -15 29zM35 50l85 85q-22 26 -38 59q-37 72 -37 156
q0 151 109.5 258t270.5 107q85 0 165 -35q38 -18 60 -35l85 85l80 -80l-85 -85q22 -28 37 -59q38 -78 38 -156q0 -151 -109.5 -258t-270.5 -107q-93 0 -165 35q-33 14 -60 35l-85 -85zM375 785l80 150h140l-110 -150h-110z" />
    <glyph glyph-name="oslashacute" unicode="&#x1ff;" horiz-adv-x="590" 
d="M410 295l-165 -170q7 -4 14 -5q17 -5 36 -5q53 0 89 37t36 93q0 21 -5 36zM180 195l165 170l-14 5q-15 5 -36 5q-53 0 -89 -37t-36 -93q0 -19 5 -36q1 -7 5 -14zM30 35l55 60q-16 21 -25 41q-25 52 -25 109q0 105 76 180t184 75q59 0 101 -20q16 -7 34 -20l60 65l70 -70
l-55 -60q16 -21 25 -41q25 -56 25 -109q0 -105 -76 -180t-184 -75q-59 0 -101 20q-20 9 -34 20l-60 -65zM240 555l80 150h140l-110 -150h-110z" />
    <glyph glyph-name="Scommaaccent" unicode="&#x218;" horiz-adv-x="585" 
d="M20 95l100 100q20 -23 43 -38q55 -37 122 -37q57 0 86 22t29 58q0 32 -36 53.5t-87.5 37.5t-103 38t-87.5 67.5t-36 113.5q0 86 69.5 145.5t185.5 59.5q98 0 176 -48q31 -19 59 -47l-100 -100q-19 19 -35 30q-46 30 -95 30q-105 0 -105 -70q0 -32 36 -53.5t87.5 -37.5
t103 -38t87.5 -67.5t36 -113.5q0 -90 -72.5 -152.5t-192.5 -62.5q-115 0 -203 55q-40 24 -67 55zM195 -235l45 155h125l-70 -155h-100z" />
    <glyph glyph-name="scommaaccent" unicode="&#x219;" horiz-adv-x="455" 
d="M15 80l80 85q13 -15 35 -28q41 -27 95 -27q60 0 60 35q0 17 -39 33t-86 30t-86 51t-39 91q0 63 52.5 106.5t142.5 43.5q78 0 142 -38q26 -15 48 -37l-80 -85q-13 11 -29 20q-35 20 -81 20q-25 0 -37.5 -9t-12.5 -21q0 -17 39 -33t86 -30t86 -51t39 -91q0 -66 -54 -110.5
t-151 -44.5q-86 0 -156 45q-31 19 -54 45zM115 -235l45 155h125l-70 -155h-100z" />
    <glyph glyph-name="uni021A" unicode="&#x21a;" horiz-adv-x="590" 
d="M220 0v560h-200v140h550v-140h-200v-560h-150zM190 -235l45 155h125l-70 -155h-100z" />
    <glyph glyph-name="uni021B" unicode="&#x21b;" horiz-adv-x="400" 
d="M105 170v185h-85v125h45q55 0 55 60v90h120v-150h110v-125h-110v-165q0 -33 17.5 -51.5t47.5 -18.5q21 0 39 5q6 1 16 5v-125q-4 -2 -13 -4.5t-13 -3.5q-28 -7 -64 -7q-76 0 -120.5 47t-44.5 133zM130 -235l45 155h125l-70 -155h-100z" />
    <glyph glyph-name="uni0232" unicode="&#x232;" horiz-adv-x="670" 
d="M260 0v250l-265 450h175l163 -300h4l163 300h175l-265 -450v-250h-150zM175 810v100h320v-100h-320z" />
    <glyph glyph-name="uni0233" unicode="&#x233;" horiz-adv-x="510" 
d="M35 -195v125q10 -4 16 -5q18 -5 39 -5q59 0 85 60l10 25l-190 485h145l115 -325h5l110 325h145l-200 -530q-32 -85 -77.5 -127.5t-112.5 -42.5q-36 0 -64 7q-4 1 -13 3.5t-13 4.5zM105 615v100h320v-100h-320z" />
    <glyph glyph-name="uni0244" unicode="&#x244;" horiz-adv-x="790" 
d="M10 360v120h90v220h150v-220h290v220h150v-220h90v-120h-90v-80q0 -131 -82 -213t-213 -82t-213 82t-82 213v80h-90zM250 360v-80q0 -71 40 -113t105 -42t105 42t40 113v80h-290z" />
    <glyph glyph-name="uni0259" unicode="&#x259;" horiz-adv-x="565" 
d="M35 295h355q-12 37 -44.5 61t-85.5 24q-54 0 -97 -28q-19 -12 -33 -27l-70 95q21 21 54 40q72 40 156 40q108 0 184 -75t76 -180t-75 -180t-180 -75q-101 0 -173 72t-72 173q0 21 2 43zM390 195h-220q12 -36 41 -60.5t69 -24.5t69 24.5t41 60.5z" />
    <glyph glyph-name="uni0289" unicode="&#x289;" horiz-adv-x="625" 
d="M20 236v110h65v144h135v-144h185v144h135v-144h65v-110h-65v-236h-135v70h-5q-14 -21 -36 -40q-48 -40 -104 -40q-76 0 -125.5 55.5t-49.5 144.5v46h-65zM220 236v-26q0 -90 85 -90q45 0 72.5 28.5t27.5 76.5v11h-185z" />
    <glyph glyph-name="uni02BC" unicode="&#x2bc;" horiz-adv-x="230" 
d="M30 555l45 150h125l-70 -150h-100z" />
    <glyph glyph-name="circumflex" unicode="&#x2c6;" horiz-adv-x="420" 
d="M30 555l120 150h120l120 -150h-120l-60 80l-60 -80h-120z" />
    <glyph glyph-name="caron" unicode="&#x2c7;" horiz-adv-x="420" 
d="M150 555l-120 150h120l60 -80l60 80h120l-120 -150h-120z" />
    <glyph glyph-name="breve" unicode="&#x2d8;" horiz-adv-x="380" 
d="M30 705h100q0 -26 17 -43t43 -17t43 17t17 43h100q0 -65 -44.5 -107.5t-115.5 -42.5t-115.5 42.5t-44.5 107.5z" />
    <glyph glyph-name="dotaccent" unicode="&#x2d9;" horiz-adv-x="215" 
d="M30 630q0 30 22.5 52.5t54.5 22.5t55 -22.5t23 -52.5t-23 -52.5t-55 -22.5t-54.5 22.5t-22.5 52.5z" />
    <glyph glyph-name="ring" unicode="&#x2da;" horiz-adv-x="290" 
d="M105 605q0 -18 12 -29t28 -11t28 11t12 29t-12 29t-28 11t-28 -11t-12 -29zM30 605q0 45 33.5 77.5t81.5 32.5t81.5 -32.5t33.5 -77.5q0 -46 -33.5 -78t-81.5 -32t-81.5 32t-33.5 78z" />
    <glyph glyph-name="ogonek" unicode="&#x2db;" horiz-adv-x="250" 
d="M220 -140v-75l-21 -8q-23 -7 -54 -7q-52 0 -83.5 29t-31.5 73q0 45 30 91q16 23 30 37h70q-11 -17 -18 -34q-17 -38 -17 -71q0 -19 13 -32t32 -13t36 5q7 1 14 5z" />
    <glyph glyph-name="tilde" unicode="&#x2dc;" horiz-adv-x="415" 
d="M115 560h-85q0 76 28.5 113t78.5 37q37 0 74 -27.5t54 -27.5q35 0 35 55h85q0 -75 -28.5 -112.5t-76.5 -37.5q-38 0 -74.5 25t-55.5 25q-35 0 -35 -50z" />
    <glyph glyph-name="hungarumlaut" unicode="&#x2dd;" horiz-adv-x="465" 
d="M30 555l80 150h135l-115 -150h-100zM220 555l80 150h135l-115 -150h-100z" />
    <glyph glyph-name="acutecomb" unicode="&#x301;" horiz-adv-x="0" 
d="M-450 725l80 150h140l-110 -150h-110z" />
    <glyph glyph-name="uni0302" unicode="&#x302;" horiz-adv-x="0" 
d="M-575 725l120 150h120l120 -150h-120l-60 80l-60 -80h-120z" />
    <glyph glyph-name="uni0304" unicode="&#x304;" horiz-adv-x="0" 
d="M-550 750v100h320v-100h-320z" />
    <glyph glyph-name="uni0306" unicode="&#x306;" horiz-adv-x="0" 
d="M-550 865h100q0 -26 17 -43t43 -17t43 17t17 43h100q0 -65 -44.5 -107.5t-115.5 -42.5t-115.5 42.5t-44.5 107.5z" />
    <glyph glyph-name="uni0307" unicode="&#x307;" horiz-adv-x="0" 
d="M-465 795q0 30 22.5 52.5t54.5 22.5t55 -22.5t23 -52.5t-23 -52.5t-55 -22.5t-54.5 22.5t-22.5 52.5z" />
    <glyph glyph-name="uni0308" unicode="&#x308;" horiz-adv-x="0" 
d="M-580 795q0 30 22.5 52.5t52.5 22.5t52.5 -22.5t22.5 -52.5t-22.5 -52.5t-52.5 -22.5t-52.5 22.5t-22.5 52.5zM-360 795q0 30 22.5 52.5t52.5 22.5t52.5 -22.5t22.5 -52.5t-22.5 -52.5t-52.5 -22.5t-52.5 22.5t-22.5 52.5z" />
    <glyph glyph-name="uni030A" unicode="&#x30a;" horiz-adv-x="0" 
d="M-430 830q0 -18 12 -29t28 -11t28 11t12 29t-12 29t-28 11t-28 -11t-12 -29zM-505 830q0 45 33.5 77.5t81.5 32.5t81.5 -32.5t33.5 -77.5q0 -46 -33.5 -78t-81.5 -32t-81.5 32t-33.5 78z" />
    <glyph glyph-name="uni030C" unicode="&#x30c;" horiz-adv-x="0" 
d="M-450 725l-120 150h120l60 -80l60 80h120l-120 -150h-120z" />
    <glyph glyph-name="uni0326" unicode="&#x326;" horiz-adv-x="230" 
d="M30 -235l45 155h125l-70 -155h-100z" />
    <glyph glyph-name="Alphatonos" unicode="&#x386;" horiz-adv-x="740" 
d="M290 295h170l-83 230h-4zM20 0l270 700h170l270 -700h-160l-60 160h-270l-60 -160h-160zM15 550l80 150h140l-110 -150h-110z" />
    <glyph glyph-name="Epsilontonos" unicode="&#x388;" horiz-adv-x="715" 
d="M140 0v700h520v-140h-370v-135h290v-135h-290v-150h380v-140h-530zM-90 550l80 150h140l-110 -150h-110z" />
    <glyph glyph-name="Etatonos" unicode="&#x389;" horiz-adv-x="830" 
d="M140 0v700h150v-275h300v275h150v-700h-150v285h-300v-285h-150zM-90 550l80 150h140l-110 -150h-110z" />
    <glyph glyph-name="Iotatonos" unicode="&#x38a;" horiz-adv-x="380" 
d="M140 0v700h150v-700h-150zM-90 550l80 150h140l-110 -150h-110z" />
    <glyph glyph-name="Omicrontonos" unicode="&#x38c;" horiz-adv-x="870" 
d="M220 350q0 -94 65.5 -159.5t159.5 -65.5t159.5 65.5t65.5 159.5t-65.5 159.5t-159.5 65.5t-159.5 -65.5t-65.5 -159.5zM65 350q0 151 109.5 258t270.5 107t270.5 -107t109.5 -258t-109.5 -258t-270.5 -107t-270.5 107t-109.5 258zM-50 550l80 150h140l-110 -150h-110z
" />
    <glyph glyph-name="Upsilontonos" unicode="&#x38e;" horiz-adv-x="805" 
d="M395 0v250l-265 450h175l163 -300h4l163 300h175l-265 -450v-250h-150zM-90 550l80 150h140l-110 -150h-110z" />
    <glyph glyph-name="Omegatonos" unicode="&#x38f;" horiz-adv-x="880" 
d="M85 0v130h124q-40 17 -87 86t-47 159q0 141 106.5 240.5t268.5 99.5t268.5 -99.5t106.5 -240.5q0 -90 -47 -159t-87 -86h124v-130h-305v130q68 23 116.5 83t48.5 137q0 94 -65.5 159.5t-159.5 65.5t-159.5 -65.5t-65.5 -159.5q0 -77 48.5 -137t116.5 -83v-130h-305z
M-50 550l80 150h140l-110 -150h-110z" />
    <glyph glyph-name="iotadieresistonos" unicode="&#x390;" horiz-adv-x="310" 
d="M60 555l75 150h90l-105 -150h-60zM-75 630q0 30 22.5 52.5t52.5 22.5t52.5 -22.5t22.5 -52.5t-22.5 -52.5t-52.5 -22.5t-52.5 22.5t-22.5 52.5zM205 630q0 30 22.5 52.5t52.5 22.5t52.5 -22.5t22.5 -52.5t-22.5 -52.5t-52.5 -22.5t-52.5 22.5t-22.5 52.5zM65 155v335h135
v-310q0 -60 55 -60q17 0 32 5q5 1 13 5v-120q-8 -5 -24 -10q-30 -10 -61 -10q-69 0 -109.5 43.5t-40.5 121.5z" />
    <glyph glyph-name="Alpha" unicode="&#x391;" horiz-adv-x="720" 
d="M275 295h170l-83 230h-4zM5 0l270 700h170l270 -700h-160l-60 160h-270l-60 -160h-160z" />
    <glyph glyph-name="Beta" unicode="&#x392;" horiz-adv-x="690" 
d="M90 0v700h295q102 0 163.5 -53.5t61.5 -131.5q0 -68 -48 -114q-23 -21 -47 -31q35 -10 65 -34q65 -55 65 -136q0 -84 -65.5 -142t-174.5 -58h-315zM240 130h155q44 0 69.5 23t25.5 62t-25.5 62t-69.5 23h-155v-170zM240 430h135q37 0 58.5 19.5t21.5 50.5t-21.5 50.5
t-58.5 19.5h-135v-140z" />
    <glyph glyph-name="Gamma" unicode="&#x393;" horiz-adv-x="585" 
d="M90 0v700h475v-140h-325v-560h-150z" />
    <glyph glyph-name="uni0394" unicode="&#x394;" horiz-adv-x="705" 
d="M-10 0l280 700h165l280 -700h-725zM200 140h305l-150 390h-5z" />
    <glyph glyph-name="Epsilon" unicode="&#x395;" horiz-adv-x="665" 
d="M90 0v700h520v-140h-370v-135h290v-135h-290v-150h380v-140h-530z" />
    <glyph glyph-name="Zeta" unicode="&#x396;" horiz-adv-x="645" 
d="M45 0v140l355 420h-340v140h530v-140l-355 -420h365v-140h-555z" />
    <glyph glyph-name="Eta" unicode="&#x397;" horiz-adv-x="780" 
d="M90 0v700h150v-275h300v275h150v-700h-150v285h-300v-285h-150z" />
    <glyph glyph-name="Theta" unicode="&#x398;" horiz-adv-x="850" 
d="M270 295v110h310v-110h-310zM200 350q0 -94 65.5 -159.5t159.5 -65.5t159.5 65.5t65.5 159.5t-65.5 159.5t-159.5 65.5t-159.5 -65.5t-65.5 -159.5zM45 350q0 151 109.5 258t270.5 107t270.5 -107t109.5 -258t-109.5 -258t-270.5 -107t-270.5 107t-109.5 258z" />
    <glyph glyph-name="Iota" unicode="&#x399;" horiz-adv-x="330" 
d="M90 0v700h150v-700h-150z" />
    <glyph glyph-name="Kappa" unicode="&#x39a;" horiz-adv-x="700" 
d="M90 0v700h150v-300l270 300h180l-260 -290l280 -410h-175l-205 300l-90 -95v-205h-150z" />
    <glyph glyph-name="Lambda" unicode="&#x39b;" horiz-adv-x="720" 
d="M5 0l270 700h170l270 -700h-160l-193 525h-4l-193 -525h-160z" />
    <glyph glyph-name="Mu" unicode="&#x39c;" horiz-adv-x="930" 
d="M90 0v700h135l240 -300l240 300h135v-700h-150v460l-225 -280l-225 280v-460h-150z" />
    <glyph glyph-name="Nu" unicode="&#x39d;" horiz-adv-x="805" 
d="M90 0v700h135l340 -435v435h150v-700h-135l-340 435v-435h-150z" />
    <glyph glyph-name="Xi" unicode="&#x39e;" horiz-adv-x="680" 
d="M50 0v140h580v-140h-580zM60 560v140h560v-140h-560zM135 285v140h410v-140h-410z" />
    <glyph glyph-name="Omicron" unicode="&#x39f;" horiz-adv-x="850" 
d="M200 350q0 -94 65.5 -159.5t159.5 -65.5t159.5 65.5t65.5 159.5t-65.5 159.5t-159.5 65.5t-159.5 -65.5t-65.5 -159.5zM45 350q0 151 109.5 258t270.5 107t270.5 -107t109.5 -258t-109.5 -258t-270.5 -107t-270.5 107t-109.5 258z" />
    <glyph glyph-name="Pi" unicode="&#x3a0;" horiz-adv-x="775" 
d="M90 0v700h595v-700h-150v560h-295v-560h-150z" />
    <glyph glyph-name="Rho" unicode="&#x3a1;" horiz-adv-x="680" 
d="M90 0v700h295q111 0 180.5 -66t69.5 -169t-69.5 -169t-180.5 -66h-145v-230h-150zM240 370h140q45 0 72.5 26.5t27.5 68.5t-27.5 68.5t-72.5 26.5h-140v-190z" />
    <glyph glyph-name="Sigma" unicode="&#x3a3;" horiz-adv-x="610" 
d="M50 0v120l195 240l-195 220v120h520v-140h-325l180 -200l-180 -220h325v-140h-520z" />
    <glyph glyph-name="Tau" unicode="&#x3a4;" horiz-adv-x="590" 
d="M220 0v560h-200v140h550v-140h-200v-560h-150z" />
    <glyph glyph-name="Upsilon" unicode="&#x3a5;" horiz-adv-x="670" 
d="M260 0v250l-265 450h175l163 -300h4l163 300h175l-265 -450v-250h-150z" />
    <glyph glyph-name="Phi" unicode="&#x3a6;" horiz-adv-x="870" 
d="M510 545v-380q84 11 129.5 59.5t45.5 130.5t-45.5 130.5t-129.5 59.5zM360 -50v85q-146 12 -235.5 100t-89.5 220t89.5 220t235.5 100v81h150v-81q146 -12 235.5 -100t89.5 -220t-89.5 -220t-235.5 -100v-85h-150zM360 165v380q-84 -11 -129.5 -59.5t-45.5 -130.5
t45.5 -130.5t129.5 -59.5z" />
    <glyph glyph-name="Chi" unicode="&#x3a7;" horiz-adv-x="680" 
d="M0 0l240 365l-220 335h175l143 -230h4l143 230h175l-220 -335l240 -365h-175l-163 260h-4l-163 -260h-175z" />
    <glyph glyph-name="Psi" unicode="&#x3a8;" horiz-adv-x="870" 
d="M360 0v185q-140 11 -217.5 92.5t-77.5 223.5v199h150v-195q0 -84 36 -126t109 -54v375h150v-375q73 12 109 54t36 126v195h150v-199q0 -142 -77.5 -223.5t-217.5 -92.5v-185h-150z" />
    <glyph glyph-name="uni03A9" unicode="&#x3a9;" horiz-adv-x="860" 
d="M65 0v130h124q-40 17 -87 86t-47 159q0 141 106.5 240.5t268.5 99.5t268.5 -99.5t106.5 -240.5q0 -90 -47 -159t-87 -86h124v-130h-305v130q68 23 116.5 83t48.5 137q0 94 -65.5 159.5t-159.5 65.5t-159.5 -65.5t-65.5 -159.5q0 -77 48.5 -137t116.5 -83v-130h-305z" />
    <glyph glyph-name="Iotadieresis" unicode="&#x3aa;" horiz-adv-x="330" 
d="M90 0v700h150v-700h-150zM-20 855q0 30 22.5 52.5t52.5 22.5t52.5 -22.5t22.5 -52.5t-22.5 -52.5t-52.5 -22.5t-52.5 22.5t-22.5 52.5zM200 855q0 30 22.5 52.5t52.5 22.5t52.5 -22.5t22.5 -52.5t-22.5 -52.5t-52.5 -22.5t-52.5 22.5t-22.5 52.5z" />
    <glyph glyph-name="Upsilondieresis" unicode="&#x3ab;" horiz-adv-x="670" 
d="M260 0v250l-265 450h175l163 -300h4l163 300h175l-265 -450v-250h-150zM150 855q0 30 22.5 52.5t52.5 22.5t52.5 -22.5t22.5 -52.5t-22.5 -52.5t-52.5 -22.5t-52.5 22.5t-22.5 52.5zM370 855q0 30 22.5 52.5t52.5 22.5t52.5 -22.5t22.5 -52.5t-22.5 -52.5t-52.5 -22.5
t-52.5 22.5t-22.5 52.5z" />
    <glyph glyph-name="alphatonos" unicode="&#x3ac;" horiz-adv-x="625" 
d="M295 115q53 0 89 37t36 93t-36 93t-89 37t-89 -37t-36 -93t36 -93t89 -37zM430 70h-5q-16 -22 -40 -40q-56 -40 -130 -40q-89 0 -154.5 72.5t-65.5 182.5q0 109 65.5 182t154.5 73q63 0 117 -40q24 -19 38 -40h5v70h135v-335q0 -15 10 -25t25 -10q4 0 14 2l6 3v-125
q-10 -4 -16 -5q-18 -5 -39 -5q-58 0 -96 40q-17 18 -24 40zM240 555l80 150h140l-110 -150h-110z" />
    <glyph glyph-name="epsilontonos" unicode="&#x3ad;" horiz-adv-x="460" 
d="M315 195h-60q-75 0 -75 -44q0 -46 75 -46q54 0 95 27q18 11 35 28l75 -80q-20 -25 -53 -45q-70 -45 -162 -45q-100 0 -155 42.5t-55 102.5t52 93q21 14 53 22q-26 7 -48 23q-47 33 -47 87q0 56 53.5 98t146.5 42q72 0 140 -35q29 -17 50 -35l-75 -80q-17 10 -32 17
q-38 18 -73 18q-32 0 -48.5 -12t-16.5 -28t16.5 -28t48.5 -12h60v-110zM175 555l80 150h140l-110 -150h-110z" />
    <glyph glyph-name="etatonos" unicode="&#x3ae;" horiz-adv-x="595" 
d="M65 0v490h135v-70h5q16 22 37 40q48 40 108 40q77 0 128.5 -56.5t51.5 -148.5v-295h-135v275q0 45 -24 70t-66 25q-45 0 -75 -31t-30 -79v-260h-135zM240 555l80 150h140l-110 -150h-110z" />
    <glyph glyph-name="iotatonos" unicode="&#x3af;" horiz-adv-x="310" 
d="M65 155v335h135v-310q0 -60 55 -60q17 0 32 5q5 1 13 5v-120q-8 -5 -24 -10q-30 -10 -61 -10q-69 0 -109.5 43.5t-40.5 121.5zM80 555l80 150h140l-110 -150h-110z" />
    <glyph glyph-name="upsilondieresistonos" unicode="&#x3b0;" horiz-adv-x="600" 
d="M225 555l75 150h90l-105 -150h-60zM90 630q0 30 22.5 52.5t52.5 22.5t52.5 -22.5t22.5 -52.5t-22.5 -52.5t-52.5 -22.5t-52.5 22.5t-22.5 52.5zM370 630q0 30 22.5 52.5t52.5 22.5t52.5 -22.5t22.5 -52.5t-22.5 -52.5t-52.5 -22.5t-52.5 22.5t-22.5 52.5zM65 215v275h135
v-275q0 -42 27.5 -68.5t72.5 -26.5t72.5 26.5t27.5 68.5v275h135v-275q0 -98 -65.5 -161.5t-169.5 -63.5t-169.5 63.5t-65.5 161.5z" />
    <glyph glyph-name="alpha" unicode="&#x3b1;" horiz-adv-x="625" 
d="M295 115q53 0 89 37t36 93t-36 93t-89 37t-89 -37t-36 -93t36 -93t89 -37zM430 70h-5q-16 -22 -40 -40q-56 -40 -130 -40q-89 0 -154.5 72.5t-65.5 182.5q0 109 65.5 182t154.5 73q63 0 117 -40q24 -19 38 -40h5v70h135v-335q0 -15 10 -25t25 -10q4 0 14 2l6 3v-125
q-10 -4 -16 -5q-18 -5 -39 -5q-58 0 -96 40q-17 18 -24 40z" />
    <glyph glyph-name="beta" unicode="&#x3b2;" horiz-adv-x="590" 
d="M70 -210v695q0 102 60.5 163.5t159.5 61.5q96 0 155.5 -54.5t59.5 -135.5q0 -57 -38 -103q-13 -15 -37 -32q35 -15 62 -39q63 -57 63 -136q0 -92 -64.5 -151t-173.5 -59h-112v-210h-135zM205 125h115q47 0 73.5 25t26.5 65q0 39 -28 64.5t-72 25.5h-55v125h20q37 0 61 22
t24 53t-21.5 53t-58.5 22q-39 0 -62 -25.5t-23 -69.5v-360z" />
    <glyph glyph-name="gamma" unicode="&#x3b3;" horiz-adv-x="515" 
d="M190 -210v200l-195 500h145l115 -330h5l115 330h145l-195 -500v-200h-135z" />
    <glyph glyph-name="delta" unicode="&#x3b4;" horiz-adv-x="585" 
d="M90 590v110h405v-120h-160v-5q91 -57 150.5 -144t59.5 -191q0 -105 -73.5 -177.5t-181.5 -72.5t-181.5 70.5t-73.5 169.5q0 97 65.5 164.5t164.5 75.5q-53 53 -118 90q-30 18 -57 30zM170 230q0 -49 34 -82t85 -33q53 0 87 33t34 82t-33.5 82t-86.5 33t-86.5 -33
t-33.5 -82z" />
    <glyph glyph-name="epsilon" unicode="&#x3b5;" horiz-adv-x="460" 
d="M315 195h-60q-75 0 -75 -44q0 -46 75 -46q54 0 95 27q18 11 35 28l75 -80q-20 -25 -53 -45q-70 -45 -162 -45q-100 0 -155 42.5t-55 102.5t52 93q21 14 53 22q-26 7 -48 23q-47 33 -47 87q0 56 53.5 98t146.5 42q72 0 140 -35q29 -17 50 -35l-75 -80q-17 10 -32 17
q-38 18 -73 18q-32 0 -48.5 -12t-16.5 -28t16.5 -28t48.5 -12h60v-110z" />
    <glyph glyph-name="zeta" unicode="&#x3b6;" horiz-adv-x="505" 
d="M440 -140h-120q0 52 17 97q8 22 18 38q-14 -4 -21 -5q-25 -5 -55 -5q-107 0 -170.5 60t-63.5 155q0 128 105 255q46 57 105 105h-190v140h405v-110q-81 -55 -143 -116q-142 -136 -142 -239q0 -120 135 -120q41 0 79 10q22 6 31 10l70 -90q-16 -23 -30 -53
q-30 -66 -30 -132z" />
    <glyph glyph-name="eta" unicode="&#x3b7;" horiz-adv-x="595" 
d="M65 0v490h135v-70h5q16 22 37 40q48 40 108 40q77 0 128.5 -56.5t51.5 -148.5v-295h-135v275q0 45 -24 70t-66 25q-45 0 -75 -31t-30 -79v-260h-135z" />
    <glyph glyph-name="theta" unicode="&#x3b8;" horiz-adv-x="650" 
d="M325 -15q-114 0 -192 96.5t-78 268.5t78 268.5t192 96.5t192 -96.5t78 -268.5t-78 -268.5t-192 -96.5zM195 405h260q-8 94 -43 139.5t-87 45.5t-87 -45.5t-43 -139.5zM455 295h-260q8 -94 43 -139.5t87 -45.5t87 45.5t43 139.5z" />
    <glyph glyph-name="iota" unicode="&#x3b9;" horiz-adv-x="310" 
d="M65 155v335h135v-310q0 -60 55 -60q17 0 32 5q5 1 13 5v-120q-8 -5 -24 -10q-30 -10 -61 -10q-69 0 -109.5 43.5t-40.5 121.5z" />
    <glyph glyph-name="kappa" unicode="&#x3ba;" horiz-adv-x="540" 
d="M65 0v490h135v-200l175 200h160l-180 -205l190 -285h-155l-125 190l-65 -75v-115h-135z" />
    <glyph glyph-name="lambda" unicode="&#x3bb;" horiz-adv-x="530" 
d="M5 0l205 485l-15 34q-15 33 -33.5 47t-51.5 14q-21 0 -39 -5q-14 -5 -16 -5v125q20 5 26 7q32 8 64 8q67 0 112.5 -40.5t77.5 -129.5l190 -540h-145l-102 300h-5l-123 -300h-145z" />
    <glyph glyph-name="uni03BC" unicode="&#x3bc;" horiz-adv-x="595" 
d="M65 -210v700h135v-275q0 -45 24 -70t66 -25q45 0 75 31t30 79v260h135v-490h-135v70h-5q-14 -22 -31 -40q-42 -40 -94 -40q-30 0 -48 7q-13 5 -17 8v-215h-135z" />
    <glyph glyph-name="nu" unicode="&#x3bd;" horiz-adv-x="510" 
d="M180 0l-185 490h145l113 -330h4l113 330h145l-185 -490h-150z" />
    <glyph glyph-name="xi" unicode="&#x3be;" horiz-adv-x="510" 
d="M450 -140h-120q0 52 17 97q8 22 18 38q-9 -4 -19 -5q-25 -5 -57 -5q-113 0 -181 59.5t-68 145.5q0 93 67 147q28 23 68 38v5q-33 11 -58 30q-57 45 -57 120t65.5 130t169.5 55q78 0 132 -28q28 -13 43 -27l-70 -105l-28 15q-41 15 -72 15q-47 0 -73.5 -21.5t-26.5 -53.5
t28 -53.5t82 -21.5h70v-130h-75q-62 0 -93.5 -25.5t-31.5 -69.5q0 -95 150 -95q41 0 79 10q22 6 31 10l70 -90q-16 -23 -30 -53q-30 -66 -30 -132z" />
    <glyph glyph-name="omicron" unicode="&#x3bf;" horiz-adv-x="590" 
d="M295 115q53 0 89 37t36 93t-36 93t-89 37t-89 -37t-36 -93t36 -93t89 -37zM35 245q0 105 76 180t184 75t184 -75t76 -180t-76 -180t-184 -75t-184 75t-76 180z" />
    <glyph glyph-name="pi" unicode="&#x3c0;" horiz-adv-x="595" 
d="M65 0v490h465v-490h-135v365h-195v-365h-135z" />
    <glyph glyph-name="rho" unicode="&#x3c1;" horiz-adv-x="610" 
d="M60 -210v455q0 105 75 180t180 75q108 0 184 -75t76 -180t-76 -180t-184 -75q-52 0 -90 17q-18 7 -30 18v-235h-135zM315 115q53 0 89 37t36 93t-36 93t-89 37t-89 -37t-36 -93t36 -93t89 -37z" />
    <glyph glyph-name="sigma1" unicode="&#x3c2;" horiz-adv-x="515" 
d="M425 -140h-120q0 53 17 96q8 22 18 37l-10 -2q-7 -1 -30 -1q-115 0 -190 73t-75 182q0 106 77 180.5t188 74.5q70 0 142 -35q35 -19 53 -35l-80 -100q-13 10 -33 22q-44 23 -82 23q-57 0 -93.5 -36.5t-36.5 -93.5q0 -55 39 -92.5t111 -37.5q38 0 70 10q18 6 25 10l70 -90
q-16 -23 -30 -53q-30 -66 -30 -132z" />
    <glyph glyph-name="sigma" unicode="&#x3c3;" 
d="M295 490h320v-130h-95q12 -22 17 -34q18 -42 18 -86q0 -102 -76 -176t-184 -74t-184 74t-76 176t76 176t184 74zM295 115q53 0 89 36.5t36 88.5t-36 88.5t-89 36.5t-89 -36.5t-36 -88.5t36 -88.5t89 -36.5z" />
    <glyph glyph-name="tau" unicode="&#x3c4;" horiz-adv-x="475" 
d="M170 155v210h-155v125h445v-125h-155v-185q0 -60 55 -60q17 0 32 5q5 1 13 5v-120q-8 -5 -24 -10q-30 -10 -61 -10q-69 0 -109.5 43.5t-40.5 121.5z" />
    <glyph glyph-name="upsilon" unicode="&#x3c5;" horiz-adv-x="600" 
d="M65 215v275h135v-275q0 -42 27.5 -68.5t72.5 -26.5t72.5 26.5t27.5 68.5v275h135v-275q0 -98 -65.5 -161.5t-169.5 -63.5t-169.5 63.5t-65.5 161.5z" />
    <glyph glyph-name="phi" unicode="&#x3c6;" horiz-adv-x="755" 
d="M310 -210v195q-119 4 -197 78t-78 177q0 84 50.5 148t124.5 92l55 -105q-38 -13 -64 -48t-26 -87q0 -60 35.5 -95.5t99.5 -39.5v390h125q121 0 203 -76t82 -179t-78 -177t-197 -78v-195h-135zM445 375v-270q64 4 99.5 39.5t35.5 95.5t-35.5 95.5t-99.5 39.5z" />
    <glyph glyph-name="chi" unicode="&#x3c7;" horiz-adv-x="510" 
d="M-5 0l175 250l-165 240h155l93 -150h4l93 150h155l-165 -240l175 -250h-155l-103 160h-4l-103 -160h-155z" />
    <glyph glyph-name="psi" unicode="&#x3c8;" horiz-adv-x="765" 
d="M315 -210v195q-118 12 -186.5 85t-68.5 195v225h135v-230q0 -62 34.5 -101.5t85.5 -43.5v375h135v-375q51 4 85.5 43.5t34.5 101.5v230h135v-225q0 -122 -68.5 -195t-186.5 -85v-195h-135z" />
    <glyph glyph-name="omega" unicode="&#x3c9;" horiz-adv-x="825" 
d="M345 240v100h135v-100q0 -125 85 -125q80 0 80 125q0 57 -18.5 90t-51.5 60l60 105q59 -32 104.5 -97.5t45.5 -157.5q0 -113 -63 -184t-152 -71q-77 0 -124 47q-22 20 -34 48q-14 -28 -34 -48q-47 -47 -123 -47q-89 0 -152 71t-63 184q0 92 45.5 157.5t104.5 97.5
l60 -105q-33 -27 -51.5 -60t-18.5 -90q0 -125 80 -125q85 0 85 125z" />
    <glyph glyph-name="iotadieresis" unicode="&#x3ca;" horiz-adv-x="310" 
d="M65 155v335h135v-310q0 -60 55 -60q17 0 32 5q5 1 13 5v-120q-8 -5 -24 -10q-30 -10 -61 -10q-69 0 -109.5 43.5t-40.5 121.5zM-50 630q0 30 22.5 52.5t52.5 22.5t52.5 -22.5t22.5 -52.5t-22.5 -52.5t-52.5 -22.5t-52.5 22.5t-22.5 52.5zM170 630q0 30 22.5 52.5
t52.5 22.5t52.5 -22.5t22.5 -52.5t-22.5 -52.5t-52.5 -22.5t-52.5 22.5t-22.5 52.5z" />
    <glyph glyph-name="upsilondieresis" unicode="&#x3cb;" horiz-adv-x="600" 
d="M65 215v275h135v-275q0 -42 27.5 -68.5t72.5 -26.5t72.5 26.5t27.5 68.5v275h135v-275q0 -98 -65.5 -161.5t-169.5 -63.5t-169.5 63.5t-65.5 161.5zM115 630q0 30 22.5 52.5t52.5 22.5t52.5 -22.5t22.5 -52.5t-22.5 -52.5t-52.5 -22.5t-52.5 22.5t-22.5 52.5zM335 630
q0 30 22.5 52.5t52.5 22.5t52.5 -22.5t22.5 -52.5t-22.5 -52.5t-52.5 -22.5t-52.5 22.5t-22.5 52.5z" />
    <glyph glyph-name="omicrontonos" unicode="&#x3cc;" horiz-adv-x="590" 
d="M295 115q53 0 89 37t36 93t-36 93t-89 37t-89 -37t-36 -93t36 -93t89 -37zM35 245q0 105 76 180t184 75t184 -75t76 -180t-76 -180t-184 -75t-184 75t-76 180zM235 555l80 150h140l-110 -150h-110z" />
    <glyph glyph-name="upsilontonos" unicode="&#x3cd;" horiz-adv-x="600" 
d="M65 215v275h135v-275q0 -42 27.5 -68.5t72.5 -26.5t72.5 26.5t27.5 68.5v275h135v-275q0 -98 -65.5 -161.5t-169.5 -63.5t-169.5 63.5t-65.5 161.5zM240 555l80 150h140l-110 -150h-110z" />
    <glyph glyph-name="omegatonos" unicode="&#x3ce;" horiz-adv-x="825" 
d="M345 240v100h135v-100q0 -125 85 -125q80 0 80 125q0 57 -18.5 90t-51.5 60l60 105q59 -32 104.5 -97.5t45.5 -157.5q0 -113 -63 -184t-152 -71q-77 0 -124 47q-22 20 -34 48q-14 -28 -34 -48q-47 -47 -123 -47q-89 0 -152 71t-63 184q0 92 45.5 157.5t104.5 97.5
l60 -105q-33 -27 -51.5 -60t-18.5 -90q0 -125 80 -125q85 0 85 125zM350 555l80 150h140l-110 -150h-110z" />
    <glyph glyph-name="uni0400" unicode="&#x400;" horiz-adv-x="665" 
d="M90 0v700h520v-140h-370v-135h290v-135h-290v-150h380v-140h-530zM305 785l-110 150h140l80 -150h-110z" />
    <glyph glyph-name="uni0401" unicode="&#x401;" horiz-adv-x="665" 
d="M90 0v700h520v-140h-370v-135h290v-135h-290v-150h380v-140h-530zM165 855q0 30 22.5 52.5t52.5 22.5t52.5 -22.5t22.5 -52.5t-22.5 -52.5t-52.5 -22.5t-52.5 22.5t-22.5 52.5zM385 855q0 30 22.5 52.5t52.5 22.5t52.5 -22.5t22.5 -52.5t-22.5 -52.5t-52.5 -22.5
t-52.5 22.5t-22.5 52.5z" />
    <glyph glyph-name="uni0402" unicode="&#x402;" horiz-adv-x="740" 
d="M165 0v560h-165v140h475v-140h-160v-155q19 12 44 22q56 23 111 23q108 0 171.5 -62.5t63.5 -167.5t-66 -170t-174 -65h-25v140q56 0 85.5 26t29.5 69q0 90 -105 90q-48 0 -98 -25q-17 -8 -37 -25v-260h-150z" />
    <glyph glyph-name="uni0403" unicode="&#x403;" horiz-adv-x="585" 
d="M90 0v700h475v-140h-325v-560h-150zM270 785l80 150h140l-110 -150h-110z" />
    <glyph glyph-name="uni0404" unicode="&#x404;" horiz-adv-x="745" 
d="M210 420h305v-135h-305q19 -68 76.5 -114t138.5 -46q79 0 149 50q32 24 51 50l100 -100q-31 -38 -75 -70q-102 -70 -225 -70q-161 0 -270.5 107t-109.5 258t109.5 258t270.5 107q123 0 221 -70q42 -30 74 -70l-100 -100q-20 26 -51 50q-66 50 -144 50q-81 0 -138.5 -45
t-76.5 -110z" />
    <glyph glyph-name="uni0405" unicode="&#x405;" horiz-adv-x="585" 
d="M20 95l100 100q20 -23 43 -38q55 -37 122 -37q57 0 86 22t29 58q0 32 -36 53.5t-87.5 37.5t-103 38t-87.5 67.5t-36 113.5q0 86 69.5 145.5t185.5 59.5q98 0 176 -48q31 -19 59 -47l-100 -100q-19 19 -35 30q-46 30 -95 30q-105 0 -105 -70q0 -32 36 -53.5t87.5 -37.5
t103 -38t87.5 -67.5t36 -113.5q0 -90 -72.5 -152.5t-192.5 -62.5q-115 0 -203 55q-40 24 -67 55z" />
    <glyph glyph-name="uni0406" unicode="&#x406;" horiz-adv-x="330" 
d="M90 0v700h150v-700h-150z" />
    <glyph glyph-name="uni0407" unicode="&#x407;" horiz-adv-x="330" 
d="M90 0v700h150v-700h-150zM-20 855q0 30 22.5 52.5t52.5 22.5t52.5 -22.5t22.5 -52.5t-22.5 -52.5t-52.5 -22.5t-52.5 22.5t-22.5 52.5zM200 855q0 30 22.5 52.5t52.5 22.5t52.5 -22.5t22.5 -52.5t-22.5 -52.5t-52.5 -22.5t-52.5 22.5t-22.5 52.5z" />
    <glyph glyph-name="uni0408" unicode="&#x408;" horiz-adv-x="525" 
d="M-10 75l100 100q12 -15 27 -25q33 -25 73 -25q46 0 73 29t27 81v465h150v-465q0 -112 -68 -181t-177 -69q-92 0 -157 45q-28 20 -48 45z" />
    <glyph glyph-name="uni0409" unicode="&#x409;" horiz-adv-x="1090" 
d="M0 2v143q9 -4 16 -5q17 -5 34 -5q28 0 48 13t37.5 48.5t26 106t8.5 176.5v221h490v-230h140q111 0 180.5 -66t69.5 -169t-69.5 -169t-180.5 -66h-290v560h-190v-80q0 -144 -17 -243.5t-50 -153t-73.5 -76t-94.5 -22.5q-31 0 -61 8zM660 140h135q45 0 72.5 26.5t27.5 68.5
t-27.5 68.5t-72.5 26.5h-135v-190z" />
    <glyph glyph-name="uni040A" unicode="&#x40a;" horiz-adv-x="1100" 
d="M90 0v700h150v-230h280v230h150v-230h140q111 0 180.5 -66t69.5 -169t-69.5 -169t-180.5 -66h-290v330h-280v-330h-150zM670 140h135q45 0 72.5 26.5t27.5 68.5t-27.5 68.5t-72.5 26.5h-135v-190z" />
    <glyph glyph-name="uni040B" unicode="&#x40b;" horiz-adv-x="770" 
d="M165 0v560h-165v140h475v-140h-160v-155q19 12 44 22q56 23 111 23q106 0 170.5 -67.5t64.5 -182.5v-200h-150v200q0 53 -28 81.5t-77 28.5q-48 0 -98 -25q-17 -8 -37 -25v-260h-150z" />
    <glyph glyph-name="uni040C" unicode="&#x40c;" horiz-adv-x="700" 
d="M90 0v700h150v-300l270 300h180l-260 -290l280 -410h-175l-205 300l-90 -95v-205h-150zM310 785l80 150h140l-110 -150h-110z" />
    <glyph glyph-name="uni040D" unicode="&#x40d;" horiz-adv-x="805" 
d="M90 0v700h150v-450l340 450h135v-700h-150v450l-340 -450h-135zM350 785l-110 150h140l80 -150h-110z" />
    <glyph glyph-name="uni040E" unicode="&#x40e;" horiz-adv-x="645" 
d="M170 935h100q0 -26 17 -43t43 -17t43 17t17 43h100q0 -69 -44 -112t-116 -43t-116 43t-44 112zM75 5v135q10 -4 17 -5q20 -5 48 -5q72 0 110 75l10 20l-260 475h175l165 -331l140 331h175l-260 -545q-78 -165 -235 -165q-35 0 -61 7q-3 1 -8 2.5t-9 3t-7 2.5z" />
    <glyph glyph-name="uni040F" unicode="&#x40f;" horiz-adv-x="780" 
d="M90 0v700h150v-560h300v560h150v-700h-225v-140h-150v140h-225z" />
    <glyph glyph-name="uni0410" unicode="&#x410;" horiz-adv-x="720" 
d="M275 295h170l-83 230h-4zM5 0l270 700h170l270 -700h-160l-60 160h-270l-60 -160h-160z" />
    <glyph glyph-name="uni0411" unicode="&#x411;" horiz-adv-x="675" 
d="M240 140h150q41 0 65.5 22.5t24.5 57.5t-24.5 57.5t-65.5 22.5h-150v-160zM90 0v700h485v-140h-335v-120h155q107 0 173.5 -62.5t66.5 -157.5t-66.5 -157.5t-173.5 -62.5h-305z" />
    <glyph glyph-name="uni0412" unicode="&#x412;" horiz-adv-x="690" 
d="M90 0v700h295q102 0 163.5 -53.5t61.5 -131.5q0 -68 -48 -114q-23 -21 -47 -31q35 -10 65 -34q65 -55 65 -136q0 -84 -65.5 -142t-174.5 -58h-315zM240 130h155q44 0 69.5 23t25.5 62t-25.5 62t-69.5 23h-155v-170zM240 430h135q37 0 58.5 19.5t21.5 50.5t-21.5 50.5
t-58.5 19.5h-135v-140z" />
    <glyph glyph-name="uni0413" unicode="&#x413;" horiz-adv-x="585" 
d="M90 0v700h475v-140h-325v-560h-150z" />
    <glyph glyph-name="uni0414" unicode="&#x414;" horiz-adv-x="740" 
d="M0 -140v280h40q28 30 55 80q55 114 55 261v219h485v-560h85v-280h-150v140h-420v-140h-150zM200 140h285v420h-185v-80q0 -148 -50 -260q-24 -51 -50 -80z" />
    <glyph glyph-name="uni0415" unicode="&#x415;" horiz-adv-x="665" 
d="M90 0v700h520v-140h-370v-135h290v-135h-290v-150h380v-140h-530z" />
    <glyph glyph-name="uni0416" unicode="&#x416;" horiz-adv-x="1020" 
d="M-10 0l280 410l-260 290h180l245 -275v275h150v-275l245 275h180l-260 -290l280 -410h-175l-205 300l-65 -70v-230h-150v230l-65 70l-205 -300h-175z" />
    <glyph glyph-name="uni0417" unicode="&#x417;" horiz-adv-x="615" 
d="M15 100l100 100q18 -22 43 -40q56 -40 122 -40q67 0 101 24t34 61q0 36 -32 60.5t-93 24.5h-95v130h85q55 0 82.5 22t27.5 58t-27.5 58t-82.5 22q-53 0 -102 -35q-25 -20 -38 -35l-100 100q27 31 63 52q84 53 187 53q115 0 185 -58t70 -137q0 -74 -58 -120
q-25 -20 -57 -30q37 -11 70 -35q70 -54 70 -140q0 -87 -75.5 -148.5t-204.5 -61.5q-115 0 -207 57q-36 23 -68 58z" />
    <glyph glyph-name="uni0418" unicode="&#x418;" horiz-adv-x="805" 
d="M90 0v700h150v-450l340 450h135v-700h-150v450l-340 -450h-135z" />
    <glyph glyph-name="uni0419" unicode="&#x419;" horiz-adv-x="805" 
d="M240 935h100q0 -26 17 -43t43 -17t43 17t17 43h100q0 -69 -44 -112t-116 -43t-116 43t-44 112zM90 0v700h150v-450l340 450h135v-700h-150v450l-340 -450h-135z" />
    <glyph glyph-name="uni041A" unicode="&#x41a;" horiz-adv-x="700" 
d="M90 0v700h150v-300l270 300h180l-260 -290l280 -410h-175l-205 300l-90 -95v-205h-150z" />
    <glyph glyph-name="uni041B" unicode="&#x41b;" horiz-adv-x="765" 
d="M0 0v145q9 -4 16 -5q17 -5 34 -5q29 0 48.5 13t37 48.5t26 106t8.5 177.5v220h505v-700h-150v560h-205v-80q0 -144 -17 -243.5t-50 -153t-73.5 -76t-94.5 -22.5q-35 0 -61 7z" />
    <glyph glyph-name="uni041C" unicode="&#x41c;" horiz-adv-x="930" 
d="M90 0v700h135l240 -300l240 300h135v-700h-150v460l-225 -280l-225 280v-460h-150z" />
    <glyph glyph-name="uni041D" unicode="&#x41d;" horiz-adv-x="780" 
d="M90 0v700h150v-275h300v275h150v-700h-150v285h-300v-285h-150z" />
    <glyph glyph-name="uni041E" unicode="&#x41e;" horiz-adv-x="850" 
d="M200 350q0 -94 65.5 -159.5t159.5 -65.5t159.5 65.5t65.5 159.5t-65.5 159.5t-159.5 65.5t-159.5 -65.5t-65.5 -159.5zM45 350q0 151 109.5 258t270.5 107t270.5 -107t109.5 -258t-109.5 -258t-270.5 -107t-270.5 107t-109.5 258z" />
    <glyph glyph-name="uni041F" unicode="&#x41f;" horiz-adv-x="775" 
d="M90 0v700h595v-700h-150v560h-295v-560h-150z" />
    <glyph glyph-name="uni0420" unicode="&#x420;" horiz-adv-x="680" 
d="M90 0v700h295q111 0 180.5 -66t69.5 -169t-69.5 -169t-180.5 -66h-145v-230h-150zM240 370h140q45 0 72.5 26.5t27.5 68.5t-27.5 68.5t-72.5 26.5h-140v-190z" />
    <glyph glyph-name="uni0421" unicode="&#x421;" horiz-adv-x="744" 
d="M625 225l100 -100q-31 -38 -75 -70q-102 -70 -225 -70q-161 0 -270.5 107t-109.5 258t109.5 258t270.5 107q123 0 221 -70q42 -30 74 -70l-100 -100q-20 26 -51 50q-66 50 -144 50q-94 0 -159.5 -65.5t-65.5 -159.5t65.5 -159.5t159.5 -65.5q79 0 149 50q32 24 51 50z
" />
    <glyph glyph-name="uni0422" unicode="&#x422;" horiz-adv-x="590" 
d="M220 0v560h-200v140h550v-140h-200v-560h-150z" />
    <glyph glyph-name="uni0423" unicode="&#x423;" horiz-adv-x="645" 
d="M75 5v135q10 -4 17 -5q20 -5 48 -5q72 0 110 75l10 20l-260 475h175l165 -331l140 331h175l-260 -545q-78 -165 -235 -165q-35 0 -61 7q-3 1 -8 2.5t-9 3t-7 2.5z" />
    <glyph glyph-name="uni0424" unicode="&#x424;" horiz-adv-x="880" 
d="M365 200v320q-82 -4 -128.5 -47.5t-46.5 -112.5t46.5 -112.5t128.5 -47.5zM365 -20v90q-155 8 -242.5 87.5t-87.5 202.5t87.5 202.5t242.5 87.5v75h150v-75q155 -8 242.5 -87.5t87.5 -202.5t-87.5 -202.5t-242.5 -87.5v-90h-150zM515 520v-320q82 4 128.5 47.5
t46.5 112.5t-46.5 112.5t-128.5 47.5z" />
    <glyph glyph-name="uni0425" unicode="&#x425;" horiz-adv-x="680" 
d="M0 0l240 365l-220 335h175l143 -230h4l143 230h175l-220 -335l240 -365h-175l-163 260h-4l-163 -260h-175z" />
    <glyph glyph-name="uni0426" unicode="&#x426;" horiz-adv-x="780" 
d="M90 0v700h150v-560h285v560h150v-560h85v-280h-150v140h-520z" />
    <glyph glyph-name="uni0427" unicode="&#x427;" horiz-adv-x="735" 
d="M495 0v255q-22 -12 -45 -20q-53 -20 -120 -20q-114 0 -182 73t-68 202v210h150v-210q0 -135 130 -135q50 0 98 22q23 11 37 23v300h150v-700h-150z" />
    <glyph glyph-name="uni0428" unicode="&#x428;" horiz-adv-x="1060" 
d="M90 0v700h150v-560h215v560h150v-560h215v560h150v-700h-880z" />
    <glyph glyph-name="uni0429" unicode="&#x429;" horiz-adv-x="1075" 
d="M90 0v700h150v-560h215v560h150v-560h215v560h150v-560h85v-280h-150v140h-815z" />
    <glyph glyph-name="uni042A" unicode="&#x42a;" horiz-adv-x="735" 
d="M160 0v560h-160v140h310v-230h135q111 0 180.5 -66t69.5 -169t-69.5 -169t-180.5 -66h-285zM310 140h130q45 0 72.5 26.5t27.5 68.5t-27.5 68.5t-72.5 26.5h-130v-190z" />
    <glyph glyph-name="uni042B" unicode="&#x42b;" horiz-adv-x="945" 
d="M705 0v700h150v-700h-150zM90 0v700h150v-230h135q111 0 180.5 -66t69.5 -169t-69.5 -169t-180.5 -66h-285zM240 140h130q45 0 72.5 26.5t27.5 68.5t-27.5 68.5t-72.5 26.5h-130v-190z" />
    <glyph glyph-name="uni042C" unicode="&#x42c;" horiz-adv-x="675" 
d="M90 0v700h150v-230h145q111 0 180.5 -66t69.5 -169t-69.5 -169t-180.5 -66h-295zM240 140h140q45 0 72.5 26.5t27.5 68.5t-27.5 68.5t-72.5 26.5h-140v-190z" />
    <glyph glyph-name="uni042D" unicode="&#x42d;" horiz-adv-x="745" 
d="M20 125l100 100q19 -26 51 -50q70 -50 149 -50q81 0 138.5 46t76.5 114h-305v135h305q-19 65 -76.5 110t-138.5 45q-78 0 -144 -50q-31 -24 -51 -50l-100 100q32 40 74 70q98 70 221 70q161 0 270.5 -107t109.5 -258t-109.5 -258t-270.5 -107q-123 0 -225 70
q-44 32 -75 70z" />
    <glyph glyph-name="uni042E" unicode="&#x42e;" horiz-adv-x="1090" 
d="M90 0v700h150v-275h95q23 121 120 205.5t235 84.5q150 0 255 -106t105 -259t-105 -259t-255 -106q-138 0 -237 88t-118 212h-95v-285h-150zM690 125q84 0 144.5 64.5t60.5 160.5t-60.5 160.5t-144.5 64.5t-144.5 -64.5t-60.5 -160.5t60.5 -160.5t144.5 -64.5z" />
    <glyph glyph-name="uni042F" unicode="&#x42f;" horiz-adv-x="700" 
d="M30 0l145 260q-35 15 -60 42q-60 60 -60 163q0 106 66.5 170.5t178.5 64.5h310v-700h-150v230h-140l-125 -230h-165zM305 370h155v190h-155q-42 0 -68.5 -26.5t-26.5 -68.5t26.5 -68.5t68.5 -26.5z" />
    <glyph glyph-name="uni0430" unicode="&#x430;" horiz-adv-x="540" 
d="M340 0v60h-5q-18 -22 -37 -35q-44 -35 -108 -35q-67 0 -108.5 39.5t-41.5 100.5q0 60 38.5 102.5t106.5 54.5l155 28q-4 28 -26 46.5t-59 18.5q-46 0 -81 -28q-18 -13 -29 -27l-80 80q22 27 51 47q70 48 149 48q92 0 151 -56t59 -139v-305h-135zM340 210v10l-110 -20
q-55 -11 -55 -50q0 -50 60 -50q45 0 75 31t30 79z" />
    <glyph glyph-name="uni0431" unicode="&#x431;" horiz-adv-x="595" 
d="M465 740l70 -115q-23 -12 -52 -23q-71 -28 -138 -42q-71 -16 -106 -48.5t-49 -96.5q14 19 33 32q47 33 97 33q98 0 169 -72t71 -173q0 -102 -72.5 -173.5t-177.5 -71.5q-116 0 -190.5 85.5t-74.5 234.5q0 166 67.5 258.5t177.5 116.5q38 8 119 35q8 3 27 9.5t29 10.5z
M310 115q49 0 82 33.5t33 86.5t-33 86.5t-82 33.5t-82 -33.5t-33 -86.5t33 -86.5t82 -33.5z" />
    <glyph glyph-name="uni0432" unicode="&#x432;" horiz-adv-x="535" 
d="M65 0v490h240q84 0 129.5 -38t45.5 -97q0 -45 -33 -78q-15 -15 -32 -22q23 -7 42 -23q43 -35 43 -87q0 -63 -49 -104t-136 -41h-250zM200 115h110q23 0 36.5 13t13.5 32t-13.5 32t-36.5 13h-110v-90zM200 305h100q18 0 29 10t11 25t-11 25t-29 10h-100v-70z" />
    <glyph glyph-name="uni0433" unicode="&#x433;" horiz-adv-x="440" 
d="M65 0v490h360v-125h-225v-365h-135z" />
    <glyph glyph-name="uni0434" unicode="&#x434;" horiz-adv-x="570" 
d="M0 -110v235h30q20 18 40 52q40 72 40 173v140h375v-365h65v-235h-135v110h-280v-110h-135zM175 125h175v240h-105v-15q0 -99 -35 -173q-19 -36 -35 -52z" />
    <glyph glyph-name="uni0435" unicode="&#x435;" horiz-adv-x="570" 
d="M435 165l70 -95q-21 -21 -54 -40q-72 -40 -156 -40q-108 0 -184 75t-76 180t75 180t180 75q101 0 173 -72t72 -173q0 -10 -3 -43l-2 -17h-355q12 -37 44.5 -61t85.5 -24q56 0 97 27q20 13 33 28zM175 295h220q-12 36 -41 60.5t-69 24.5t-69 -24.5t-41 -60.5z" />
    <glyph glyph-name="uni0436" unicode="&#x436;" horiz-adv-x="785" 
d="M-5 0l190 285l-180 205h160l160 -185v185h135v-185l160 185h160l-180 -205l190 -285h-155l-125 190l-50 -55v-135h-135v135l-50 55l-125 -190h-155z" />
    <glyph glyph-name="uni0437" unicode="&#x437;" horiz-adv-x="465" 
d="M10 80l75 80q14 -14 37 -28q41 -27 93 -27q70 0 70 45t-70 45h-60v110h60q28 0 44 12t16 28t-16 28t-44 12q-44 0 -82 -20q-15 -8 -33 -20l-75 80q24 22 51 37q70 38 149 38q89 0 142 -42t53 -98q0 -53 -48 -87q-22 -16 -47 -23q31 -8 52 -22q53 -33 53 -93t-54.5 -102.5
t-150.5 -42.5q-90 0 -160 45q-34 21 -55 45z" />
    <glyph glyph-name="uni0438" unicode="&#x438;" horiz-adv-x="595" 
d="M65 0v490h135v-280l210 280h120v-490h-135v280l-210 -280h-120z" />
    <glyph glyph-name="uni0439" unicode="&#x439;" horiz-adv-x="595" 
d="M140 705h100q0 -26 17 -43t43 -17t43 17t17 43h100q0 -65 -44.5 -107.5t-115.5 -42.5t-115.5 42.5t-44.5 107.5zM65 0v490h135v-280l210 280h120v-490h-135v280l-210 -280h-120z" />
    <glyph glyph-name="uni043A" unicode="&#x43a;" horiz-adv-x="540" 
d="M65 0v490h135v-200l175 200h160l-180 -205l190 -285h-155l-125 190l-65 -75v-115h-135z" />
    <glyph glyph-name="uni043B" unicode="&#x43b;" horiz-adv-x="580" 
d="M0 0v125l12 -3q14 -2 23 -2q28 0 43.5 15t26 67t10.5 148v140h400v-490h-135v365h-130v-15q0 -365 -180 -365q-31 0 -52 7q-16 7 -18 8z" />
    <glyph glyph-name="uni043C" unicode="&#x43c;" horiz-adv-x="660" 
d="M65 0v490h120l145 -185l145 185h120v-490h-135v285l-130 -165l-130 165v-285h-135z" />
    <glyph glyph-name="uni043D" unicode="&#x43d;" horiz-adv-x="585" 
d="M65 0v490h135v-180h185v180h135v-490h-135v185h-185v-185h-135z" />
    <glyph glyph-name="uni043E" unicode="&#x43e;" horiz-adv-x="590" 
d="M295 115q53 0 89 37t36 93t-36 93t-89 37t-89 -37t-36 -93t36 -93t89 -37zM35 245q0 105 76 180t184 75t184 -75t76 -180t-76 -180t-184 -75t-184 75t-76 180z" />
    <glyph glyph-name="uni043F" unicode="&#x43f;" horiz-adv-x="585" 
d="M65 0v490h455v-490h-135v365h-185v-365h-135z" />
    <glyph glyph-name="uni0440" unicode="&#x440;" horiz-adv-x="615" 
d="M65 -210v700h135v-70h5q14 21 38 40q54 40 117 40q89 0 154.5 -73t65.5 -182q0 -110 -65.5 -182.5t-154.5 -72.5q-63 0 -117 40q-24 19 -38 40h-5v-280h-135zM320 115q53 0 89 37t36 93t-36 93t-89 37t-89 -37t-36 -93t36 -93t89 -37z" />
    <glyph glyph-name="uni0441" unicode="&#x441;" horiz-adv-x="520" 
d="M415 175l85 -85q-18 -26 -50 -50q-70 -50 -155 -50q-108 0 -184 75t-76 180t76 180t184 75q85 0 155 -50q32 -24 50 -50l-85 -85q-13 16 -32 30q-42 30 -88 30q-53 0 -89 -37t-36 -93t36 -93t89 -37q46 0 88 30q19 14 32 30z" />
    <glyph glyph-name="uni0442" unicode="&#x442;" horiz-adv-x="475" 
d="M170 0v365h-155v125h445v-125h-155v-365h-135z" />
    <glyph glyph-name="uni0443" unicode="&#x443;" horiz-adv-x="510" 
d="M35 -195v125q10 -4 16 -5q18 -5 39 -5q59 0 85 60l10 25l-190 485h145l115 -325h5l110 325h145l-200 -530q-32 -85 -77.5 -127.5t-112.5 -42.5q-36 0 -64 7q-4 1 -13 3.5t-13 4.5z" />
    <glyph glyph-name="uni0444" unicode="&#x444;" horiz-adv-x="745" 
d="M440 375v-270q60 4 97.5 41t37.5 94t-37.5 94t-97.5 41zM305 -210v195q-123 8 -196.5 78.5t-73.5 176.5t73.5 176.5t196.5 78.5v205h135v-205q123 -8 196.5 -78.5t73.5 -176.5t-73.5 -176.5t-196.5 -78.5v-195h-135zM305 105v270q-60 -4 -97.5 -41t-37.5 -94t37.5 -94
t97.5 -41z" />
    <glyph glyph-name="uni0445" unicode="&#x445;" horiz-adv-x="510" 
d="M-5 0l175 250l-165 240h155l93 -150h4l93 150h155l-165 -240l175 -250h-155l-103 160h-4l-103 -160h-155z" />
    <glyph glyph-name="uni0446" unicode="&#x446;" horiz-adv-x="595" 
d="M65 0v490h135v-365h175v365h135v-365h65v-235h-135v110h-375z" />
    <glyph glyph-name="uni0447" unicode="&#x447;" horiz-adv-x="555" 
d="M355 0v160q-14 -9 -31 -15q-38 -15 -84 -15q-83 0 -134 53t-51 142v165h135v-155q0 -38 21 -59t59 -21q37 0 63 12q8 3 22 13v210h135v-490h-135z" />
    <glyph glyph-name="uni0448" unicode="&#x448;" horiz-adv-x="800" 
d="M65 0v490h135v-365h135v365h135v-365h135v365h135v-490h-675z" />
    <glyph glyph-name="uni0449" unicode="&#x449;" horiz-adv-x="825" 
d="M65 0v490h135v-365h135v365h135v-365h135v365h135v-365h65v-235h-135v110h-605z" />
    <glyph glyph-name="uni044A" unicode="&#x44a;" horiz-adv-x="550" 
d="M115 0v365h-115v125h250v-150h90q81 0 133 -48.5t52 -121.5t-52 -121.5t-133 -48.5h-225zM250 120h80q26 0 40.5 13.5t14.5 36.5t-14.5 36.5t-40.5 13.5h-80v-100z" />
    <glyph glyph-name="uni044B" unicode="&#x44b;" horiz-adv-x="735" 
d="M535 0v490h135v-490h-135zM200 120h80q26 0 40.5 13.5t14.5 36.5t-14.5 36.5t-40.5 13.5h-80v-100zM65 0v490h135v-150h90q81 0 133 -48.5t52 -121.5t-52 -121.5t-133 -48.5h-225z" />
    <glyph glyph-name="uni044C" unicode="&#x44c;" horiz-adv-x="510" 
d="M200 120h90q26 0 40.5 13.5t14.5 36.5t-14.5 36.5t-40.5 13.5h-90v-100zM65 0v490h135v-150h100q81 0 133 -48.5t52 -121.5t-52 -121.5t-133 -48.5h-235z" />
    <glyph glyph-name="uni044D" unicode="&#x44d;" horiz-adv-x="520" 
d="M20 90l80 80q13 -16 32 -30q42 -30 93 -30q53 0 91 40q15 18 24 40h-185v110h185q-9 22 -24 40q-38 40 -91 40q-51 0 -93 -30q-19 -14 -32 -30l-80 80q18 26 50 50q70 50 155 50q108 0 184 -75t76 -180t-76 -180t-184 -75q-85 0 -155 50q-32 24 -50 50z" />
    <glyph glyph-name="uni044E" unicode="&#x44e;" horiz-adv-x="810" 
d="M65 0v490h135v-180h75q15 79 82 134.5t163 55.5q109 0 182 -73t73 -182t-73 -182t-182 -73q-97 0 -163.5 56.5t-81.5 138.5h-75v-185h-135zM520 115q54 0 87 35.5t33 94.5t-33 94.5t-87 35.5t-87 -35.5t-33 -94.5t33 -94.5t87 -35.5z" />
    <glyph glyph-name="uni044F" unicode="&#x44f;" horiz-adv-x="525" 
d="M20 0l105 175q-24 11 -43 32q-42 46 -42 108q0 73 55 124t140 51h225v-490h-135v145h-75l-80 -145h-150zM245 260h80v110h-80q-29 0 -47 -15.5t-18 -39.5t18 -39.5t47 -15.5z" />
    <glyph glyph-name="uni0450" unicode="&#x450;" horiz-adv-x="570" 
d="M435 165l70 -95q-21 -21 -54 -40q-72 -40 -156 -40q-108 0 -184 75t-76 180t75 180t180 75q101 0 173 -72t72 -173q0 -10 -3 -43l-2 -17h-355q12 -37 44.5 -61t85.5 -24q56 0 97 27q20 13 33 28zM175 295h220q-12 36 -41 60.5t-69 24.5t-69 -24.5t-41 -60.5zM235 555
l-110 150h140l80 -150h-110z" />
    <glyph glyph-name="uni0451" unicode="&#x451;" horiz-adv-x="570" 
d="M435 165l70 -95q-21 -21 -54 -40q-72 -40 -156 -40q-108 0 -184 75t-76 180t75 180t180 75q101 0 173 -72t72 -173q0 -10 -3 -43l-2 -17h-355q12 -37 44.5 -61t85.5 -24q56 0 97 27q20 13 33 28zM175 295h220q-12 36 -41 60.5t-69 24.5t-69 -24.5t-41 -60.5zM100 630
q0 30 22.5 52.5t52.5 22.5t52.5 -22.5t22.5 -52.5t-22.5 -52.5t-52.5 -22.5t-52.5 22.5t-22.5 52.5zM320 630q0 30 22.5 52.5t52.5 22.5t52.5 -22.5t22.5 -52.5t-22.5 -52.5t-52.5 -22.5t-52.5 22.5t-22.5 52.5z" />
    <glyph glyph-name="uni0452" unicode="&#x452;" horiz-adv-x="595" 
d="M85 0v520h-85v125h85v55h135v-55h120v-125h-120v-130h5q16 22 37 40q48 40 108 40q78 0 131.5 -62.5t53.5 -167.5q0 -127 -63.5 -193.5t-181.5 -66.5v125q50 0 80 33t30 92q0 52 -26 81t-69 29q-45 0 -75 -31t-30 -79v-230h-135z" />
    <glyph glyph-name="uni0453" unicode="&#x453;" horiz-adv-x="440" 
d="M65 0v490h360v-125h-225v-365h-135zM185 555l80 150h140l-110 -150h-110z" />
    <glyph glyph-name="uni0454" unicode="&#x454;" horiz-adv-x="520" 
d="M180 300h185v-110h-185q7 -22 24 -40q34 -40 91 -40q50 0 92 30q18 14 33 30l80 -80q-18 -26 -50 -50q-70 -50 -155 -50q-108 0 -184 75t-76 180t76 180t184 75q85 0 155 -50q32 -24 50 -50l-80 -80q-15 16 -33 30q-42 30 -92 30q-57 0 -91 -40q-17 -18 -24 -40z" />
    <glyph glyph-name="uni0455" unicode="&#x455;" horiz-adv-x="455" 
d="M15 80l80 85q13 -15 35 -28q41 -27 95 -27q60 0 60 35q0 17 -39 33t-86 30t-86 51t-39 91q0 63 52.5 106.5t142.5 43.5q78 0 142 -38q26 -15 48 -37l-80 -85q-13 11 -29 20q-35 20 -81 20q-25 0 -37.5 -9t-12.5 -21q0 -17 39 -33t86 -30t86 -51t39 -91q0 -66 -54 -110.5
t-151 -44.5q-86 0 -156 45q-31 19 -54 45z" />
    <glyph glyph-name="uni0456" unicode="&#x456;" horiz-adv-x="265" 
d="M65 0v490h135v-490h-135zM55 630q0 30 23 52.5t55 22.5t54.5 -22.5t22.5 -52.5t-23 -52.5t-55 -22.5t-54.5 22.5t-22.5 52.5z" />
    <glyph glyph-name="uni0457" unicode="&#x457;" horiz-adv-x="275" 
d="M-45 630q0 30 22.5 52.5t52.5 22.5t52.5 -22.5t22.5 -52.5t-22.5 -52.5t-52.5 -22.5t-52.5 22.5t-22.5 52.5zM175 630q0 30 22.5 52.5t52.5 22.5t52.5 -22.5t22.5 -52.5t-22.5 -52.5t-52.5 -22.5t-52.5 22.5t-22.5 52.5zM70 0v490h135v-490h-135z" />
    <glyph glyph-name="uni0458" unicode="&#x458;" horiz-adv-x="265" 
d="M-55 -195v125q10 -4 16 -5q18 -5 39 -5q30 0 47.5 18.5t17.5 51.5v500h135v-520q0 -86 -44.5 -133t-120.5 -47q-36 0 -64 7q-4 1 -13 3.5t-13 4.5zM55 630q0 30 23 52.5t55 22.5t54.5 -22.5t22.5 -52.5t-23 -52.5t-55 -22.5t-54.5 22.5t-22.5 52.5z" />
    <glyph glyph-name="uni0459" unicode="&#x459;" horiz-adv-x="805" 
d="M0 0v125l12 -3q14 -2 23 -2q28 0 43.5 15t26 67t10.5 148v140h385v-150h95q81 0 133 -48.5t52 -121.5t-52 -121.5t-133 -48.5h-230v365h-115v-15q0 -365 -180 -365q-31 0 -52 7q-16 7 -18 8zM500 120h85q26 0 40.5 13.5t14.5 36.5t-14.5 36.5t-40.5 13.5h-85v-100z" />
    <glyph glyph-name="uni045A" unicode="&#x45a;" horiz-adv-x="815" 
d="M65 0v490h135v-160h175v160h135v-160h100q77 0 128.5 -48t51.5 -117t-51.5 -117t-128.5 -48h-235v205h-175v-205h-135zM510 120h90q23 0 36.5 13t13.5 32t-13.5 32t-36.5 13h-90v-90z" />
    <glyph glyph-name="uni045B" unicode="&#x45b;" horiz-adv-x="615" 
d="M85 0v520h-85v125h85v55h135v-55h120v-125h-120v-130h5q16 22 37 40q48 40 108 40q77 0 128.5 -56.5t51.5 -148.5v-265h-135v245q0 45 -24 70t-66 25q-45 0 -75 -31t-30 -79v-230h-135z" />
    <glyph glyph-name="uni045C" unicode="&#x45c;" horiz-adv-x="540" 
d="M65 0v490h135v-200l175 200h160l-180 -205l190 -285h-155l-125 190l-65 -75v-115h-135zM230 555l80 150h140l-110 -150h-110z" />
    <glyph glyph-name="uni045D" unicode="&#x45d;" horiz-adv-x="595" 
d="M65 0v490h135v-280l210 280h120v-490h-135v280l-210 -280h-120zM250 555l-110 150h140l80 -150h-110z" />
    <glyph glyph-name="uni045E" unicode="&#x45e;" horiz-adv-x="510" 
d="M35 -195v125q10 -4 16 -5q18 -5 39 -5q59 0 85 60l10 25l-190 485h145l115 -325h5l110 325h145l-200 -530q-32 -85 -77.5 -127.5t-112.5 -42.5q-36 0 -64 7q-4 1 -13 3.5t-13 4.5zM95 705h100q0 -26 17 -43t43 -17t43 17t17 43h100q0 -65 -44.5 -107.5t-115.5 -42.5
t-115.5 42.5t-44.5 107.5z" />
    <glyph glyph-name="uni045F" unicode="&#x45f;" horiz-adv-x="585" 
d="M65 0v490h135v-365h185v365h135v-490h-160v-110h-135v110h-160z" />
    <glyph glyph-name="uni0462" unicode="&#x462;" horiz-adv-x="720" 
d="M135 0v530h-135v120h135v50h150v-50h190v-120h-190v-60h145q111 0 180.5 -66t69.5 -169t-69.5 -169t-180.5 -66h-295zM285 140h140q45 0 72.5 26.5t27.5 68.5t-27.5 68.5t-72.5 26.5h-140v-190z" />
    <glyph glyph-name="uni0463" unicode="&#x463;" horiz-adv-x="560" 
d="M110 0v395h-110v110h110v195h135v-195h145v-110h-145v-55h100q81 0 133 -48.5t52 -121.5t-52 -121.5t-133 -48.5h-235zM245 120h90q26 0 40.5 13.5t14.5 36.5t-14.5 36.5t-40.5 13.5h-90v-100z" />
    <glyph glyph-name="uni046A" unicode="&#x46a;" horiz-adv-x="860" 
d="M50 0v107q0 123 57.5 196.5t157.5 101.5l-200 195v100h730v-100l-200 -195q100 -28 157.5 -101.5t57.5 -196.5v-107h-150v107q0 170 -155 178v-285h-150v285q-155 -8 -155 -178v-107h-150zM430 430l150 150h-300z" />
    <glyph glyph-name="uni046B" unicode="&#x46b;" horiz-adv-x="685" 
d="M25 0v20q0 100 48.5 161t131.5 84l-145 140v85h565v-85l-145 -140q83 -23 131.5 -84t48.5 -161v-20h-135v20q0 66 -32 103.5t-83 41.5v-165h-135v165q-51 -4 -83 -41.5t-32 -103.5v-20h-135zM343 285l92 95h-185z" />
    <glyph glyph-name="uni0472" unicode="&#x472;" horiz-adv-x="850" 
d="M210 280q22 -69 81 -112t134 -43q80 0 141 49t79 126q-12 -9 -29 -15q-36 -15 -86 -15q-39 0 -109 20t-101 20q-42 0 -83 -15q-17 -7 -27 -15zM45 350q0 151 109.5 258t270.5 107t270.5 -107t109.5 -258t-109.5 -258t-270.5 -107t-270.5 107t-109.5 258zM640 420
q-22 69 -81 112t-134 43q-80 0 -141 -49.5t-79 -125.5q11 7 29 15q41 15 86 15q38 0 108.5 -20t101.5 -20q47 0 83 15q17 6 27 15z" />
    <glyph glyph-name="uni0473" unicode="&#x473;" horiz-adv-x="590" 
d="M410 200l-21 -8q-21 -7 -44 -7q-20 0 -50 10t-50 10q-19 0 -41 -8l-19 -7q8 -22 21 -38q31 -37 89 -37q59 0 93 42q14 17 22 43zM35 245q0 105 76 180t184 75t184 -75t76 -180t-76 -180t-184 -75t-184 75t-76 180zM180 290q16 6 20 7q24 8 45 8q20 0 50 -10t50 -10
q23 0 41 7l19 8q-8 21 -21 37q-32 38 -89 38q-58 0 -93 -43q-14 -17 -22 -42z" />
    <glyph glyph-name="uni0474" unicode="&#x474;" horiz-adv-x="725" 
d="M275 0l-260 700h160l183 -515h4l118 360q30 91 73 130.5t117 39.5q32 0 64 -10q18 -6 26 -10l-35 -139l-10 4q-12 5 -25 5q-48 0 -70 -60l-175 -505h-170z" />
    <glyph glyph-name="uni0475" unicode="&#x475;" horiz-adv-x="540" 
d="M180 0l-185 490h145l113 -330h4l63 200q22 70 60 105t100 35q33 0 63 -10q13 -5 22 -10l-35 -115q-1 0 -8 5q-8 5 -22 5q-18 0 -28 -8t-17 -27l-125 -340h-150z" />
    <glyph glyph-name="uni048A" unicode="&#x48a;" horiz-adv-x="810" 
d="M90 0v700h150v-450l340 450h135v-560h105v-20l-105 -260h-110l40 140h-80v450l-340 -450h-135zM240 940h100q0 -26 17 -43t43 -17t43 17t17 43h100q0 -69 -44 -112t-116 -43t-116 43t-44 112z" />
    <glyph glyph-name="uni048B" unicode="&#x48b;" horiz-adv-x="600" 
d="M65 0v490h135v-280l210 280h120v-360h80v-20l-90 -220h-100l30 110h-55v280l-210 -280h-120zM145 708h100q0 -26 17 -43t43 -17t43 17t17 43h100q0 -65 -44.5 -107.5t-115.5 -42.5t-115.5 42.5t-44.5 107.5z" />
    <glyph glyph-name="uni048C" unicode="&#x48c;" horiz-adv-x="720" 
d="M135 0v530h-135v120h135v50h150v-50h190v-120h-190v-60h145q111 0 180.5 -66t69.5 -169t-69.5 -169t-180.5 -66h-295zM285 140h140q45 0 72.5 26.5t27.5 68.5t-27.5 68.5t-72.5 26.5h-140v-190z" />
    <glyph glyph-name="uni048D" unicode="&#x48d;" horiz-adv-x="560" 
d="M110 0v395h-110v110h110v195h135v-195h145v-110h-145v-55h100q81 0 133 -48.5t52 -121.5t-52 -121.5t-133 -48.5h-235zM245 120h90q26 0 40.5 13.5t14.5 36.5t-14.5 36.5t-40.5 13.5h-90v-100z" />
    <glyph glyph-name="uni048E" unicode="&#x48e;" horiz-adv-x="680" 
d="M90 0v700h295q111 0 180.5 -66t69.5 -169q0 -73 -40 -135q-19 -27 -40 -45l50 -75l-100 -70l-65 95l-16 -3q-22 -2 -39 -2h-145v-230h-150zM240 370h106l-26 40l100 70l45 -65l7 14q8 18 8 36q0 42 -27.5 68.5t-72.5 26.5h-140v-190z" />
    <glyph glyph-name="uni048F" unicode="&#x48f;" horiz-adv-x="615" 
d="M65 -210v700h135v-70h5q14 21 38 40q54 40 117 40q89 0 154.5 -73t65.5 -182q0 -78 -38 -142q-15 -26 -37 -48l55 -80l-85 -55l-55 80q-8 -4 -15 -5q-18 -5 -45 -5q-63 0 -117 40q-24 19 -38 40h-5v-280h-135zM340 115l-45 65l85 55l40 -60q8 7 12 18q13 22 13 52
q0 56 -36 93t-89 37t-89 -37t-36 -93t36 -93t89 -37h20z" />
    <glyph glyph-name="uni0490" unicode="&#x490;" horiz-adv-x="585" 
d="M90 0v700h325v130h150v-270h-325v-560h-150z" />
    <glyph glyph-name="uni0491" unicode="&#x491;" horiz-adv-x="440" 
d="M65 0v490h225v100h135v-225h-225v-365h-135z" />
    <glyph glyph-name="uni0492" unicode="&#x492;" horiz-adv-x="600" 
d="M105 0v270h-95v140h95v290h475v-140h-325v-150h180v-140h-180v-270h-150z" />
    <glyph glyph-name="uni0493" unicode="&#x493;" horiz-adv-x="455" 
d="M80 0v165h-70v115h70v210h360v-125h-225v-85h125v-115h-125v-165h-135z" />
    <glyph glyph-name="uni0494" unicode="&#x494;" horiz-adv-x="675" 
d="M90 0v700h475v-140h-325v-195q19 12 39 20q45 20 106 20q117 0 188.5 -74t71.5 -201q0 -135 -78.5 -212.5t-216.5 -77.5v145q64 0 102 38.5t38 106.5q0 59 -36 97t-89 38q-49 0 -93 -23q-21 -12 -32 -22v-220h-150z" />
    <glyph glyph-name="uni0495" unicode="&#x495;" horiz-adv-x="535" 
d="M265 -220v130q50 0 80 32t30 88q0 48 -26 76.5t-69 28.5q-27 0 -59 -15q-12 -8 -21 -15v-105h-135v490h360v-125h-225v-125q14 8 30 12q35 13 75 13q92 0 151 -64.5t59 -170.5q0 -121 -64.5 -185.5t-185.5 -64.5z" />
    <glyph glyph-name="uni0496" unicode="&#x496;" horiz-adv-x="1035" 
d="M-10 0l280 410l-260 290h180l245 -275v275h150v-275l245 275h180l-260 -290l185 -270h110v-280h-150v140h-40l-205 300l-65 -70v-230h-150v230l-65 70l-205 -300h-175z" />
    <glyph glyph-name="uni0497" unicode="&#x497;" horiz-adv-x="800" 
d="M-5 0l190 285l-180 205h160l160 -185v185h135v-185l160 185h160l-180 -205l105 -160h100v-235h-135v110h-35l-125 190l-50 -55v-135h-135v135l-50 55l-125 -190h-155z" />
    <glyph glyph-name="uni0498" unicode="&#x498;" horiz-adv-x="615" 
d="M215 -140v130q-83 15 -151 64q-32 23 -49 46l100 100q18 -22 43 -40q56 -40 122 -40q67 0 101 24t34 61q0 36 -32 60.5t-93 24.5h-95v130h85q55 0 82.5 22t27.5 58t-27.5 58t-82.5 22q-53 0 -102 -35q-25 -20 -38 -35l-100 100q27 31 63 52q84 53 187 53q115 0 185 -58
t70 -137q0 -74 -58 -120q-25 -20 -57 -30q37 -11 70 -35q70 -54 70 -140q0 -75 -57.5 -133t-147.5 -72v-130h-150z" />
    <glyph glyph-name="uni0499" unicode="&#x499;" horiz-adv-x="465" 
d="M160 -110v105q-59 14 -111 50q-21 15 -39 35l75 80q14 -14 37 -28q41 -27 93 -27q70 0 70 45t-70 45h-60v110h60q28 0 44 12t16 28t-16 28t-44 12q-44 0 -82 -20q-15 -8 -33 -20l-75 80q24 22 51 37q70 38 149 38q89 0 142 -42t53 -98q0 -53 -48 -87q-22 -16 -47 -23
q31 -8 52 -22q53 -33 53 -93q0 -53 -35.5 -89t-99.5 -51v-105h-135z" />
    <glyph glyph-name="uni049A" unicode="&#x49a;" horiz-adv-x="710" 
d="M90 0v700h150v-300l270 300h180l-260 -290l185 -270h105v-280h-150v140h-35l-205 300l-90 -95v-205h-150z" />
    <glyph glyph-name="uni049B" unicode="&#x49b;" horiz-adv-x="550" 
d="M65 0v490h135v-200l175 200h160l-180 -205l105 -160h95v-235h-135v110h-30l-125 190l-65 -75v-115h-135z" />
    <glyph glyph-name="uni049C" unicode="&#x49c;" horiz-adv-x="725" 
d="M90 0v700h150v-275h30v115h110v-115h5l175 275h165l-215 -340l235 -360h-165l-190 290h-10v-120h-110v120h-30v-290h-150z" />
    <glyph glyph-name="uni049D" unicode="&#x49d;" horiz-adv-x="585" 
d="M65 0v490h135v-185h25v95h90v-95h5l110 185h150l-149 -245l164 -245h-150l-120 185h-10v-95h-90v95h-25v-185h-135z" />
    <glyph glyph-name="uni049E" unicode="&#x49e;" horiz-adv-x="720" 
d="M110 0v550h-110v100h110v50h150v-50h105v-100h-105v-150l270 300h180l-260 -290l280 -410h-175l-205 300l-90 -95v-205h-150z" />
    <glyph glyph-name="uni049F" unicode="&#x49f;" horiz-adv-x="560" 
d="M85 0v520h-85v120h85v60h135v-60h115v-120h-115v-230l175 200h160l-180 -205l190 -285h-155l-125 190l-65 -75v-115h-135z" />
    <glyph glyph-name="uni04A0" unicode="&#x4a0;" horiz-adv-x="775" 
d="M165 0v560h-165v140h315v-300l270 300h180l-260 -290l280 -410h-175l-205 300l-90 -95v-205h-150z" />
    <glyph glyph-name="uni04A1" unicode="&#x4a1;" horiz-adv-x="575" 
d="M100 0v360h-100v130h235v-200l175 200h160l-180 -205l190 -285h-155l-125 190l-65 -75v-115h-135z" />
    <glyph glyph-name="uni04A2" unicode="&#x4a2;" horiz-adv-x="785" 
d="M90 0v700h150v-275h300v275h150v-560h85v-280h-150v140h-85v285h-300v-285h-150z" />
    <glyph glyph-name="uni04A3" unicode="&#x4a3;" horiz-adv-x="595" 
d="M65 0v490h135v-180h185v180h135v-365h65v-235h-135v110h-65v185h-185v-185h-135z" />
    <glyph glyph-name="uni04A4" unicode="&#x4a4;" horiz-adv-x="985" 
d="M90 0v700h150v-275h280v275h445v-140h-295v-560h-150v285h-280v-285h-150z" />
    <glyph glyph-name="uni04A5" unicode="&#x4a5;" horiz-adv-x="740" 
d="M65 0v490h135v-180h175v180h350v-125h-215v-365h-135v185h-175v-185h-135z" />
    <glyph glyph-name="uni04A6" unicode="&#x4a6;" horiz-adv-x="1110" 
d="M90 0v700h585v-335q19 12 39 20q45 20 106 20q117 0 188.5 -74t71.5 -201q0 -135 -78.5 -212.5t-216.5 -77.5v145q64 0 102 38.5t38 106.5q0 59 -36 97t-89 38q-49 0 -93 -23q-21 -12 -32 -22v-220h-150v560h-285v-560h-150z" />
    <glyph glyph-name="uni04A7" unicode="&#x4a7;" horiz-adv-x="855" 
d="M65 0v490h455v-250q14 8 30 12q35 13 75 13q92 0 151 -64.5t59 -170.5q0 -121 -64.5 -185.5t-185.5 -64.5v130q50 0 80 32t30 88q0 48 -26 76.5t-69 28.5q-27 0 -59 -15q-12 -8 -21 -15v-105h-135v365h-185v-365h-135z" />
    <glyph glyph-name="uni04A8" unicode="&#x4a8;" horiz-adv-x="910" 
d="M430 110l5 5q-31 28 -55 67q-55 86 -55 198q0 133 70 209t185 76q109 0 182 -77t73 -208q0 -110 -58 -198q-25 -38 -57 -67l5 -5q45 4 91 29q19 10 39 26l75 -115q-20 -19 -50 -33q-66 -32 -150 -32q-66 0 -113 17q-22 7 -37 18q-20 -10 -47 -18q-55 -17 -118 -17
q-158 0 -261.5 104.5t-103.5 265.5q0 151 91 249.5t229 110.5v-125q-69 -9 -119.5 -72.5t-50.5 -162.5q0 -102 66.5 -169t163.5 -76zM580 155q31 20 52 49q53 69 53 176q0 72 -30 111t-75 39t-75 -39t-30 -111q0 -109 52 -176q21 -30 53 -49z" />
    <glyph glyph-name="uni04A9" unicode="&#x4a9;" horiz-adv-x="710" 
d="M300 90l5 5q-16 16 -28 41q-27 49 -27 124q0 89 53.5 144.5t136.5 55.5t136.5 -55.5t53.5 -144.5q0 -74 -28 -124q-11 -23 -27 -41l5 -5q38 6 74 29q17 12 26 21l70 -85q-17 -20 -42 -35q-52 -35 -128 -35q-59 0 -104 15q-21 6 -36 15q-18 -10 -35 -15q-43 -15 -95 -15
q-119 0 -197 76t-78 189q0 97 66.5 167t158.5 80v-107q-34 -9 -62 -47t-28 -93q0 -66 35.5 -107t94.5 -53zM440 130q14 14 27 35q28 43 28 95q0 37 -15.5 56t-39.5 19t-39.5 -19t-15.5 -56q0 -54 27 -95q13 -22 28 -35z" />
    <glyph glyph-name="uni04AA" unicode="&#x4aa;" horiz-adv-x="745" 
d="M335 -140v135q-128 30 -209 129t-81 226q0 151 109.5 258t270.5 107q123 0 221 -70q42 -30 74 -70l-100 -100q-20 26 -51 50q-66 50 -144 50q-94 0 -159.5 -65.5t-65.5 -159.5t65.5 -159.5t159.5 -65.5q79 0 149 50q32 24 51 50l100 -100q-24 -30 -60 -58
q-80 -62 -180 -77v-130h-150z" />
    <glyph glyph-name="uni04AB" unicode="&#x4ab;" horiz-adv-x="520" 
d="M220 -110v110q-76 19 -130.5 86t-54.5 159q0 105 76 180t184 75q85 0 155 -50q32 -24 50 -50l-85 -85q-13 16 -32 30q-42 30 -88 30q-53 0 -89 -37t-36 -93t36 -93t89 -37q46 0 88 30q19 14 32 30l85 -85q-16 -22 -37 -40q-46 -41 -108 -55v-105h-135z" />
    <glyph glyph-name="uni04AC" unicode="&#x4ac;" horiz-adv-x="590" 
d="M305 -140v140h-85v560h-200v140h550v-140h-200v-420h85v-280h-150z" />
    <glyph glyph-name="uni04AD" unicode="&#x4ad;" horiz-adv-x="475" 
d="M235 -110v110h-65v365h-155v125h445v-125h-155v-240h65v-235h-135z" />
    <glyph glyph-name="uni04AE" unicode="&#x4ae;" horiz-adv-x="670" 
d="M260 0v250l-265 450h175l163 -300h4l163 300h175l-265 -450v-250h-150z" />
    <glyph glyph-name="uni04AF" unicode="&#x4af;" horiz-adv-x="515" 
d="M190 -210v200l-195 500h145l115 -330h5l115 330h145l-195 -500v-200h-135z" />
    <glyph glyph-name="uni04B0" unicode="&#x4b0;" horiz-adv-x="670" 
d="M260 0v160h-155v120h140l-250 420h175l163 -300h4l163 300h175l-250 -420h140v-120h-155v-160h-150z" />
    <glyph glyph-name="uni04B1" unicode="&#x4b1;" horiz-adv-x="515" 
d="M80 -110v110h105l-190 490h145l115 -330h5l115 330h145l-190 -490h105v-110h-110v-100h-135v100h-110z" />
    <glyph glyph-name="uni04B2" unicode="&#x4b2;" horiz-adv-x="680" 
d="M0 0l240 365l-220 335h175l143 -230h4l143 230h175l-220 -335l145 -225h105v-280h-150v140h-35l-163 260h-4l-163 -260h-175z" />
    <glyph glyph-name="uni04B3" unicode="&#x4b3;" horiz-adv-x="520" 
d="M-5 0l175 250l-165 240h155l93 -150h4l93 150h155l-165 -240l90 -125h95v-235h-135v110h-30l-103 160h-4l-103 -160h-155z" />
    <glyph glyph-name="uni04B4" unicode="&#x4b4;" horiz-adv-x="910" 
d="M220 0v560h-200v140h520v-140h-170v-420h285v560h150v-560h85v-280h-150v140h-520z" />
    <glyph glyph-name="uni04B5" unicode="&#x4b5;" horiz-adv-x="710" 
d="M170 0v365h-155v125h395v-125h-105v-240h185v365h135v-365h65v-235h-135v110h-385z" />
    <glyph glyph-name="uni04B6" unicode="&#x4b6;" horiz-adv-x="740" 
d="M580 -140v140h-85v255q-22 -12 -45 -20q-53 -20 -120 -20q-114 0 -182 73t-68 202v210h150v-210q0 -135 130 -135q50 0 98 22q23 11 37 23v300h150v-560h85v-280h-150z" />
    <glyph glyph-name="uni04B7" unicode="&#x4b7;" horiz-adv-x="575" 
d="M420 -110v110h-65v160q-14 -9 -31 -15q-38 -15 -84 -15q-83 0 -134 53t-51 142v165h135v-155q0 -38 21 -59t59 -21q37 0 63 12q8 3 22 13v210h135v-365h65v-235h-135z" />
    <glyph glyph-name="uni04B8" unicode="&#x4b8;" horiz-adv-x="735" 
d="M300 110v106q0 -1 -12 0.5t-31.5 7t-43 16t-47 31t-43 48.5t-31.5 72.5t-12 98.5v210h150v-210q0 -67 35 -102q13 -15 35 -23v115h120v-115q31 7 54 21q7 4 21 14v300h150v-700h-150v255q-14 -8 -21 -11q-26 -14 -54 -20v-114h-120z" />
    <glyph glyph-name="uni04B9" unicode="&#x4b9;" horiz-adv-x="555" 
d="M230 60v70q-80 4 -127.5 55t-47.5 140v165h135v-155q0 -40 20 -60q9 -10 20 -15v70h90v-70q8 2 25 12l10 8v210h135v-490h-135v160l-10 -6q-14 -6 -25 -9v-85h-90z" />
    <glyph glyph-name="uni04BA" unicode="&#x4ba;" horiz-adv-x="725" 
d="M90 0v700h150v-255q22 12 45 20q53 20 120 20q114 0 182 -73t68 -202v-210h-150v210q0 135 -130 135q-48 0 -98 -23q-22 -11 -37 -22v-300h-150z" />
    <glyph glyph-name="uni04BB" unicode="&#x4bb;" horiz-adv-x="600" 
d="M70 0v700h135v-280h5q16 22 37 40q48 40 108 40q77 0 128.5 -56.5t51.5 -148.5v-295h-135v275q0 45 -24 70t-66 25q-45 0 -75 -31t-30 -79v-260h-135z" />
    <glyph glyph-name="uni04BC" unicode="&#x4bc;" horiz-adv-x="925" 
d="M180 300h-10q-84 0 -132 42t-48 108q0 27 5 45q1 7 5 15h115l-3 -13q-2 -16 -2 -27q0 -50 60 -50h10q22 131 120 213t230 82q151 0 253 -104t102 -261q0 -19 -2 -41q-1 -7 -1 -19h-547q15 -71 70.5 -118t134.5 -47q78 0 144 40q30 19 51 40l90 -105q-34 -34 -75 -58
q-96 -57 -210 -57q-146 0 -247 89.5t-113 225.5zM340 420h380q-13 63 -65 109t-125 46t-125 -46t-65 -109z" />
    <glyph glyph-name="uni04BD" unicode="&#x4bd;" horiz-adv-x="665" 
d="M5 350h85v-20q0 -19 9.5 -27t35.5 -8q18 88 88 146.5t162 58.5q101 0 173 -72t72 -173q0 -10 -3 -43l-2 -17h-355q12 -37 44.5 -61t85.5 -24q56 0 97 27q20 13 33 28l70 -95q-21 -21 -54 -40q-72 -40 -156 -40q-97 0 -169 59.5t-86 150.5q-67 0 -101 30.5t-34 84.5
q0 12 2 26zM270 295h220q-12 36 -41 60.5t-69 24.5t-69 -24.5t-41 -60.5z" />
    <glyph glyph-name="uni04BE" unicode="&#x4be;" horiz-adv-x="925" 
d="M455 -140v135q-118 26 -190.5 108t-84.5 197h-10q-84 0 -132 42t-48 108q0 27 5 45q1 7 5 15h115l-3 -13q-2 -16 -2 -27q0 -50 60 -50h10q22 131 120 213t230 82q151 0 253 -104t102 -261q0 -19 -2 -41q-1 -7 -1 -19h-547q15 -71 70.5 -118t134.5 -47q78 0 144 40
q30 19 51 40l90 -105q-24 -24 -59 -48q-75 -48 -161 -62v-130h-150zM340 420h380q-13 63 -65 109t-125 46t-125 -46t-65 -109z" />
    <glyph glyph-name="uni04BF" unicode="&#x4bf;" horiz-adv-x="665" 
d="M315 -110v110q-71 18 -119.5 73t-60.5 127q-67 0 -101 30.5t-34 84.5q0 12 2 26l3 9h85v-20q0 -19 9.5 -27t35.5 -8q18 88 88 146.5t162 58.5q101 0 173 -72t72 -173q0 -10 -3 -43l-2 -17h-355q12 -37 44.5 -61t85.5 -24q56 0 97 27q20 13 33 28l70 -95q-16 -16 -39 -30
q-53 -31 -111 -45v-105h-135zM270 295h220q-12 36 -41 60.5t-69 24.5t-69 -24.5t-41 -60.5z" />
    <glyph glyph-name="uni04C0" unicode="&#x4c0;" horiz-adv-x="330" 
d="M90 0v700h150v-700h-150z" />
    <glyph glyph-name="uni04C1" unicode="&#x4c1;" horiz-adv-x="1020" 
d="M-10 0l280 410l-260 290h180l245 -275v275h150v-275l245 275h180l-260 -290l280 -410h-175l-205 300l-65 -70v-230h-150v230l-65 70l-205 -300h-175zM350 940h100q0 -26 17 -43t43 -17t43 17t17 43h100q0 -69 -44 -112t-116 -43t-116 43t-44 112z" />
    <glyph glyph-name="uni04C2" unicode="&#x4c2;" horiz-adv-x="785" 
d="M-5 0l190 285l-180 205h160l160 -185v185h135v-185l160 185h160l-180 -205l190 -285h-155l-125 190l-50 -55v-135h-135v135l-50 55l-125 -190h-155zM235 705h100q0 -26 17 -43t43 -17t43 17t17 43h100q0 -65 -44.5 -107.5t-115.5 -42.5t-115.5 42.5t-44.5 107.5z" />
    <glyph glyph-name="uni04C3" unicode="&#x4c3;" horiz-adv-x="730" 
d="M90 0v700h150v-300l270 300h180l-265 -295q122 0 198.5 -82.5t76.5 -222.5q0 -142 -88 -231t-227 -89v145q70 0 112.5 46.5t42.5 128.5q0 81 -39 125.5t-101 44.5q-67 0 -121 -40q-23 -19 -39 -40v-190h-150z" />
    <glyph glyph-name="uni04C4" unicode="&#x4c4;" horiz-adv-x="570" 
d="M65 0v490h135v-200l175 200h160l-190 -215q93 -12 146.5 -73t53.5 -167q0 -120 -66.5 -187.5t-183.5 -67.5v130q50 0 80 33t30 92t-30 92t-80 33q-41 0 -70 -20q-15 -10 -25 -20v-120h-135z" />
    <glyph glyph-name="uni04C5" unicode="&#x4c5;" horiz-adv-x="770" 
d="M0 0v145q9 -4 16 -5q17 -5 34 -5q29 0 48.5 13t37 48.5t26 106t8.5 177.5v220h505v-560h105v-20l-105 -260h-110l40 140h-80v560h-205v-80q0 -144 -17 -243.5t-50 -153t-73.5 -76t-94.5 -22.5q-35 0 -61 7z" />
    <glyph glyph-name="uni04C6" unicode="&#x4c6;" horiz-adv-x="585" 
d="M0 0v125l12 -3q14 -2 23 -2q28 0 43.5 15t26 67t10.5 148v140h400v-360h80v-20l-90 -220h-100l30 110h-55v365h-130v-15q0 -365 -180 -365q-31 0 -52 7q-16 7 -18 8z" />
    <glyph glyph-name="uni04C7" unicode="&#x4c7;" horiz-adv-x="780" 
d="M90 0v700h150v-275h300v275h150v-740q0 -86 -44 -133t-121 -47q-43 0 -73 7q-23 6 -27 8v135q9 -4 16 -5q17 -5 34 -5q30 0 47.5 18.5t17.5 51.5v295h-300v-285h-150z" />
    <glyph glyph-name="uni04C8" unicode="&#x4c8;" horiz-adv-x="585" 
d="M65 0v490h135v-180h185v180h135v-540q0 -82 -41 -126t-114 -44q-31 0 -57 7q-3 1 -11 3.5t-12 4.5v125q8 -4 13 -5q15 -5 32 -5q55 0 55 60v215h-185v-185h-135z" />
    <glyph glyph-name="uni04C9" unicode="&#x4c9;" horiz-adv-x="785" 
d="M90 0v700h150v-275h300v275h150v-560h105v-20l-105 -260h-110l40 140h-80v285h-300v-285h-150z" />
    <glyph glyph-name="uni04CA" unicode="&#x4ca;" horiz-adv-x="590" 
d="M65 0v490h135v-180h185v180h135v-360h80v-20l-90 -220h-100l30 110h-55v185h-185v-185h-135z" />
    <glyph glyph-name="uni04CB" unicode="&#x4cb;" horiz-adv-x="735" 
d="M410 -140v280h85v115q-22 -12 -45 -20q-53 -20 -120 -20q-114 0 -182 73t-68 202v210h150v-210q0 -135 130 -135q50 0 98 22q23 11 37 23v300h150v-700h-85v-140h-150z" />
    <glyph glyph-name="uni04CC" unicode="&#x4cc;" horiz-adv-x="555" 
d="M290 -110v190h65v80q-14 -9 -31 -15q-38 -15 -84 -15q-83 0 -134 53t-51 142v165h135v-155q0 -38 21 -59t59 -21q37 0 63 12q8 3 22 13v210h135v-490h-65v-110h-135z" />
    <glyph glyph-name="uni04CD" unicode="&#x4cd;" horiz-adv-x="935" 
d="M90 0v700h135l240 -300l240 300h135v-560h105v-20l-105 -260h-110l40 140h-80v460l-225 -280l-225 280v-460h-150z" />
    <glyph glyph-name="uni04CE" unicode="&#x4ce;" horiz-adv-x="665" 
d="M65 0v490h120l145 -185l145 185h120v-360h80v-20l-90 -220h-100l30 110h-55v285l-130 -165l-130 165v-285h-135z" />
    <glyph glyph-name="uni04CF" unicode="&#x4cf;" horiz-adv-x="275" 
d="M70 0v700h135v-700h-135z" />
    <glyph glyph-name="uni04D0" unicode="&#x4d0;" horiz-adv-x="720" 
d="M275 295h170l-83 230h-4zM5 0l270 700h170l270 -700h-160l-60 160h-270l-60 -160h-160zM200 940h100q0 -26 17 -43t43 -17t43 17t17 43h100q0 -69 -44 -112t-116 -43t-116 43t-44 112z" />
    <glyph glyph-name="uni04D1" unicode="&#x4d1;" horiz-adv-x="540" 
d="M340 0v60h-5q-18 -22 -37 -35q-44 -35 -108 -35q-67 0 -108.5 39.5t-41.5 100.5q0 60 38.5 102.5t106.5 54.5l155 28q-4 28 -26 46.5t-59 18.5q-46 0 -81 -28q-18 -13 -29 -27l-80 80q22 27 51 47q70 48 149 48q92 0 151 -56t59 -139v-305h-135zM340 210v10l-110 -20
q-55 -11 -55 -50q0 -50 60 -50q45 0 75 31t30 79zM120 705h100q0 -26 17 -43t43 -17t43 17t17 43h100q0 -65 -44.5 -107.5t-115.5 -42.5t-115.5 42.5t-44.5 107.5z" />
    <glyph glyph-name="uni04D2" unicode="&#x4d2;" horiz-adv-x="720" 
d="M275 295h170l-83 230h-4zM5 0l270 700h170l270 -700h-160l-60 160h-270l-60 -160h-160zM175 855q0 30 22.5 52.5t52.5 22.5t52.5 -22.5t22.5 -52.5t-22.5 -52.5t-52.5 -22.5t-52.5 22.5t-22.5 52.5zM395 855q0 30 22.5 52.5t52.5 22.5t52.5 -22.5t22.5 -52.5t-22.5 -52.5
t-52.5 -22.5t-52.5 22.5t-22.5 52.5z" />
    <glyph glyph-name="uni04D3" unicode="&#x4d3;" horiz-adv-x="540" 
d="M340 0v60h-5q-18 -22 -37 -35q-44 -35 -108 -35q-67 0 -108.5 39.5t-41.5 100.5q0 60 38.5 102.5t106.5 54.5l155 28q-4 28 -26 46.5t-59 18.5q-46 0 -81 -28q-18 -13 -29 -27l-80 80q22 27 51 47q70 48 149 48q92 0 151 -56t59 -139v-305h-135zM340 210v10l-110 -20
q-55 -11 -55 -50q0 -50 60 -50q45 0 75 31t30 79zM95 630q0 30 22.5 52.5t52.5 22.5t52.5 -22.5t22.5 -52.5t-22.5 -52.5t-52.5 -22.5t-52.5 22.5t-22.5 52.5zM315 630q0 30 22.5 52.5t52.5 22.5t52.5 -22.5t22.5 -52.5t-22.5 -52.5t-52.5 -22.5t-52.5 22.5t-22.5 52.5z" />
    <glyph glyph-name="uni04D6" unicode="&#x4d6;" horiz-adv-x="665" 
d="M195 935h100q0 -26 17 -43t43 -17t43 17t17 43h100q0 -69 -44 -112t-116 -43t-116 43t-44 112zM90 0v700h520v-140h-370v-135h290v-135h-290v-150h380v-140h-530z" />
    <glyph glyph-name="uni04D7" unicode="&#x4d7;" horiz-adv-x="570" 
d="M435 165l70 -95q-21 -21 -54 -40q-72 -40 -156 -40q-108 0 -184 75t-76 180t75 180t180 75q101 0 173 -72t72 -173q0 -10 -3 -43l-2 -17h-355q12 -37 44.5 -61t85.5 -24q56 0 97 27q20 13 33 28zM175 295h220q-12 36 -41 60.5t-69 24.5t-69 -24.5t-41 -60.5zM125 705h100
q0 -26 17 -43t43 -17t43 17t17 43h100q0 -65 -44.5 -107.5t-115.5 -42.5t-115.5 42.5t-44.5 107.5z" />
    <glyph glyph-name="uni04D8" unicode="&#x4d8;" horiz-adv-x="795" 
d="M43 410h547q-17 72 -71.5 118.5t-133.5 46.5q-78 0 -144 -40q-30 -19 -51 -40l-90 105q32 32 75 57q98 58 210 58q158 0 261.5 -103.5t103.5 -261.5q0 -157 -102 -261t-253 -104t-253 104t-102 261q0 30 1 41zM585 280h-380q13 -63 65 -109t125 -46t125 46t65 109z" />
    <glyph glyph-name="uni04D9" unicode="&#x4d9;" horiz-adv-x="565" 
d="M35 295h355q-12 37 -44.5 61t-85.5 24q-54 0 -97 -28q-19 -12 -33 -27l-70 95q21 21 54 40q72 40 156 40q108 0 184 -75t76 -180t-75 -180t-180 -75q-101 0 -173 72t-72 173q0 21 2 43zM390 195h-220q12 -36 41 -60.5t69 -24.5t69 24.5t41 60.5z" />
    <glyph glyph-name="uni04DA" unicode="&#x4da;" horiz-adv-x="795" 
d="M43 410h547q-17 72 -71.5 118.5t-133.5 46.5q-78 0 -144 -40q-30 -19 -51 -40l-90 105q32 32 75 57q98 58 210 58q158 0 261.5 -103.5t103.5 -261.5q0 -157 -102 -261t-253 -104t-253 104t-102 261q0 30 1 41zM585 280h-380q13 -63 65 -109t125 -46t125 46t65 109z
M220 855q0 30 22.5 52.5t52.5 22.5t52.5 -22.5t22.5 -52.5t-22.5 -52.5t-52.5 -22.5t-52.5 22.5t-22.5 52.5zM440 855q0 30 22.5 52.5t52.5 22.5t52.5 -22.5t22.5 -52.5t-22.5 -52.5t-52.5 -22.5t-52.5 22.5t-22.5 52.5z" />
    <glyph glyph-name="uni04DB" unicode="&#x4db;" horiz-adv-x="565" 
d="M35 295h355q-12 37 -44.5 61t-85.5 24q-54 0 -97 -28q-19 -12 -33 -27l-70 95q21 21 54 40q72 40 156 40q108 0 184 -75t76 -180t-75 -180t-180 -75q-101 0 -173 72t-72 173q0 21 2 43zM390 195h-220q12 -36 41 -60.5t69 -24.5t69 24.5t41 60.5zM95 630q0 30 22.5 52.5
t52.5 22.5t52.5 -22.5t22.5 -52.5t-22.5 -52.5t-52.5 -22.5t-52.5 22.5t-22.5 52.5zM315 630q0 30 22.5 52.5t52.5 22.5t52.5 -22.5t22.5 -52.5t-22.5 -52.5t-52.5 -22.5t-52.5 22.5t-22.5 52.5z" />
    <glyph glyph-name="uni04DC" unicode="&#x4dc;" horiz-adv-x="1020" 
d="M-10 0l280 410l-260 290h180l245 -275v275h150v-275l245 275h180l-260 -290l280 -410h-175l-205 300l-65 -70v-230h-150v230l-65 70l-205 -300h-175zM325 855q0 30 22.5 52.5t52.5 22.5t52.5 -22.5t22.5 -52.5t-22.5 -52.5t-52.5 -22.5t-52.5 22.5t-22.5 52.5zM545 855
q0 30 22.5 52.5t52.5 22.5t52.5 -22.5t22.5 -52.5t-22.5 -52.5t-52.5 -22.5t-52.5 22.5t-22.5 52.5z" />
    <glyph glyph-name="uni04DD" unicode="&#x4dd;" horiz-adv-x="785" 
d="M-5 0l190 285l-180 205h160l160 -185v185h135v-185l160 185h160l-180 -205l190 -285h-155l-125 190l-50 -55v-135h-135v135l-50 55l-125 -190h-155zM210 630q0 30 22.5 52.5t52.5 22.5t52.5 -22.5t22.5 -52.5t-22.5 -52.5t-52.5 -22.5t-52.5 22.5t-22.5 52.5zM430 630
q0 30 22.5 52.5t52.5 22.5t52.5 -22.5t22.5 -52.5t-22.5 -52.5t-52.5 -22.5t-52.5 22.5t-22.5 52.5z" />
    <glyph glyph-name="uni04DE" unicode="&#x4de;" horiz-adv-x="615" 
d="M15 100l100 100q18 -22 43 -40q56 -40 122 -40q67 0 101 24t34 61q0 36 -32 60.5t-93 24.5h-95v130h85q55 0 82.5 22t27.5 58t-27.5 58t-82.5 22q-53 0 -102 -35q-25 -20 -38 -35l-100 100q27 31 63 52q84 53 187 53q115 0 185 -58t70 -137q0 -74 -58 -120
q-25 -20 -57 -30q37 -11 70 -35q70 -54 70 -140q0 -87 -75.5 -148.5t-204.5 -61.5q-115 0 -207 57q-36 23 -68 58zM115 855q0 30 22.5 52.5t52.5 22.5t52.5 -22.5t22.5 -52.5t-22.5 -52.5t-52.5 -22.5t-52.5 22.5t-22.5 52.5zM335 855q0 30 22.5 52.5t52.5 22.5t52.5 -22.5
t22.5 -52.5t-22.5 -52.5t-52.5 -22.5t-52.5 22.5t-22.5 52.5z" />
    <glyph glyph-name="uni04DF" unicode="&#x4df;" horiz-adv-x="465" 
d="M10 80l75 80q14 -14 37 -28q41 -27 93 -27q70 0 70 45t-70 45h-60v110h60q28 0 44 12t16 28t-16 28t-44 12q-44 0 -82 -20q-15 -8 -33 -20l-75 80q24 22 51 37q70 38 149 38q89 0 142 -42t53 -98q0 -53 -48 -87q-22 -16 -47 -23q31 -8 52 -22q53 -33 53 -93t-54.5 -102.5
t-150.5 -42.5q-90 0 -160 45q-34 21 -55 45zM50 630q0 30 22.5 52.5t52.5 22.5t52.5 -22.5t22.5 -52.5t-22.5 -52.5t-52.5 -22.5t-52.5 22.5t-22.5 52.5zM270 630q0 30 22.5 52.5t52.5 22.5t52.5 -22.5t22.5 -52.5t-22.5 -52.5t-52.5 -22.5t-52.5 22.5t-22.5 52.5z" />
    <glyph glyph-name="uni04E0" unicode="&#x4e0;" horiz-adv-x="610" 
d="M15 100l100 100q18 -22 43 -40q56 -40 122 -40q68 0 101.5 25.5t33.5 69.5t-33.5 69.5t-101.5 25.5h-115v95l190 155h-300v140h490v-135l-170 -140q88 -12 141.5 -69t53.5 -146q0 -97 -74.5 -161t-205.5 -64q-115 0 -207 57q-36 23 -68 58z" />
    <glyph glyph-name="uni04E1" unicode="&#x4e1;" horiz-adv-x="510" 
d="M5 -120l85 90q15 -15 36 -28q41 -27 99 -27q52 0 81 26t29 69t-29 69t-81 26h-105v85l165 170h-245v130h405v-119l-155 -156q85 -15 135 -69t50 -136q0 -95 -68 -157.5t-182 -62.5q-96 0 -166 45q-31 19 -54 45z" />
    <glyph glyph-name="uni04E2" unicode="&#x4e2;" horiz-adv-x="805" 
d="M90 0v700h150v-450l340 450h135v-700h-150v450l-340 -450h-135zM240 810v100h320v-100h-320z" />
    <glyph glyph-name="uni04E3" unicode="&#x4e3;" horiz-adv-x="595" 
d="M65 0v490h135v-280l210 280h120v-490h-135v280l-210 -280h-120zM140 590v100h320v-100h-320z" />
    <glyph glyph-name="uni04E4" unicode="&#x4e4;" horiz-adv-x="805" 
d="M90 0v700h150v-450l340 450h135v-700h-150v450l-340 -450h-135zM215 855q0 30 22.5 52.5t52.5 22.5t52.5 -22.5t22.5 -52.5t-22.5 -52.5t-52.5 -22.5t-52.5 22.5t-22.5 52.5zM435 855q0 30 22.5 52.5t52.5 22.5t52.5 -22.5t22.5 -52.5t-22.5 -52.5t-52.5 -22.5
t-52.5 22.5t-22.5 52.5z" />
    <glyph glyph-name="uni04E5" unicode="&#x4e5;" horiz-adv-x="595" 
d="M65 0v490h135v-280l210 280h120v-490h-135v280l-210 -280h-120zM115 630q0 30 22.5 52.5t52.5 22.5t52.5 -22.5t22.5 -52.5t-22.5 -52.5t-52.5 -22.5t-52.5 22.5t-22.5 52.5zM335 630q0 30 22.5 52.5t52.5 22.5t52.5 -22.5t22.5 -52.5t-22.5 -52.5t-52.5 -22.5
t-52.5 22.5t-22.5 52.5z" />
    <glyph glyph-name="uni04E6" unicode="&#x4e6;" horiz-adv-x="850" 
d="M200 350q0 -94 65.5 -159.5t159.5 -65.5t159.5 65.5t65.5 159.5t-65.5 159.5t-159.5 65.5t-159.5 -65.5t-65.5 -159.5zM45 350q0 151 109.5 258t270.5 107t270.5 -107t109.5 -258t-109.5 -258t-270.5 -107t-270.5 107t-109.5 258zM240 855q0 30 22.5 52.5t52.5 22.5
t52.5 -22.5t22.5 -52.5t-22.5 -52.5t-52.5 -22.5t-52.5 22.5t-22.5 52.5zM460 855q0 30 22.5 52.5t52.5 22.5t52.5 -22.5t22.5 -52.5t-22.5 -52.5t-52.5 -22.5t-52.5 22.5t-22.5 52.5z" />
    <glyph glyph-name="uni04E7" unicode="&#x4e7;" horiz-adv-x="590" 
d="M295 115q53 0 89 37t36 93t-36 93t-89 37t-89 -37t-36 -93t36 -93t89 -37zM35 245q0 105 76 180t184 75t184 -75t76 -180t-76 -180t-184 -75t-184 75t-76 180zM110 630q0 30 22.5 52.5t52.5 22.5t52.5 -22.5t22.5 -52.5t-22.5 -52.5t-52.5 -22.5t-52.5 22.5t-22.5 52.5z
M330 630q0 30 22.5 52.5t52.5 22.5t52.5 -22.5t22.5 -52.5t-22.5 -52.5t-52.5 -22.5t-52.5 22.5t-22.5 52.5z" />
    <glyph glyph-name="uni04E8" unicode="&#x4e8;" horiz-adv-x="850" 
d="M640 290h-430q18 -72 78 -118.5t137 -46.5t137 46.5t78 118.5zM45 350q0 151 109.5 258t270.5 107t270.5 -107t109.5 -258t-109.5 -258t-270.5 -107t-270.5 107t-109.5 258zM210 410h430q-18 72 -78 118.5t-137 46.5t-137 -46.5t-78 -118.5z" />
    <glyph glyph-name="uni04E9" unicode="&#x4e9;" horiz-adv-x="590" 
d="M411 200h-232l1 -3q1 -3 3 -8t5 -11.5t8 -13t11.5 -13.5t15 -13.5t19 -11.5t24.5 -8t29 -3t28.5 3t24 8t19 11.5t15 13.5t11.5 13.5t8.5 13t5.5 11.5t3 8zM35 245q0 105 76 180t184 75t184 -75t76 -180t-76 -180t-184 -75t-184 75t-76 180zM179 290h232l-1 3q-1 3 -3 8
t-5.5 11.5t-8.5 13t-11.5 13.5t-15 13.5t-19 11.5t-24 8t-28.5 3t-29 -3t-24.5 -8t-19 -11.5t-15 -13.5t-11.5 -13.5t-8 -13t-5 -11.5t-3 -8z" />
    <glyph glyph-name="uni04EA" unicode="&#x4ea;" horiz-adv-x="850" 
d="M640 290h-430q18 -72 78 -118.5t137 -46.5t137 46.5t78 118.5zM45 350q0 151 109.5 258t270.5 107t270.5 -107t109.5 -258t-109.5 -258t-270.5 -107t-270.5 107t-109.5 258zM210 410h430q-18 72 -78 118.5t-137 46.5t-137 -46.5t-78 -118.5zM240 855q0 30 22.5 52.5
t52.5 22.5t52.5 -22.5t22.5 -52.5t-22.5 -52.5t-52.5 -22.5t-52.5 22.5t-22.5 52.5zM460 855q0 30 22.5 52.5t52.5 22.5t52.5 -22.5t22.5 -52.5t-22.5 -52.5t-52.5 -22.5t-52.5 22.5t-22.5 52.5z" />
    <glyph glyph-name="uni04EB" unicode="&#x4eb;" horiz-adv-x="590" 
d="M411 200h-232l1 -3q1 -3 3 -8t5 -11.5t8 -13t11.5 -13.5t15 -13.5t19 -11.5t24.5 -8t29 -3t28.5 3t24 8t19 11.5t15 13.5t11.5 13.5t8.5 13t5.5 11.5t3 8zM35 245q0 105 76 180t184 75t184 -75t76 -180t-76 -180t-184 -75t-184 75t-76 180zM179 290h232l-1 3q-1 3 -3 8
t-5.5 11.5t-8.5 13t-11.5 13.5t-15 13.5t-19 11.5t-24 8t-28.5 3t-29 -3t-24.5 -8t-19 -11.5t-15 -13.5t-11.5 -13.5t-8 -13t-5 -11.5t-3 -8zM110 630q0 30 22.5 52.5t52.5 22.5t52.5 -22.5t22.5 -52.5t-22.5 -52.5t-52.5 -22.5t-52.5 22.5t-22.5 52.5zM330 630
q0 30 22.5 52.5t52.5 22.5t52.5 -22.5t22.5 -52.5t-22.5 -52.5t-52.5 -22.5t-52.5 22.5t-22.5 52.5z" />
    <glyph glyph-name="uni04EC" unicode="&#x4ec;" horiz-adv-x="745" 
d="M20 125l100 100q19 -26 51 -50q70 -50 149 -50q81 0 138.5 46t76.5 114h-305v135h305q-19 65 -76.5 110t-138.5 45q-78 0 -144 -50q-31 -24 -51 -50l-100 100q32 40 74 70q98 70 221 70q161 0 270.5 -107t109.5 -258t-109.5 -258t-270.5 -107q-123 0 -225 70
q-44 32 -75 70zM175 855q0 30 22.5 52.5t52.5 22.5t52.5 -22.5t22.5 -52.5t-22.5 -52.5t-52.5 -22.5t-52.5 22.5t-22.5 52.5zM395 855q0 30 22.5 52.5t52.5 22.5t52.5 -22.5t22.5 -52.5t-22.5 -52.5t-52.5 -22.5t-52.5 22.5t-22.5 52.5z" />
    <glyph glyph-name="uni04ED" unicode="&#x4ed;" horiz-adv-x="520" 
d="M20 90l80 80q13 -16 32 -30q42 -30 93 -30q53 0 91 40q15 18 24 40h-185v110h185q-9 22 -24 40q-38 40 -91 40q-51 0 -93 -30q-19 -14 -32 -30l-80 80q18 26 50 50q70 50 155 50q108 0 184 -75t76 -180t-76 -180t-184 -75q-85 0 -155 50q-32 24 -50 50zM65 630
q0 30 22.5 52.5t52.5 22.5t52.5 -22.5t22.5 -52.5t-22.5 -52.5t-52.5 -22.5t-52.5 22.5t-22.5 52.5zM285 630q0 30 22.5 52.5t52.5 22.5t52.5 -22.5t22.5 -52.5t-22.5 -52.5t-52.5 -22.5t-52.5 22.5t-22.5 52.5z" />
    <glyph glyph-name="uni04EE" unicode="&#x4ee;" horiz-adv-x="645" 
d="M75 5v135q10 -4 17 -5q20 -5 48 -5q72 0 110 75l10 20l-260 475h175l165 -331l140 331h175l-260 -545q-78 -165 -235 -165q-35 0 -61 7q-3 1 -8 2.5t-9 3t-7 2.5zM170 810v100h320v-100h-320z" />
    <glyph glyph-name="uni04EF" unicode="&#x4ef;" horiz-adv-x="510" 
d="M35 -195v125q10 -4 16 -5q18 -5 39 -5q59 0 85 60l10 25l-190 485h145l115 -325h5l110 325h145l-200 -530q-32 -85 -77.5 -127.5t-112.5 -42.5q-36 0 -64 7q-4 1 -13 3.5t-13 4.5zM95 590v100h320v-100h-320z" />
    <glyph glyph-name="uni04F0" unicode="&#x4f0;" horiz-adv-x="645" 
d="M75 5v135q10 -4 17 -5q20 -5 48 -5q72 0 110 75l10 20l-260 475h175l165 -331l140 331h175l-260 -545q-78 -165 -235 -165q-35 0 -61 7q-3 1 -8 2.5t-9 3t-7 2.5zM145 855q0 30 22.5 52.5t52.5 22.5t52.5 -22.5t22.5 -52.5t-22.5 -52.5t-52.5 -22.5t-52.5 22.5
t-22.5 52.5zM365 855q0 30 22.5 52.5t52.5 22.5t52.5 -22.5t22.5 -52.5t-22.5 -52.5t-52.5 -22.5t-52.5 22.5t-22.5 52.5z" />
    <glyph glyph-name="uni04F1" unicode="&#x4f1;" horiz-adv-x="510" 
d="M35 -195v125q10 -4 16 -5q18 -5 39 -5q59 0 85 60l10 25l-190 485h145l115 -325h5l110 325h145l-200 -530q-32 -85 -77.5 -127.5t-112.5 -42.5q-36 0 -64 7q-4 1 -13 3.5t-13 4.5zM70 630q0 30 22.5 52.5t52.5 22.5t52.5 -22.5t22.5 -52.5t-22.5 -52.5t-52.5 -22.5
t-52.5 22.5t-22.5 52.5zM290 630q0 30 22.5 52.5t52.5 22.5t52.5 -22.5t22.5 -52.5t-22.5 -52.5t-52.5 -22.5t-52.5 22.5t-22.5 52.5z" />
    <glyph glyph-name="uni04F2" unicode="&#x4f2;" horiz-adv-x="645" 
d="M75 5v135q10 -4 17 -5q20 -5 48 -5q72 0 110 75l10 20l-260 475h175l165 -331l140 331h175l-260 -545q-78 -165 -235 -165q-35 0 -61 7q-3 1 -8 2.5t-9 3t-7 2.5zM180 785l80 150h135l-115 -150h-100zM370 785l80 150h135l-115 -150h-100z" />
    <glyph glyph-name="uni04F3" unicode="&#x4f3;" horiz-adv-x="510" 
d="M35 -195v125q10 -4 16 -5q18 -5 39 -5q59 0 85 60l10 25l-190 485h145l115 -325h5l110 325h145l-200 -530q-32 -85 -77.5 -127.5t-112.5 -42.5q-36 0 -64 7q-4 1 -13 3.5t-13 4.5zM110 555l80 150h135l-115 -150h-100zM300 555l80 150h135l-115 -150h-100z" />
    <glyph glyph-name="uni04F4" unicode="&#x4f4;" horiz-adv-x="735" 
d="M495 0v255q-22 -12 -45 -20q-53 -20 -120 -20q-114 0 -182 73t-68 202v210h150v-210q0 -135 130 -135q50 0 98 22q23 11 37 23v300h150v-700h-150zM180 855q0 30 22.5 52.5t52.5 22.5t52.5 -22.5t22.5 -52.5t-22.5 -52.5t-52.5 -22.5t-52.5 22.5t-22.5 52.5zM400 855
q0 30 22.5 52.5t52.5 22.5t52.5 -22.5t22.5 -52.5t-22.5 -52.5t-52.5 -22.5t-52.5 22.5t-22.5 52.5z" />
    <glyph glyph-name="uni04F5" unicode="&#x4f5;" horiz-adv-x="555" 
d="M355 0v160q-14 -9 -31 -15q-38 -15 -84 -15q-83 0 -134 53t-51 142v165h135v-155q0 -38 21 -59t59 -21q37 0 63 12q8 3 22 13v210h135v-490h-135zM90 630q0 30 22.5 52.5t52.5 22.5t52.5 -22.5t22.5 -52.5t-22.5 -52.5t-52.5 -22.5t-52.5 22.5t-22.5 52.5zM310 630
q0 30 22.5 52.5t52.5 22.5t52.5 -22.5t22.5 -52.5t-22.5 -52.5t-52.5 -22.5t-52.5 22.5t-22.5 52.5z" />
    <glyph glyph-name="uni04F6" unicode="&#x4f6;" horiz-adv-x="585" 
d="M175 -140v140h-85v700h475v-140h-325v-420h85v-280h-150z" />
    <glyph glyph-name="uni04F7" unicode="&#x4f7;" horiz-adv-x="440" 
d="M130 -110v110h-65v490h360v-125h-225v-240h65v-235h-135z" />
    <glyph glyph-name="uni04F8" unicode="&#x4f8;" horiz-adv-x="945" 
d="M705 0v700h150v-700h-150zM90 0v700h150v-230h135q111 0 180.5 -66t69.5 -169t-69.5 -169t-180.5 -66h-285zM240 140h130q45 0 72.5 26.5t27.5 68.5t-27.5 68.5t-72.5 26.5h-130v-190zM290 855q0 30 22.5 52.5t52.5 22.5t52.5 -22.5t22.5 -52.5t-22.5 -52.5t-52.5 -22.5
t-52.5 22.5t-22.5 52.5zM510 855q0 30 22.5 52.5t52.5 22.5t52.5 -22.5t22.5 -52.5t-22.5 -52.5t-52.5 -22.5t-52.5 22.5t-22.5 52.5z" />
    <glyph glyph-name="uni04F9" unicode="&#x4f9;" horiz-adv-x="735" 
d="M535 0v490h135v-490h-135zM200 120h80q26 0 40.5 13.5t14.5 36.5t-14.5 36.5t-40.5 13.5h-80v-100zM65 0v490h135v-150h90q81 0 133 -48.5t52 -121.5t-52 -121.5t-133 -48.5h-225zM180 630q0 30 22.5 52.5t52.5 22.5t52.5 -22.5t22.5 -52.5t-22.5 -52.5t-52.5 -22.5
t-52.5 22.5t-22.5 52.5zM400 630q0 30 22.5 52.5t52.5 22.5t52.5 -22.5t22.5 -52.5t-22.5 -52.5t-52.5 -22.5t-52.5 22.5t-22.5 52.5z" />
    <glyph glyph-name="uni04FA" unicode="&#x4fa;" horiz-adv-x="600" 
d="M95 -215v125q6 -4 11 -5q13 -5 34 -5q23 0 36.5 14.5t13.5 40.5v45h-85v270h-95v140h95v290h475v-140h-325v-150h180v-140h-180v-130h85v-200q0 -82 -41 -126t-114 -44q-36 0 -64 7q-4 1 -13 3.5t-13 4.5z" />
    <glyph glyph-name="uni04FB" unicode="&#x4fb;" horiz-adv-x="455" 
d="M75 -205v110l8 -3q14 -2 22 -2q40 0 40 45v55h-65v165h-70v115h70v210h360v-125h-225v-85h125v-115h-125v-50h65v-185q0 -74 -35 -112t-100 -38q-29 0 -50 7q-3 1 -10 3.5t-10 4.5z" />
    <glyph glyph-name="uni04FC" unicode="&#x4fc;" horiz-adv-x="680" 
d="M0 0l240 365l-220 335h175l143 -230h4l143 230h175l-220 -335l145 -220q24 -35 42 -69q43 -82 43 -136q0 -75 -42.5 -117.5t-117.5 -42.5q-44 0 -77 7q-24 7 -28 8v135q10 -4 16 -5q18 -5 39 -5q55 0 55 40q0 17 -23 59q-14 24 -22 36l-128 205h-4l-163 -260h-175z" />
    <glyph glyph-name="uni04FD" unicode="&#x4fd;" horiz-adv-x="515" 
d="M-5 0l175 250l-165 240h155l93 -150h4l93 150h155l-165 -240l120 -170q11 -17 22 -40q23 -52 23 -100q0 -72 -43 -116t-112 -44q-32 0 -58 7l-22 8v125q8 -4 13 -5q15 -5 32 -5q26 0 40.5 13.5t14.5 36.5q0 14 -15 46l-15 24l-83 130h-4l-103 -160h-155z" />
    <glyph glyph-name="uni04FE" unicode="&#x4fe;" horiz-adv-x="680" 
d="M0 0l205 305h-125v120h125l-185 275h175l143 -230h4l143 230h175l-185 -275h125v-120h-125l205 -305h-175l-163 260h-4l-163 -260h-175z" />
    <glyph glyph-name="uni04FF" unicode="&#x4ff;" horiz-adv-x="510" 
d="M-5 0l140 190h-90v120h90l-130 180h155l93 -150h4l93 150h155l-130 -180h90v-120h-90l140 -190h-155l-103 160h-4l-103 -160h-155z" />
    <glyph glyph-name="uni0510" unicode="&#x510;" horiz-adv-x="585" 
d="M485 195l100 -100q-26 -30 -66 -55q-86 -55 -194 -55q-129 0 -204.5 61.5t-75.5 148.5q0 86 70 140q33 24 70 35q-33 11 -58 30q-57 45 -57 120q0 79 70 137t185 58q95 0 171 -43q33 -18 54 -42l-100 -100q-17 17 -31 25q-44 25 -94 25q-47 0 -73.5 -22.5t-26.5 -57.5
q0 -36 27.5 -58t82.5 -22h85v-130h-95q-61 0 -93 -24.5t-32 -60.5t32 -60.5t93 -24.5q62 0 117 37q21 15 43 38z" />
    <glyph glyph-name="uni0511" unicode="&#x511;" horiz-adv-x="440" 
d="M310 195h-60q-70 0 -70 -45t70 -45q48 0 84 27q18 12 31 28l75 -80q-18 -24 -49 -45q-65 -45 -151 -45q-96 0 -150.5 42.5t-54.5 102.5t52 93q21 14 53 22q-26 7 -48 23q-47 33 -47 87q0 56 53 98t142 42q73 0 137 -35q30 -18 48 -35l-75 -80q-18 12 -29 17
q-38 18 -71 18q-28 0 -44 -12t-16 -28t16 -28t44 -12h60v-110z" />
    <glyph glyph-name="uni0512" unicode="&#x512;" horiz-adv-x="765" 
d="M0 0v145q9 -4 16 -5q17 -5 34 -5q29 0 48.5 13t37 48.5t26 106t8.5 177.5v220h505v-740q0 -86 -44 -133t-121 -47q-43 0 -73 7q-23 6 -27 8v135q9 -4 16 -5q17 -5 34 -5q30 0 47.5 18.5t17.5 51.5v570h-205v-80q0 -144 -17 -243.5t-50 -153t-73.5 -76t-94.5 -22.5
q-35 0 -61 7z" />
    <glyph glyph-name="uni0513" unicode="&#x513;" horiz-adv-x="580" 
d="M0 0v125l12 -3q14 -2 23 -2q28 0 43.5 15t26 67t10.5 148v140h400v-540q0 -82 -41 -126t-114 -44q-31 0 -57 7q-3 1 -11 3.5t-12 4.5v125q8 -4 13 -5q15 -5 32 -5q55 0 55 60v395h-130v-15q0 -365 -180 -365q-31 0 -52 7q-16 7 -18 8z" />
    <glyph glyph-name="Wgrave" unicode="&#x1e80;" horiz-adv-x="1070" 
d="M245 0l-230 700h155l145 -470h5l145 470h140l145 -470h5l145 470h155l-230 -700h-145l-142 455h-6l-142 -455h-145zM480 785l-110 150h140l80 -150h-110z" />
    <glyph glyph-name="wgrave" unicode="&#x1e81;" horiz-adv-x="770" 
d="M167 0l-172 490h145l90 -290h5l95 290h110l95 -290h5l90 290h145l-172 -490h-123l-93 285h-4l-93 -285h-123zM330 555l-110 150h140l80 -150h-110z" />
    <glyph glyph-name="Wacute" unicode="&#x1e82;" horiz-adv-x="1070" 
d="M245 0l-230 700h155l145 -470h5l145 470h140l145 -470h5l145 470h155l-230 -700h-145l-142 455h-6l-142 -455h-145zM480 785l80 150h140l-110 -150h-110z" />
    <glyph glyph-name="wacute" unicode="&#x1e83;" horiz-adv-x="770" 
d="M167 0l-172 490h145l90 -290h5l95 290h110l95 -290h5l90 290h145l-172 -490h-123l-93 285h-4l-93 -285h-123zM330 555l80 150h140l-110 -150h-110z" />
    <glyph glyph-name="Wdieresis" unicode="&#x1e84;" horiz-adv-x="1070" 
d="M245 0l-230 700h155l145 -470h5l145 470h140l145 -470h5l145 470h155l-230 -700h-145l-142 455h-6l-142 -455h-145zM350 855q0 30 22.5 52.5t52.5 22.5t52.5 -22.5t22.5 -52.5t-22.5 -52.5t-52.5 -22.5t-52.5 22.5t-22.5 52.5zM570 855q0 30 22.5 52.5t52.5 22.5
t52.5 -22.5t22.5 -52.5t-22.5 -52.5t-52.5 -22.5t-52.5 22.5t-22.5 52.5z" />
    <glyph glyph-name="wdieresis" unicode="&#x1e85;" horiz-adv-x="770" 
d="M167 0l-172 490h145l90 -290h5l95 290h110l95 -290h5l90 290h145l-172 -490h-123l-93 285h-4l-93 -285h-123zM200 630q0 30 22.5 52.5t52.5 22.5t52.5 -22.5t22.5 -52.5t-22.5 -52.5t-52.5 -22.5t-52.5 22.5t-22.5 52.5zM420 630q0 30 22.5 52.5t52.5 22.5t52.5 -22.5
t22.5 -52.5t-22.5 -52.5t-52.5 -22.5t-52.5 22.5t-22.5 52.5z" />
    <glyph glyph-name="uni1E9E" unicode="&#x1e9e;" horiz-adv-x="735" 
d="M80 0v460q0 105 68.5 172.5t176.5 67.5h325v-140l-130 -145v-5q48 -11 85 -36q85 -59 85 -159q0 -92 -67.5 -153.5t-177.5 -61.5h-85v140h85q44 0 67 20t23 55t-23 55t-67 20h-85v130l125 140h-155q-45 0 -72.5 -27.5t-27.5 -72.5v-460h-150z" />
    <glyph glyph-name="Ygrave" unicode="&#x1ef2;" horiz-adv-x="670" 
d="M260 0v250l-265 450h175l163 -300h4l163 300h175l-265 -450v-250h-150zM280 785l-110 150h140l80 -150h-110z" />
    <glyph glyph-name="ygrave" unicode="&#x1ef3;" horiz-adv-x="510" 
d="M35 -195v125q10 -4 16 -5q18 -5 39 -5q59 0 85 60l10 25l-190 485h145l115 -325h5l110 325h145l-200 -530q-32 -85 -77.5 -127.5t-112.5 -42.5q-36 0 -64 7q-4 1 -13 3.5t-13 4.5zM205 555l-110 150h140l80 -150h-110z" />
    <glyph glyph-name="endash" unicode="&#x2013;" horiz-adv-x="525" 
d="M40 235v115h445v-115h-445z" />
    <glyph glyph-name="emdash" unicode="&#x2014;" horiz-adv-x="765" 
d="M40 235v115h685v-115h-685z" />
    <glyph glyph-name="quoteleft" unicode="&#x2018;" horiz-adv-x="260" 
d="M20 505l140 215l80 -45l-105 -235z" />
    <glyph glyph-name="quoteright" unicode="&#x2019;" horiz-adv-x="260" 
d="M20 485l105 235l115 -65l-140 -215z" />
    <glyph glyph-name="quotesinglbase" unicode="&#x201a;" horiz-adv-x="240" 
d="M-15 -85l105 235l115 -65l-140 -215z" />
    <glyph glyph-name="quotedblleft" unicode="&#x201c;" horiz-adv-x="460" 
d="M220 505l140 215l80 -45l-105 -235zM20 505l140 215l80 -45l-105 -235z" />
    <glyph glyph-name="quotedblright" unicode="&#x201d;" horiz-adv-x="460" 
d="M20 485l105 235l115 -65l-140 -215zM220 485l105 235l115 -65l-140 -215z" />
    <glyph glyph-name="quotedblbase" unicode="&#x201e;" horiz-adv-x="440" 
d="M-15 -85l105 235l115 -65l-140 -215zM185 -85l105 235l115 -65l-140 -215z" />
    <glyph glyph-name="dagger" unicode="&#x2020;" horiz-adv-x="450" 
d="M165 145v310h-125v115h125v130h120v-130h125v-115h-125v-310h-120z" />
    <glyph glyph-name="daggerdbl" unicode="&#x2021;" horiz-adv-x="450" 
d="M40 250v115h125v115h-125v115h125v105h120v-105h125v-115h-125v-115h125v-115h-125v-105h-120v105h-125z" />
    <glyph glyph-name="bullet" unicode="&#x2022;" horiz-adv-x="490" 
d="M120 255q0 53 36 89t89 36t89 -36t36 -89t-36 -89t-89 -36t-89 36t-36 89z" />
    <glyph glyph-name="ellipsis" unicode="&#x2026;" horiz-adv-x="780" 
d="M40 70q0 34 23 57t57 23t57 -23t23 -57t-23 -57t-57 -23t-57 23t-23 57zM310 70q0 34 23 57t57 23t57 -23t23 -57t-23 -57t-57 -23t-57 23t-23 57zM580 70q0 34 23 57t57 23t57 -23t23 -57t-23 -57t-57 -23t-57 23t-23 57z" />
    <glyph glyph-name="perthousand" unicode="&#x2030;" horiz-adv-x="1190" 
d="M125 0l440 700h125l-440 -700h-125zM130 550q0 -30 20 -50t50 -20t50 20t20 50t-20 50t-50 20t-50 -20t-20 -50zM30 550q0 69 49 117t121 48t121 -48t49 -117t-49 -117t-121 -48t-121 48t-49 117zM545 150q0 -30 20 -50t50 -20t50 20t20 50t-20 50t-50 20t-50 -20
t-20 -50zM445 150q0 69 49 117t121 48t121 -48t49 -117t-49 -117t-121 -48t-121 48t-49 117zM920 150q0 -30 20 -50t50 -20t50 20t20 50t-20 50t-50 20t-50 -20t-20 -50zM820 150q0 69 49 117t121 48t121 -48t49 -117t-49 -117t-121 -48t-121 48t-49 117z" />
    <glyph glyph-name="guilsinglleft" unicode="&#x2039;" horiz-adv-x="340" 
d="M160 60l-125 180l125 180h145l-125 -180l125 -180h-145z" />
    <glyph glyph-name="guilsinglright" unicode="&#x203a;" horiz-adv-x="340" 
d="M35 60l125 180l-125 180h145l125 -180l-125 -180h-145z" />
    <glyph glyph-name="uni203D" unicode="&#x203d;" horiz-adv-x="545" 
d="M180 260l-10 265q-12 -9 -23 -26l-7 -14l-130 60q18 47 52 82q83 83 203 83q113 0 181.5 -59.5t68.5 -145.5q0 -47 -20 -83t-48.5 -58.5t-57.5 -42.5t-49 -46.5t-20 -59.5h-130q-4 8 -5 13q-5 15 -5 32zM170 70q0 34 23 57t57 23t57 -23t23 -57t-23 -57t-57 -23t-57 23
t-23 57zM295 560l-5 -150q6 6 20 18t22.5 19.5t15.5 20.5t7 27q0 26 -16.5 43.5t-43.5 21.5z" />
    <glyph glyph-name="fraction" unicode="&#x2044;" horiz-adv-x="160" 
d="M-200 0l435 700h125l-435 -700h-125z" />
    <glyph glyph-name="uni2070" unicode="&#x2070;" horiz-adv-x="360" 
d="M180 525q28 0 46.5 24.5t18.5 70.5q0 50 -18.5 75t-46.5 25t-46.5 -25t-18.5 -75q0 -46 18.5 -70.5t46.5 -24.5zM180 440q-69 0 -114.5 49.5t-45.5 130.5q0 85 45.5 135t114.5 50t114.5 -50t45.5 -135q0 -81 -45.5 -130.5t-114.5 -49.5z" />
    <glyph glyph-name="uni2074" unicode="&#x2074;" horiz-adv-x="320" 
d="M5 510v85l155 205h100v-205h40v-85h-40v-65h-95v65h-160zM100 595h65v85z" />
    <glyph glyph-name="uni2075" unicode="&#x2075;" horiz-adv-x="320" 
d="M10 495l55 60q11 -11 22 -18q28 -17 53 -17t40 13t15 32t-13.5 32t-36.5 13q-18 0 -36 -10q-10 -6 -14 -10h-60l20 210h220v-80h-140l-5 -50q1 0 13 5q13 5 32 5q53 0 86.5 -33.5t33.5 -86.5q0 -50 -39.5 -85t-105.5 -35q-61 0 -104 27q-22 13 -36 28z" />
    <glyph glyph-name="uni2076" unicode="&#x2076;" horiz-adv-x="315" 
d="M50 664l100 136h95l-75 -105q60 -8 95 -42t35 -83q0 -53 -40.5 -91.5t-102.5 -38.5q-61 0 -101.5 38.5t-40.5 91.5q0 34 17 66q7 14 18 28zM105 570q0 -23 14 -36.5t38 -13.5q25 0 39 13.5t14 36.5t-14 36.5t-39 13.5q-24 0 -38 -13.5t-14 -36.5z" />
    <glyph glyph-name="uni2077" unicode="&#x2077;" horiz-adv-x="300" 
d="M65 445l125 265h-160v90h260v-90l-125 -265h-100z" />
    <glyph glyph-name="uni2078" unicode="&#x2078;" horiz-adv-x="330" 
d="M115 555q0 -35 50 -35t50 35t-50 35t-50 -35zM125 695q0 -12 11 -21t29 -9t29 9t11 21t-11 21t-29 9t-29 -9t-11 -21zM20 545q0 41 32 67q14 10 33 18q-15 5 -28 17q-27 22 -27 58q0 44 34.5 72t100.5 28t100.5 -28t34.5 -72q0 -36 -28 -58q-13 -11 -27 -17q19 -8 32 -18
q33 -27 33 -67q0 -44 -38.5 -74.5t-106.5 -30.5t-106.5 30.5t-38.5 74.5z" />
    <glyph glyph-name="uni2079" unicode="&#x2079;" horiz-adv-x="315" 
d="M70 445l75 105q-60 8 -95 42t-35 83q0 53 40.5 91.5t102.5 38.5q61 0 101.5 -38.5t40.5 -91.5q0 -32 -18 -66q-5 -10 -17 -28l-100 -136h-95zM105 675q0 -23 14 -36.5t39 -13.5q24 0 38 13.5t14 36.5t-14 36.5t-38 13.5q-25 0 -39 -13.5t-14 -36.5z" />
    <glyph glyph-name="uni2080" unicode="&#x2080;" horiz-adv-x="360" 
d="M180 -20q28 0 46.5 24.5t18.5 70.5q0 50 -18.5 75t-46.5 25t-46.5 -25t-18.5 -75q0 -46 18.5 -70.5t46.5 -24.5zM180 -105q-69 0 -114.5 49.5t-45.5 130.5q0 85 45.5 135t114.5 50t114.5 -50t45.5 -135q0 -81 -45.5 -130.5t-114.5 -49.5z" />
    <glyph glyph-name="uni2081" unicode="&#x2081;" horiz-adv-x="270" 
d="M115 -100v235h-65v75q34 3 54.5 17t25.5 28h80v-355h-95z" />
    <glyph glyph-name="uni2082" unicode="&#x2082;" horiz-adv-x="330" 
d="M160 -10h130v-90h-260q0 46 17.5 82t42.5 58t50 38.5t42.5 31.5t17.5 30t-13 25t-32 10q-23 0 -41 -18q-8 -8 -14 -17l-70 30q11 26 28 45q41 45 107 45q59 0 94.5 -32.5t35.5 -82.5q0 -40 -24 -66.5t-60.5 -48.5t-50.5 -40z" />
    <glyph glyph-name="uni2083" unicode="&#x2083;" horiz-adv-x="325" 
d="M15 -50l55 60q9 -10 21 -18q28 -17 59 -17q50 0 50 35t-50 35h-45v75h45q18 0 29 9t11 21t-11 21t-29 9q-26 0 -50 -18q-10 -8 -20 -17l-55 60q13 15 33 27q43 28 97 28q62 0 96 -28t34 -72q0 -33 -25 -58q-11 -11 -25 -17q17 -7 30 -18q30 -26 30 -62q0 -47 -36.5 -78.5
t-98.5 -31.5q-67 0 -110 27q-23 13 -35 28z" />
    <glyph glyph-name="uni2084" unicode="&#x2084;" horiz-adv-x="320" 
d="M5 -35v85l155 205h100v-205h40v-85h-40v-65h-95v65h-160zM100 50h65v85z" />
    <glyph glyph-name="uni2085" unicode="&#x2085;" horiz-adv-x="320" 
d="M10 -50l55 60q11 -11 22 -18q28 -17 53 -17t40 13t15 32t-13.5 32t-36.5 13q-18 0 -36 -10q-10 -6 -14 -10h-60l20 210h220v-80h-140l-5 -50q1 0 13 5q13 5 32 5q53 0 86.5 -33.5t33.5 -86.5q0 -50 -39.5 -85t-105.5 -35q-61 0 -104 27q-22 13 -36 28z" />
    <glyph glyph-name="uni2086" unicode="&#x2086;" horiz-adv-x="315" 
d="M50 119l100 136h95l-75 -105q60 -8 95 -42t35 -83q0 -53 -40.5 -91.5t-102.5 -38.5q-61 0 -101.5 38.5t-40.5 91.5q0 34 17 66q7 14 18 28zM105 25q0 -23 14 -36.5t38 -13.5q25 0 39 13.5t14 36.5t-14 36.5t-39 13.5q-24 0 -38 -13.5t-14 -36.5z" />
    <glyph glyph-name="uni2087" unicode="&#x2087;" horiz-adv-x="300" 
d="M65 -100l125 265h-160v90h260v-90l-125 -265h-100z" />
    <glyph glyph-name="uni2088" unicode="&#x2088;" horiz-adv-x="330" 
d="M115 10q0 -35 50 -35t50 35t-50 35t-50 -35zM125 150q0 -12 11 -21t29 -9t29 9t11 21t-11 21t-29 9t-29 -9t-11 -21zM20 0q0 41 32 67q14 11 33 18q-15 5 -28 17q-27 22 -27 58q0 44 34.5 72t100.5 28t100.5 -28t34.5 -72q0 -36 -28 -58q-13 -11 -27 -17q19 -8 32 -18
q33 -27 33 -67q0 -44 -38.5 -74.5t-106.5 -30.5t-106.5 30.5t-38.5 74.5z" />
    <glyph glyph-name="uni2089" unicode="&#x2089;" horiz-adv-x="315" 
d="M70 -100l75 105q-60 8 -95 42t-35 83q0 53 40.5 91.5t102.5 38.5q61 0 101.5 -38.5t40.5 -91.5q0 -32 -18 -66q-5 -10 -17 -28l-100 -136h-95zM105 130q0 -23 14 -36.5t39 -13.5q24 0 38 13.5t14 36.5t-14 36.5t-38 13.5q-25 0 -39 -13.5t-14 -36.5z" />
    <glyph glyph-name="uni20A9" unicode="&#x20a9;" horiz-adv-x="1025" 
d="M20 220v90h145l-25 80h-120v90h95l-70 220h160l70 -220h110l65 220h125l65 -220h110l70 220h160l-70 -220h95v-90h-120l-25 -80h145v-90h-170l-70 -220h-135l-65 220h-105l-65 -220h-135l-70 220h-170zM695 310h5l25 80h-55zM325 310h5l25 80h-55zM485 310h55l-25 85h-5z
" />
    <glyph glyph-name="Euro" unicode="&#x20ac;" horiz-adv-x="730" 
d="M20 225v90h85q-1 3 -1 10q-1 7 -1 25t1 25q0 7 1 10h-85v90h105q25 67 69 120q104 120 256 120q113 0 199 -58q36 -25 61 -57l-100 -100q-17 20 -40 37q-54 38 -115 38q-74 0 -128 -50q-25 -25 -37 -50h180v-90h-210q-1 -3 -1 -10q-1 -7 -1 -25t1 -25q0 -7 1 -10h210v-90
h-180q12 -25 37 -50q54 -50 128 -50q62 0 115 37q24 18 40 38l100 -100q-26 -34 -61 -58q-85 -57 -199 -57q-158 0 -256 120q-44 53 -69 120h-105z" />
    <glyph glyph-name="uni20B4" unicode="&#x20b4;" horiz-adv-x="650" 
d="M40 380v100h350l5 7q5 8 5 23q0 28 -27 49t-73 21q-45 0 -91 -30q-18 -13 -34 -30l-95 100q25 27 57 47q78 48 173 48q118 0 184 -53t66 -132q0 -21 -5 -36l-5 -14h60v-100h-570zM40 220v100h570v-100h-350q-5 -7 -5 -8q-5 -8 -5 -22q0 -28 27 -49t73 -21q45 0 91 30
q18 13 34 30l95 -100q-24 -27 -57 -48q-76 -47 -173 -47q-118 0 -184 53t-66 132q0 19 5 36q1 7 5 14h-60z" />
    <glyph glyph-name="uni20B8" unicode="&#x20b8;" horiz-adv-x="610" 
d="M230 0v395h-200v120h550v-120h-200v-395h-150zM30 580v120h550v-120h-550z" />
    <glyph glyph-name="uni20B9" unicode="&#x20b9;" horiz-adv-x="585" 
d="M50 260v110h175q63 0 90 50h-265v105h265q-21 60 -90 60h-175v115h500v-115h-96q2 -4 8 -17q7 -18 11 -43h77v-105h-77q-15 -68 -71.5 -115t-146.5 -55q49 -39 150.5 -122t159.5 -128h-195z" />
    <glyph glyph-name="uni20BA" unicode="&#x20ba;" horiz-adv-x="580" 
d="M100 -10v243l-70 -23v110l70 23v50l-70 -23v110l70 23v197h150v-148l175 58v-110l-175 -58v-50l175 58v-110l-175 -58v-156q170 20 170 109q0 19 -5 32q-5 12 -5 13l125 50q7 -14 12 -30q13 -35 13 -75q0 -46 -23.5 -84.5t-74.5 -72t-143 -54t-219 -24.5z" />
    <glyph glyph-name="uni20BD" unicode="&#x20bd;" horiz-adv-x="675" 
d="M260 390h140q42 0 68.5 25.5t26.5 64.5t-26.5 64.5t-68.5 25.5h-140v-180zM110 0v100h-80v110h80v60h-80v120h80v310h295q107 0 173.5 -61.5t66.5 -153.5t-66.5 -153.5t-173.5 -61.5h-145v-60h215v-110h-215v-100h-150z" />
    <glyph glyph-name="uni20BF" unicode="&#x20bf;" horiz-adv-x="690" 
d="M205 -120v120h-115v700h115v120h90v-120h60v120h90v-125q43 -10 82 -34q83 -55 83 -146q0 -68 -48 -114q-23 -21 -47 -31q35 -10 65 -34q65 -55 65 -136q0 -111 -100 -165q-43 -22 -100 -30v-125h-90v120h-60v-120h-90zM240 130h155q44 0 69.5 23t25.5 62t-25.5 62
t-69.5 23h-155v-170zM240 430h135q37 0 58.5 19.5t21.5 50.5t-21.5 50.5t-58.5 19.5h-135v-140z" />
    <glyph glyph-name="uni2113" unicode="&#x2113;" horiz-adv-x="385" 
d="M10 205v80q32 0 62 7l28 8v265q0 71 33.5 108t91.5 37q59 0 92 -39t33 -116q0 -110 -50.5 -191t-119.5 -118v-111q0 -38 15.5 -54t49.5 -16q25 0 43 7q13 5 17 8v-72l-21 -9q-23 -9 -54 -9q-61 0 -95.5 37t-34.5 108v85q-4 -2 -13 -4.5t-13 -3.5q-28 -7 -64 -7zM180 567
v-227q95 76 95 215q0 80 -50 80q-45 0 -45 -68z" />
    <glyph glyph-name="uni2116" unicode="&#x2116;" horiz-adv-x="1185" 
d="M800 0v120h330v-120h-330zM965 295q26 0 45.5 19.5t19.5 45.5t-19.5 45.5t-45.5 19.5t-45.5 -19.5t-19.5 -45.5t19.5 -45.5t45.5 -19.5zM795 360q0 69 49 117t121 48t121 -48t49 -117t-49 -117t-121 -48t-121 48t-49 117zM90 0v700h135l340 -435v435h150v-700h-135
l-340 435v-435h-150z" />
    <glyph glyph-name="uni2117" unicode="&#x2117;" horiz-adv-x="850" 
d="M295 160v380h155q63 0 104 -39t41 -96t-41 -96t-104 -39h-60v-110h-95zM390 355h55q23 0 36.5 13.5t13.5 36.5t-13.5 36.5t-36.5 13.5h-55v-100zM425 60q117 0 201 85t84 205t-84 205t-201 85t-201 -85t-84 -205t84 -205t201 -85zM50 350q0 154 108.5 262t266.5 108
t266.5 -108t108.5 -262t-108.5 -262t-266.5 -108t-266.5 108t-108.5 262z" />
    <glyph glyph-name="trademark" unicode="&#x2122;" horiz-adv-x="695" 
d="M90 380v235h-90v85h270v-85h-90v-235h-90zM305 380v320h80l95 -125l95 125h80v-320h-90v173l-85 -108l-85 108v-173h-90z" />
    <glyph glyph-name="uni2126" unicode="&#x2126;" horiz-adv-x="860" 
d="M110 0v80h130q-45 33 -78 74q-77 97 -77 216q0 142 99.5 241t245.5 99t245.5 -99t99.5 -241q0 -118 -78 -216q-34 -43 -77 -74h130v-80h-255v80q55 26 97 65q98 92 98 225q0 109 -75.5 184.5t-184.5 75.5t-184.5 -75.5t-75.5 -184.5q0 -132 97 -225q42 -39 98 -65v-80
h-255z" />
    <glyph glyph-name="estimated" unicode="&#x212e;" horiz-adv-x="870" 
d="M225 380h420v215q-88 80 -210 80t-210 -80v-215zM225 345v-238q25 -24 57 -41q72 -41 163 -41q119 0 209 75q42 34 71 75l30 -25q-37 -48 -80 -80q-106 -80 -230 -80q-157 0 -263.5 104.5t-106.5 255.5q0 150 105 255t255 105t255 -105t105 -255v-5h-570z" />
    <glyph glyph-name="uni2150" unicode="&#x2150;" horiz-adv-x="750" 
d="M95 345v235h-65v75q34 3 54.5 17t25.5 28h80v-355h-95zM505 0l125 265h-160v90h260v-90l-125 -265h-100zM65 0l435 700h125l-435 -700h-125z" />
    <glyph glyph-name="uni2151" unicode="&#x2151;" horiz-adv-x="760" 
d="M65 0l435 700h125l-435 -700h-125zM95 345v235h-65v75q34 3 54.5 17t25.5 28h80v-355h-95zM500 0l75 105q-60 8 -95 42t-35 83q0 53 40.5 91.5t102.5 38.5q61 0 101.5 -38.5t40.5 -91.5q0 -32 -18 -66q-5 -10 -17 -28l-100 -136h-95zM535 230q0 -23 14 -36.5t39 -13.5
q24 0 38 13.5t14 36.5t-14 36.5t-38 13.5q-25 0 -39 -13.5t-14 -36.5z" />
    <glyph glyph-name="uni2152" unicode="&#x2152;" horiz-adv-x="1035" 
d="M65 0l435 700h125l-435 -700h-125zM95 345v235h-65v75q34 3 54.5 17t25.5 28h80v-355h-95zM535 0v235h-65v75q34 3 54.5 17t25.5 28h80v-355h-95zM845 80q28 0 46.5 24.5t18.5 70.5q0 50 -18.5 75t-46.5 25t-46.5 -25t-18.5 -75q0 -46 18.5 -70.5t46.5 -24.5zM845 -5
q-69 0 -114.5 49.5t-45.5 130.5q0 85 45.5 135t114.5 50t114.5 -50t45.5 -135q0 -81 -45.5 -130.5t-114.5 -49.5z" />
    <glyph glyph-name="onethird" unicode="&#x2153;" horiz-adv-x="755" 
d="M435 50l55 60q9 -10 21 -18q28 -17 59 -17q50 0 50 35t-50 35h-45v75h45q18 0 29 9t11 21t-11 21t-29 9q-26 0 -50 -18q-11 -8 -20 -17l-55 60q13 15 33 27q43 28 97 28q62 0 96 -28t34 -72q0 -33 -25 -58q-11 -11 -25 -17q17 -7 30 -18q30 -26 30 -62q0 -47 -36.5 -78.5
t-98.5 -31.5q-67 0 -110 27q-23 13 -35 28zM95 345v235h-65v75q34 3 54.5 17t25.5 28h80v-355h-95zM65 0l435 700h125l-435 -700h-125z" />
    <glyph glyph-name="twothirds" unicode="&#x2154;" horiz-adv-x="840" 
d="M170 435h130v-90h-260q0 46 17.5 82t42.5 58t50 38.5t42.5 31.5t17.5 30t-13 25t-32 10q-23 0 -41 -18q-8 -8 -14 -17l-70 30q11 26 28 45q41 45 107 45q59 0 94.5 -32.5t35.5 -82.5q0 -40 -24 -66.5t-60.5 -48.5t-50.5 -40zM520 50l55 60q9 -10 21 -18q28 -17 59 -17
q50 0 50 35t-50 35h-45v75h45q18 0 29 9t11 21t-11 21t-29 9q-26 0 -50 -18q-11 -8 -20 -17l-55 60q14 15 33 27q43 28 97 28q62 0 96 -28t34 -72q0 -33 -25 -58q-11 -11 -25 -17q16 -7 30 -18q30 -26 30 -62q0 -47 -36.5 -78.5t-98.5 -31.5q-67 0 -110 27q-23 13 -35 28z
M150 0l435 700h125l-435 -700h-125z" />
    <glyph glyph-name="uni2155" unicode="&#x2155;" horiz-adv-x="755" 
d="M95 345v235h-65v75q34 3 54.5 17t25.5 28h80v-355h-95zM430 50l55 60q11 -11 22 -18q28 -17 53 -17t40 13t15 32t-13.5 32t-36.5 13q-18 0 -36 -10q-10 -6 -14 -10h-60l20 210h220v-80h-140l-5 -50q1 0 13 5q13 5 32 5q53 0 86.5 -33.5t33.5 -86.5q0 -50 -39.5 -85
t-105.5 -35q-61 0 -104 27q-22 13 -36 28zM65 0l435 700h125l-435 -700h-125z" />
    <glyph glyph-name="uni2156" unicode="&#x2156;" horiz-adv-x="840" 
d="M170 435h130v-90h-260q0 46 17.5 82t42.5 58t50 38.5t42.5 31.5t17.5 30t-13 25t-32 10q-23 0 -41 -18q-8 -8 -14 -17l-70 30q11 26 28 45q41 45 107 45q59 0 94.5 -32.5t35.5 -82.5q0 -40 -24 -66.5t-60.5 -48.5t-50.5 -40zM515 50l55 60q11 -11 22 -18q28 -17 53 -17
t40 13t15 32t-13.5 32t-36.5 13q-18 0 -36 -10q-10 -6 -14 -10h-60l20 210h220v-80h-140l-5 -50q1 0 13 5q13 5 32 5q53 0 86.5 -33.5t33.5 -86.5q0 -50 -39.5 -85t-105.5 -35q-61 0 -104 27q-22 13 -36 28zM150 0l435 700h125l-435 -700h-125z" />
    <glyph glyph-name="uni2157" unicode="&#x2157;" horiz-adv-x="825" 
d="M30 395l55 60q9 -11 21 -18q28 -17 59 -17q50 0 50 35t-50 35h-45v75h45q18 0 29 9t11 21t-11 21t-29 9q-26 0 -50 -18q-10 -7 -20 -17l-55 60q14 15 33 27q43 28 97 28q62 0 96 -28t34 -72q0 -33 -25 -58q-11 -11 -25 -17q16 -8 30 -18q30 -26 30 -62q0 -47 -36.5 -78.5
t-98.5 -31.5q-67 0 -110 27q-23 13 -35 28zM500 50l55 60q11 -11 22 -18q28 -17 53 -17t40 13t15 32t-13.5 32t-36.5 13q-18 0 -36 -10q-10 -6 -14 -10h-60l20 210h220v-80h-140l-5 -50q1 0 13 5q13 5 32 5q53 0 86.5 -33.5t33.5 -86.5q0 -50 -39.5 -85t-105.5 -35
q-61 0 -104 27q-22 13 -36 28zM135 0l435 700h125l-435 -700h-125z" />
    <glyph glyph-name="uni2158" unicode="&#x2158;" horiz-adv-x="840" 
d="M20 410v85l155 205h100v-205h40v-85h-40v-65h-95v65h-160zM115 495h65v85zM515 50l55 60q11 -11 22 -18q28 -17 53 -17t40 13t15 32t-13.5 32t-36.5 13q-18 0 -36 -10q-10 -6 -14 -10h-60l20 210h220v-80h-140l-5 -50q1 0 13 5q13 5 32 5q53 0 86.5 -33.5t33.5 -86.5
q0 -50 -39.5 -85t-105.5 -35q-61 0 -104 27q-22 13 -36 28zM150 0l435 700h125l-435 -700h-125z" />
    <glyph glyph-name="uni2159" unicode="&#x2159;" horiz-adv-x="740" 
d="M95 345v235h-65v75q34 3 54.5 17t25.5 28h80v-355h-95zM450 219l100 136h95l-75 -105q60 -8 95 -42t35 -83q0 -53 -40.5 -91.5t-102.5 -38.5q-61 0 -101.5 38.5t-40.5 91.5q0 34 17 66q7 14 18 28zM505 125q0 -23 14 -36.5t38 -13.5q25 0 39 13.5t14 36.5t-14 36.5
t-39 13.5q-24 0 -38 -13.5t-14 -36.5zM65 0l435 700h125l-435 -700h-125z" />
    <glyph glyph-name="uni215A" unicode="&#x215a;" horiz-adv-x="815" 
d="M30 395l55 60q11 -11 22 -18q28 -17 53 -17t40 13t15 32t-13.5 32t-36.5 13q-18 0 -36 -10q-10 -6 -14 -10h-60l20 210h220v-80h-140l-5 -50q1 0 13 5q13 5 32 5q53 0 86.5 -33.5t33.5 -86.5q0 -50 -39.5 -85t-105.5 -35q-61 0 -104 27q-22 13 -36 28zM525 219l100 136
h95l-75 -105q60 -8 95 -42t35 -83q0 -53 -40.5 -91.5t-102.5 -38.5q-61 0 -101.5 38.5t-40.5 91.5q0 34 17 66q7 14 18 28zM580 125q0 -23 14 -36.5t38 -13.5q25 0 39 13.5t14 36.5t-14 36.5t-39 13.5q-24 0 -38 -13.5t-14 -36.5zM140 0l435 700h125l-435 -700h-125z" />
    <glyph glyph-name="oneeighth" unicode="&#x215b;" horiz-adv-x="775" 
d="M95 345v235h-65v75q34 3 54.5 17t25.5 28h80v-355h-95zM540 110q0 -35 50 -35t50 35t-50 35t-50 -35zM550 250q0 -12 11 -21t29 -9t29 9t11 21t-11 21t-29 9t-29 -9t-11 -21zM445 100q0 41 32 67q13 11 33 18q-15 5 -28 17q-27 22 -27 58q0 44 34.5 72t100.5 28
t100.5 -28t34.5 -72q0 -36 -28 -58q-13 -11 -27 -17q19 -8 32 -18q33 -27 33 -67q0 -44 -38.5 -74.5t-106.5 -30.5t-106.5 30.5t-38.5 74.5zM65 0l435 700h125l-435 -700h-125z" />
    <glyph glyph-name="threeeighths" unicode="&#x215c;" horiz-adv-x="845" 
d="M30 395l55 60q9 -11 21 -18q28 -17 59 -17q50 0 50 35t-50 35h-45v75h45q18 0 29 9t11 21t-11 21t-29 9q-26 0 -50 -18q-10 -7 -20 -17l-55 60q14 15 33 27q43 28 97 28q62 0 96 -28t34 -72q0 -33 -25 -58q-11 -11 -25 -17q16 -8 30 -18q30 -26 30 -62q0 -47 -36.5 -78.5
t-98.5 -31.5q-67 0 -110 27q-23 13 -35 28zM610 110q0 -35 50 -35t50 35t-50 35t-50 -35zM620 250q0 -12 11 -21t29 -9t29 9t11 21t-11 21t-29 9t-29 -9t-11 -21zM515 100q0 41 32 67q13 11 33 18q-15 5 -28 17q-27 22 -27 58q0 44 34.5 72t100.5 28t100.5 -28t34.5 -72
q0 -36 -28 -58q-13 -11 -27 -17q19 -8 32 -18q33 -27 33 -67q0 -44 -38.5 -74.5t-106.5 -30.5t-106.5 30.5t-38.5 74.5zM135 0l435 700h125l-435 -700h-125z" />
    <glyph glyph-name="fiveeighths" unicode="&#x215d;" horiz-adv-x="850" 
d="M30 395l55 60q11 -11 22 -18q28 -17 53 -17t40 13t15 32t-13.5 32t-36.5 13q-18 0 -36 -10q-10 -6 -14 -10h-60l20 210h220v-80h-140l-5 -50q1 0 13 5q13 5 32 5q53 0 86.5 -33.5t33.5 -86.5q0 -50 -39.5 -85t-105.5 -35q-61 0 -104 27q-22 13 -36 28zM615 110
q0 -35 50 -35t50 35t-50 35t-50 -35zM625 250q0 -12 11 -21t29 -9t29 9t11 21t-11 21t-29 9t-29 -9t-11 -21zM520 100q0 41 32 67q14 11 33 18q-15 5 -28 17q-27 22 -27 58q0 44 34.5 72t100.5 28t100.5 -28t34.5 -72q0 -36 -28 -58q-13 -11 -27 -17q19 -8 32 -18
q33 -27 33 -67q0 -44 -38.5 -74.5t-106.5 -30.5t-106.5 30.5t-38.5 74.5zM140 0l435 700h125l-435 -700h-125z" />
    <glyph glyph-name="seveneighths" unicode="&#x215e;" horiz-adv-x="800" 
d="M65 345l125 265h-160v90h260v-90l-125 -265h-100zM565 110q0 -35 50 -35t50 35t-50 35t-50 -35zM575 250q0 -12 11 -21t29 -9t29 9t11 21t-11 21t-29 9t-29 -9t-11 -21zM470 100q0 41 32 67q14 11 33 18q-15 5 -28 17q-27 22 -27 58q0 44 34.5 72t100.5 28t100.5 -28
t34.5 -72q0 -36 -28 -58q-13 -11 -27 -17q19 -8 32 -18q33 -27 33 -67q0 -44 -38.5 -74.5t-106.5 -30.5t-106.5 30.5t-38.5 74.5zM90 0l435 700h125l-435 -700h-125z" />
    <glyph glyph-name="uni215F" unicode="&#x215f;" horiz-adv-x="430" 
d="M95 345v235h-65v75q34 3 54.5 17t25.5 28h80v-355h-95zM65 0l435 700h125l-435 -700h-125z" />
    <glyph glyph-name="arrowleft" unicode="&#x2190;" horiz-adv-x="1000" 
d="M95 330l265 265l70 -70l-145 -145h620v-100h-620l145 -145l-70 -70z" />
    <glyph glyph-name="arrowup" unicode="&#x2191;" horiz-adv-x="1000" 
d="M450 -55v620l-145 -145l-70 70l265 265l265 -265l-70 -70l-145 145v-620h-100z" />
    <glyph glyph-name="arrowright" unicode="&#x2192;" horiz-adv-x="1000" 
d="M95 280v100h620l-145 145l70 70l265 -265l-265 -265l-70 70l145 145h-620z" />
    <glyph glyph-name="arrowdown" unicode="&#x2193;" horiz-adv-x="1000" 
d="M235 210l70 70l145 -145v620h100v-620l145 145l70 -70l-265 -265z" />
    <glyph glyph-name="arrowboth" unicode="&#x2194;" horiz-adv-x="1000" 
d="M95 330l265 265l70 -70l-145 -145h430l-145 145l70 70l265 -265l-265 -265l-70 70l145 145h-430l145 -145l-70 -70z" />
    <glyph glyph-name="arrowupdn" unicode="&#x2195;" horiz-adv-x="1000" 
d="M235 210l70 70l145 -145v430l-145 -145l-70 70l265 265l265 -265l-70 -70l-145 145v-430l145 145l70 -70l-265 -265z" />
    <glyph glyph-name="uni2196" unicode="&#x2196;" horiz-adv-x="1000" 
d="M195 260v375h375v-100h-205l440 -440l-70 -70l-440 440v-205h-100z" />
    <glyph glyph-name="uni2197" unicode="&#x2197;" horiz-adv-x="1000" 
d="M195 95l440 440h-205v100h375v-375h-100v205l-440 -440z" />
    <glyph glyph-name="uni2198" unicode="&#x2198;" horiz-adv-x="1000" 
d="M430 25v100h205l-440 440l70 70l440 -440v205h100v-375h-375z" />
    <glyph glyph-name="uni2199" unicode="&#x2199;" horiz-adv-x="1000" 
d="M195 25v375h100v-205l440 440l70 -70l-440 -440h205v-100h-375z" />
    <glyph glyph-name="partialdiff" unicode="&#x2202;" horiz-adv-x="595" 
d="M115 590v80q17 11 40 20q49 20 115 20q112 0 183.5 -95.5t71.5 -284.5q0 -173 -64.5 -256.5t-175.5 -83.5q-97 0 -161 64t-64 161q0 101 64.5 165.5t165.5 64.5q55 0 111 -23q24 -11 39 -22q-12 116 -60.5 175.5t-119.5 59.5q-47 0 -103 -23q-26 -12 -42 -22zM440 305
q-18 19 -39 32q-56 33 -111 33q-61 0 -103 -44t-42 -111t39.5 -108.5t100.5 -41.5q155 0 155 240z" />
    <glyph glyph-name="emptyset" unicode="&#x2205;" horiz-adv-x="880" 
d="M60 -10l107 118q-92 105 -92 242q0 150 107.5 257.5t257.5 107.5q116 0 212 -69l58 64h110l-107 -118q92 -105 92 -242q0 -150 -107.5 -257.5t-257.5 -107.5q-116 0 -212 69l-58 -64h-110zM656 528l-371 -411q68 -47 155 -47q116 0 198 82t82 198q0 101 -64 178zM224 172
l371 411q-67 47 -155 47q-116 0 -198 -82t-82 -198q0 -100 64 -178z" />
    <glyph glyph-name="uni2206" unicode="&#x2206;" horiz-adv-x="700" 
d="M55 0l260 700h70l260 -700h-590zM175 80h350l-175 475z" />
    <glyph glyph-name="product" unicode="&#x220f;" horiz-adv-x="780" 
d="M135 -110v810h510v-810h-85v725h-340v-725h-85z" />
    <glyph glyph-name="summation" unicode="&#x2211;" horiz-adv-x="570" 
d="M65 -110v70l235 355l-235 315v70h455v-80h-345l225 -305l-225 -345h345v-80h-455z" />
    <glyph glyph-name="minus" unicode="&#x2212;" horiz-adv-x="525" 
d="M35 230v125h455v-125h-455z" />
    <glyph glyph-name="radical" unicode="&#x221a;" horiz-adv-x="670" 
d="M240 -110l-105 270h-115v80h165l90 -230l280 800h85l-320 -920h-80z" />
    </font>
</defs>
</svg>
